{"glyphs":{"0":{"ha":843,"x_min":85,"x_max":757,"o":"m 160 862 q 198 919 160 862 q 421 976 236 976 q 681 862 606 976 q 757 479 757 747 q 681 97 757 211 q 421 -18 606 -18 q 160 97 236 -18 q 85 479 85 211 q 160 862 85 747 m 419 856 q 265 772 308 856 q 221 479 221 688 q 265 187 221 271 q 419 103 308 103 q 578 186 535 103 q 622 479 622 269 q 578 772 622 689 q 419 856 535 856 z "},"1":{"ha":558,"x_min":28,"x_max":407,"o":"m 407 0 l 268 0 l 268 742 q 275 828 268 792 l 44 757 l 28 861 l 268 958 l 407 958 l 407 0 z "},"2":{"ha":782,"x_min":75,"x_max":710,"o":"m 90 832 l 82 940 q 379 975 238 975 q 603 932 531 975 q 676 765 676 889 q 640 601 676 676 q 510 422 604 526 l 243 129 q 396 135 308 135 l 710 135 l 710 0 l 75 0 l 75 88 q 96 146 75 125 l 363 447 q 536 757 540 639 q 495 835 535 817 q 367 853 456 853 q 90 832 242 853 z "},"3":{"ha":774,"x_min":71,"x_max":685,"o":"m 96 843 l 86 951 q 361 976 229 976 q 590 928 521 976 q 660 754 660 879 q 519 513 660 539 l 519 507 q 645 433 608 492 q 685 267 682 374 q 617 50 688 118 q 378 -18 546 -18 q 71 7 246 -18 l 79 119 q 343 106 242 106 q 501 144 456 106 q 547 282 547 183 q 510 408 547 367 q 367 449 472 449 l 190 449 l 190 557 l 367 557 q 496 600 465 558 q 526 721 526 642 q 488 830 525 806 q 340 854 450 854 q 96 843 226 854 z "},"4":{"ha":860,"x_min":63,"x_max":801,"o":"m 801 242 l 676 228 l 676 0 l 544 0 l 544 228 l 160 228 q 67 277 97 228 q 63 385 38 326 l 328 958 l 464 958 l 206 394 q 204 353 194 367 q 239 340 214 340 l 544 340 l 544 618 l 569 774 l 676 774 l 676 340 l 801 340 l 801 242 z "},"5":{"ha":747,"x_min":68,"x_max":672,"o":"m 639 839 l 242 839 l 228 600 l 336 590 q 597 506 521 575 q 672 288 674 438 q 660 174 672 224 q 615 79 647 125 q 519 8 583 33 q 360 -17 454 -17 q 68 18 224 -17 l 85 131 q 326 107 215 107 q 492 149 450 107 q 536 288 533 190 q 534 338 538 315 q 526 377 531 360 q 509 408 522 394 q 486 431 496 422 q 453 448 476 440 q 413 460 429 456 q 361 468 397 464 q 302 474 325 472 q 231 481 279 476 l 158 488 q 120 506 135 489 q 107 547 106 522 l 129 958 l 644 958 l 639 839 z "},"6":{"ha":797,"x_min":89,"x_max":724,"o":"m 663 954 l 651 853 q 464 857 589 857 q 358 846 397 857 q 288 800 318 835 q 243 702 257 765 q 226 535 229 639 q 327 607 274 586 q 460 628 381 628 q 667 558 610 628 q 724 314 724 489 q 712 177 724 232 q 668 76 700 122 q 574 6 636 29 q 417 -17 513 -17 q 250 5 313 -17 q 151 85 188 26 q 101 229 114 143 q 89 461 89 315 q 110 729 89 626 q 183 885 132 832 q 297 957 233 939 q 464 975 361 975 q 663 954 583 975 m 418 103 q 559 151 526 103 q 592 314 592 200 q 556 471 592 426 q 424 515 521 515 q 323 498 367 515 q 225 436 279 481 q 230 272 225 328 q 256 174 235 217 q 314 117 276 131 q 418 103 351 103 z "},"7":{"ha":714,"x_min":51,"x_max":665,"o":"m 51 958 l 597 958 q 660 934 642 958 q 665 868 678 910 l 369 0 l 231 0 l 493 767 q 525 840 508 811 l 57 840 l 51 958 z "},"8":{"ha":843,"x_min":92,"x_max":751,"o":"m 250 494 l 250 500 q 114 719 114 515 q 178 915 114 857 q 421 974 243 974 q 665 915 600 972 q 729 719 729 857 q 593 500 729 515 l 593 494 q 715 422 679 486 q 751 239 751 357 q 683 44 751 103 q 421 -15 614 -14 q 162 43 232 -17 q 92 239 92 103 q 127 422 92 357 q 250 494 163 486 m 567 828 q 550 845 567 828 q 422 861 532 861 q 276 828 313 861 q 240 706 240 796 q 276 583 240 614 q 424 553 313 553 q 569 583 535 553 q 603 706 603 613 q 567 828 603 796 m 424 442 q 263 406 303 440 q 222 269 222 372 q 263 139 222 174 q 422 104 303 104 q 579 139 540 104 q 618 269 618 174 q 580 408 618 374 q 424 442 542 442 z "},"9":{"ha":797,"x_min":74,"x_max":706,"o":"m 118 4 l 129 107 q 329 103 196 103 q 514 169 463 103 q 571 428 565 235 q 467 352 521 374 q 333 331 413 331 q 74 643 74 331 q 144 895 72 815 q 385 975 215 975 q 491 967 446 975 q 571 944 536 960 q 628 901 606 929 q 667 838 651 872 q 691 748 683 803 q 702 634 699 693 q 706 490 706 575 q 692 274 706 361 q 651 128 678 186 q 578 39 625 71 q 474 -5 531 7 q 331 -17 417 -17 q 118 4 206 -17 m 371 442 q 472 460 428 442 q 571 525 515 478 q 569 640 571 597 q 561 725 568 682 q 542 789 554 768 q 510 828 531 810 q 458 851 489 846 q 383 857 428 857 q 240 806 276 857 q 206 643 204 756 q 240 491 204 540 q 371 442 276 442 z "}," ":{"ha":308,"x_min":0,"x_max":0,"o":""},"!":{"ha":385,"x_min":125,"x_max":260,"o":"m 260 550 l 246 296 l 139 296 l 125 550 l 125 965 l 260 965 l 260 550 m 176 172 l 210 172 q 249 161 238 172 q 260 124 260 150 l 260 50 q 249 11 260 22 q 210 0 238 0 l 176 0 q 138 11 149 0 q 128 50 128 22 l 128 124 q 139 161 128 150 q 176 172 150 172 z "},"\"":{"ha":497,"x_min":93,"x_max":406,"o":"m 193 658 l 101 658 l 93 958 l 201 958 l 193 658 m 397 658 l 306 658 l 297 958 l 406 958 l 397 658 z "},"#":{"ha":956,"x_min":57,"x_max":897,"o":"m 729 617 l 688 376 l 839 376 l 822 292 l 672 292 l 622 0 l 515 0 l 567 292 l 324 292 l 274 0 l 167 0 l 218 292 l 57 292 l 74 376 l 232 376 l 275 617 l 115 617 l 132 701 l 289 701 l 333 958 l 440 958 l 396 701 l 638 701 l 682 958 l 789 958 l 744 701 l 897 701 l 881 617 l 729 617 m 624 617 l 381 617 l 339 376 l 581 376 l 624 617 z "},"$":{"ha":785,"x_min":76,"x_max":717,"o":"m 443 542 l 522 519 q 673 425 629 490 q 717 247 717 360 q 644 35 717 88 q 389 -17 572 -17 l 376 -174 l 306 -174 l 318 -15 q 89 11 203 -10 l 99 118 q 329 113 276 114 l 354 426 l 267 450 q 120 544 164 478 q 76 722 76 610 q 94 855 76 804 q 154 932 111 906 q 250 967 197 958 q 392 975 303 975 l 407 975 l 417 1108 l 486 1108 l 476 972 q 681 946 593 968 l 672 844 q 467 850 550 850 l 443 542 m 374 561 l 397 851 q 253 830 289 851 q 217 718 217 808 q 242 618 217 647 q 333 572 268 589 l 374 561 m 422 407 l 399 113 q 539 139 503 113 q 575 249 575 165 q 550 351 575 322 q 461 396 525 379 l 422 407 z "},"%":{"ha":1244,"x_min":61,"x_max":1182,"o":"m 112 912 q 137 944 112 912 q 288 976 163 976 q 463 912 413 976 q 514 692 514 847 q 463 472 514 538 q 288 407 413 407 q 112 472 163 407 q 61 692 61 538 q 112 912 61 847 m 361 0 l 267 0 l 879 958 l 974 958 l 361 0 m 286 893 q 190 849 217 893 q 164 692 164 804 q 190 534 164 578 q 286 490 217 490 q 383 534 357 490 q 410 692 410 578 q 383 849 410 806 q 286 893 357 893 m 957 556 q 1131 490 1081 556 q 1182 271 1182 425 q 1131 51 1182 115 q 957 -14 1081 -14 q 781 51 832 -14 q 731 271 731 115 q 781 490 731 425 q 957 556 832 556 m 1053 428 q 1040 450 1053 428 q 956 471 1026 471 q 858 428 885 471 q 833 271 832 385 q 858 113 832 157 q 956 69 885 69 q 1053 113 1026 69 q 1079 271 1079 157 q 1053 428 1079 386 z "},"&":{"ha":1069,"x_min":89,"x_max":1006,"o":"m 990 104 l 1006 6 q 854 -12 943 -12 q 686 101 713 -12 q 552 11 625 38 q 371 -15 479 -15 q 153 42 218 -15 q 89 243 89 100 q 133 422 89 358 q 278 494 176 486 l 278 500 q 154 563 192 508 q 117 724 117 617 q 131 835 117 790 q 171 908 146 881 q 243 949 196 935 q 344 969 290 964 q 481 974 397 974 q 703 958 610 974 l 686 854 q 476 858 628 858 q 303 830 347 858 q 258 704 258 801 q 296 581 258 613 q 433 549 333 549 l 683 549 l 694 719 l 807 719 l 807 549 l 976 549 l 976 443 l 807 443 l 807 192 q 826 124 807 143 q 892 104 844 104 l 990 104 m 681 443 l 425 443 q 277 406 318 443 q 236 267 236 369 q 272 140 236 174 q 406 106 308 106 q 681 206 579 107 l 681 443 z "},"'":{"ha":293,"x_min":93,"x_max":201,"o":"m 193 658 l 101 658 l 93 958 l 201 958 l 193 658 z "},"(":{"ha":500,"x_min":71,"x_max":460,"o":"m 443 1097 l 460 1035 q 263 822 325 971 q 201 435 201 674 q 460 -167 201 -35 l 443 -229 q 161 3 251 -157 q 71 433 71 164 q 161 865 71 704 q 443 1097 251 1026 z "},")":{"ha":500,"x_min":40,"x_max":431,"o":"m 40 1035 l 57 1097 q 340 865 250 1026 q 431 433 431 704 q 340 3 431 164 q 57 -229 250 -157 l 40 -167 q 299 435 299 -35 q 237 822 299 674 q 40 1035 175 971 z "},"*":{"ha":625,"x_min":69,"x_max":554,"o":"m 339 735 l 481 556 l 417 508 l 311 681 l 207 510 l 142 557 l 283 735 l 272 960 l 353 960 l 339 735 m 258 774 l 258 739 l 242 717 l 69 763 l 96 838 l 258 774 m 554 761 l 382 717 l 364 739 l 364 774 l 529 838 l 554 761 z "},"+":{"ha":764,"x_min":75,"x_max":688,"o":"m 688 365 l 432 365 l 432 124 l 331 124 l 331 365 l 75 365 l 75 465 l 329 465 l 329 708 l 432 708 l 432 465 l 688 465 l 688 365 z "},",":{"ha":322,"x_min":90,"x_max":229,"o":"m 143 172 l 182 172 q 219 162 208 172 q 229 124 229 151 l 229 35 q 176 -186 228 -89 l 113 -169 q 128 0 128 -92 q 90 43 90 0 l 90 124 q 103 161 92 150 q 143 172 115 172 z "},"-":{"ha":614,"x_min":96,"x_max":518,"o":"m 518 300 l 96 300 l 96 403 l 518 403 l 518 300 z "},".":{"ha":324,"x_min":90,"x_max":233,"o":"m 140 172 l 183 172 q 222 162 211 172 q 233 124 233 151 l 233 50 q 222 11 233 22 q 183 0 211 0 l 140 0 q 101 11 113 0 q 90 50 90 22 l 90 124 q 101 162 90 151 q 140 172 113 172 z "},"/":{"ha":725,"x_min":35,"x_max":690,"o":"m 144 -93 l 35 -93 l 581 958 l 690 958 l 144 -93 z "},":":{"ha":336,"x_min":92,"x_max":235,"o":"m 140 614 l 185 614 q 224 603 213 614 q 235 565 235 593 l 235 490 q 224 452 235 463 q 185 442 213 442 l 140 442 q 103 453 114 442 q 92 490 92 464 l 92 565 q 103 603 92 592 q 140 614 114 614 m 140 172 l 185 172 q 224 162 213 172 q 235 124 235 151 l 235 50 q 224 11 235 22 q 185 0 213 0 l 140 0 q 102 11 113 0 q 92 50 92 22 l 92 124 q 103 161 92 150 q 140 172 114 172 z "},";":{"ha":338,"x_min":99,"x_max":242,"o":"m 149 614 l 192 614 q 231 603 219 614 q 242 565 242 593 l 242 490 q 231 452 242 463 q 192 442 219 442 l 149 442 q 110 452 121 442 q 99 490 99 463 l 99 565 q 110 603 99 593 q 149 614 121 614 m 151 172 l 190 172 q 227 162 217 172 q 238 124 238 151 l 238 35 q 185 -186 236 -89 l 122 -169 q 136 0 136 -87 q 100 43 97 0 l 100 124 q 113 161 101 150 q 151 172 124 172 z "},"<":{"ha":733,"x_min":71,"x_max":639,"o":"m 639 600 l 186 414 l 639 232 l 639 125 l 71 361 l 71 467 l 639 707 l 639 600 z "},"=":{"ha":813,"x_min":99,"x_max":713,"o":"m 713 504 l 99 504 l 99 604 l 713 604 l 713 504 m 713 211 l 99 211 l 99 311 l 713 311 l 713 211 z "},">":{"ha":733,"x_min":94,"x_max":663,"o":"m 663 467 l 663 361 l 94 125 l 94 232 l 547 414 l 94 600 l 94 707 l 663 467 z "},"?":{"ha":700,"x_min":53,"x_max":646,"o":"m 60 863 l 53 960 q 104 969 69 963 q 157 977 139 975 q 207 983 175 979 q 276 988 239 986 q 363 989 314 989 q 646 774 646 989 q 621 668 646 717 q 560 583 596 619 q 488 508 524 546 q 424 415 451 469 q 394 296 397 361 l 281 296 q 301 426 279 367 q 355 524 322 485 q 421 599 388 564 q 478 672 454 633 q 503 750 501 711 q 465 844 506 814 q 333 875 424 875 q 60 863 200 875 m 321 172 l 354 172 q 393 162 382 172 q 404 124 404 151 l 404 50 q 393 11 404 22 q 354 0 382 0 l 321 0 q 282 11 293 0 q 271 50 271 22 l 271 124 q 282 162 271 151 q 321 172 293 172 z "},"@":{"ha":1004,"x_min":99,"x_max":907,"o":"m 492 817 l 693 817 q 853 769 799 817 q 907 613 907 721 l 907 183 l 807 183 l 793 288 q 677 208 750 243 q 526 172 604 172 q 393 216 443 172 q 343 342 343 260 l 343 411 q 383 518 343 481 q 503 556 424 556 l 781 556 l 781 608 q 756 685 781 664 q 667 706 732 706 l 493 706 q 390 703 425 706 q 320 690 356 701 q 271 659 285 678 q 244 599 257 640 q 229 507 232 558 q 226 371 226 456 q 228 260 226 304 q 237 177 229 217 q 251 116 244 138 q 279 76 258 94 q 317 49 300 57 q 374 36 335 42 q 447 30 414 31 q 542 29 479 29 l 904 29 l 904 -71 q 543 -83 689 -83 q 371 -80 436 -85 q 251 -56 306 -75 q 171 -9 197 -36 q 126 74 144 18 q 103 197 108 131 q 99 371 99 263 q 103 540 99 476 q 123 659 107 604 q 163 741 139 714 q 234 787 186 768 q 340 811 282 806 q 492 817 397 817 m 781 474 l 550 468 q 485 451 503 467 q 468 394 468 435 l 468 365 q 553 279 468 279 q 674 302 611 279 q 781 365 738 325 l 781 474 z "},"A":{"ha":869,"x_min":13,"x_max":857,"o":"m 625 289 l 243 289 l 154 0 l 13 0 l 313 921 q 364 958 324 958 l 506 958 q 556 921 547 958 l 857 0 l 714 0 l 625 289 m 589 410 l 476 774 q 465 813 472 786 q 453 851 457 839 l 415 851 l 393 774 l 281 410 l 589 410 z "},"B":{"ha":864,"x_min":117,"x_max":786,"o":"m 594 500 l 594 494 q 742 422 699 485 q 786 239 786 358 q 717 42 786 94 q 478 -11 649 -11 q 117 0 243 -11 l 117 958 q 436 969 229 969 q 687 917 617 969 q 757 719 757 865 q 718 562 757 615 q 594 500 679 508 m 253 550 l 447 550 q 585 581 547 550 q 624 703 624 613 q 582 822 624 792 q 429 851 540 851 l 253 851 l 253 550 m 253 108 l 457 107 q 606 138 567 107 q 646 263 646 169 q 603 404 646 367 q 449 443 561 442 l 253 443 l 253 108 z "},"C":{"ha":794,"x_min":82,"x_max":746,"o":"m 732 122 l 746 17 q 461 -17 631 -17 q 167 94 251 -17 q 82 479 82 206 q 167 864 82 753 q 461 975 251 975 q 726 947 611 975 l 713 840 q 461 851 601 851 q 278 771 329 851 q 228 479 228 690 q 278 188 228 268 q 461 107 329 107 q 732 122 638 107 z "},"D":{"ha":924,"x_min":117,"x_max":842,"o":"m 117 0 l 117 958 q 463 971 299 971 q 758 864 674 971 q 842 479 842 757 q 758 94 842 201 q 463 -12 674 -12 q 117 0 299 -12 m 256 849 l 256 113 q 463 108 344 108 q 644 189 593 108 q 694 479 694 269 q 644 769 694 689 q 463 850 593 850 q 352 849 421 850 q 256 849 283 849 z "},"E":{"ha":781,"x_min":108,"x_max":713,"o":"m 706 115 l 713 8 q 301 -3 586 -3 q 161 44 213 -3 q 108 169 110 90 l 108 789 q 161 915 110 868 q 301 961 213 961 q 713 950 586 961 l 706 842 l 325 842 q 266 822 283 842 q 249 753 249 801 l 249 561 l 653 561 l 653 449 l 249 449 l 249 204 q 266 135 249 156 q 325 115 283 115 l 706 115 z "},"F":{"ha":750,"x_min":114,"x_max":704,"o":"m 697 842 l 342 842 q 273 822 293 842 q 253 753 253 801 l 253 546 l 644 546 l 644 433 l 253 433 l 253 0 l 114 0 l 114 782 q 166 914 114 867 q 307 961 218 961 q 704 949 582 961 l 697 842 z "},"G":{"ha":874,"x_min":82,"x_max":783,"o":"m 783 553 l 783 0 l 681 0 l 667 97 q 382 -18 546 -18 q 153 103 224 -18 q 82 483 82 224 q 122 783 82 676 q 249 933 163 889 q 490 976 335 976 q 757 947 640 976 l 743 842 q 499 853 626 853 q 393 845 433 853 q 318 815 353 838 q 266 750 283 793 q 239 640 249 707 q 229 474 229 574 q 272 185 229 267 q 421 103 314 103 q 647 188 522 103 l 647 553 l 783 553 z "},"H":{"ha":931,"x_min":117,"x_max":814,"o":"m 814 958 l 814 0 l 675 0 l 675 451 l 256 451 l 256 0 l 117 0 l 117 958 l 256 958 l 256 571 l 675 571 l 675 958 l 814 958 z "},"I":{"ha":372,"x_min":117,"x_max":256,"o":"m 256 0 l 117 0 l 117 958 l 256 958 l 256 0 z "},"J":{"ha":476,"x_min":39,"x_max":364,"o":"m 364 958 l 364 210 q 315 43 364 100 q 175 -12 267 -14 q 39 6 93 -12 l 54 106 l 122 106 q 225 203 225 106 l 225 958 l 364 958 z "},"K":{"ha":829,"x_min":117,"x_max":806,"o":"m 354 443 l 246 443 q 256 344 256 385 l 256 0 l 117 0 l 117 958 l 256 958 l 256 664 q 246 556 256 604 l 354 556 l 636 958 l 788 958 l 517 567 q 458 500 494 535 l 458 496 q 525 424 497 463 l 806 0 l 651 0 l 354 443 z "},"L":{"ha":715,"x_min":114,"x_max":688,"o":"m 253 958 l 253 206 q 272 137 253 157 q 340 117 292 117 l 681 117 l 688 10 q 318 -3 553 -3 q 114 186 114 -3 l 114 958 l 253 958 z "},"M":{"ha":1224,"x_min":99,"x_max":1126,"o":"m 879 958 l 1031 958 q 1088 901 1085 958 l 1126 0 l 988 0 l 954 843 l 926 843 l 732 161 q 672 114 719 114 l 551 114 q 490 161 503 114 l 294 843 l 268 843 l 236 0 l 99 0 l 135 901 q 192 958 138 958 l 346 958 q 404 911 389 958 l 567 350 q 599 221 581 300 l 624 221 q 657 351 640 294 l 818 911 q 879 958 833 958 z "},"N":{"ha":983,"x_min":117,"x_max":867,"o":"m 867 958 l 867 54 q 815 0 867 0 l 683 0 q 624 43 642 0 l 325 696 q 268 829 275 804 l 249 829 q 256 696 256 774 l 256 0 l 117 0 l 117 904 q 169 958 117 958 l 297 958 q 358 915 338 958 l 649 279 q 668 238 654 267 q 694 184 682 210 q 715 136 706 158 l 736 136 q 729 285 729 219 l 729 958 l 867 958 z "},"O":{"ha":929,"x_min":82,"x_max":847,"o":"m 464 976 q 763 868 678 976 q 847 479 847 760 q 763 90 847 199 q 464 -18 678 -18 q 167 90 251 -18 q 82 479 82 199 q 167 868 82 760 q 464 976 251 976 m 650 772 q 624 813 650 772 q 464 853 599 853 q 278 772 329 853 q 228 479 228 692 q 278 186 228 267 q 464 106 329 106 q 650 186 599 106 q 701 479 701 267 q 650 772 701 692 z "},"P":{"ha":822,"x_min":117,"x_max":764,"o":"m 117 0 l 117 958 q 450 971 235 971 q 697 907 629 971 q 764 668 764 843 q 699 428 764 492 q 467 364 635 364 q 256 376 363 364 l 256 0 l 117 0 m 256 483 l 447 483 q 586 522 549 485 q 624 668 624 560 q 586 814 624 776 q 447 851 549 851 q 256 850 308 851 l 256 483 z "},"Q":{"ha":932,"x_min":82,"x_max":849,"o":"m 465 976 q 764 868 679 976 q 849 479 849 760 q 764 90 849 199 q 465 -18 679 -18 q 167 90 253 -18 q 82 479 82 199 q 167 868 82 760 q 465 976 253 976 m 651 772 q 626 813 651 772 q 465 853 600 853 q 280 772 331 853 q 229 479 229 692 q 280 186 229 267 q 465 106 331 106 q 651 186 600 106 q 703 479 703 267 q 651 772 703 692 m 369 -142 l 407 -57 q 786 -151 572 -121 l 742 -290 q 369 -142 564 -253 z "},"R":{"ha":861,"x_min":117,"x_max":803,"o":"m 803 0 l 654 0 l 572 299 q 451 394 542 394 l 254 396 l 254 0 l 117 0 l 117 958 q 451 971 235 971 q 697 911 625 971 q 768 693 768 851 q 727 519 768 578 q 592 449 686 461 l 592 442 q 713 303 685 414 l 803 0 m 254 514 l 449 514 q 590 551 551 515 q 628 685 628 586 q 590 817 628 782 q 449 851 551 851 q 254 850 307 851 l 254 514 z "},"S":{"ha":782,"x_min":74,"x_max":714,"o":"m 458 396 l 264 450 q 117 544 161 478 q 74 722 74 610 q 91 855 74 804 q 151 932 108 906 q 247 967 194 958 q 389 975 300 975 q 678 946 558 975 l 669 844 q 394 851 468 851 q 250 830 286 851 q 214 718 214 808 q 240 618 214 647 q 329 572 265 589 l 519 519 q 670 425 626 490 q 714 247 714 360 q 642 36 714 89 q 388 -17 569 -17 q 86 11 235 -17 l 96 114 q 390 107 313 107 q 535 135 499 108 q 572 249 572 161 q 547 351 572 322 q 458 396 522 379 z "},"T":{"ha":811,"x_min":33,"x_max":779,"o":"m 779 835 l 475 835 l 475 0 l 335 0 l 335 835 l 33 835 l 33 958 l 779 958 l 779 835 z "},"U":{"ha":925,"x_min":110,"x_max":815,"o":"m 815 958 l 815 369 q 737 70 815 158 q 468 -18 658 -18 q 191 70 272 -18 q 110 369 110 158 l 110 958 l 249 958 l 249 369 q 296 164 249 222 q 463 106 343 106 q 628 164 581 106 q 676 369 676 222 l 676 958 l 815 958 z "},"V":{"ha":850,"x_min":21,"x_max":829,"o":"m 829 958 l 546 39 q 493 0 533 0 l 357 0 q 304 39 317 0 l 21 958 l 164 958 l 381 213 q 407 107 388 186 l 444 107 q 471 213 453 147 l 686 958 l 829 958 z "},"W":{"ha":1321,"x_min":42,"x_max":1279,"o":"m 1279 958 l 1096 40 q 1042 0 1083 0 l 888 0 q 833 42 843 0 l 694 746 q 675 854 681 818 l 646 854 l 625 746 l 488 42 q 469 12 485 24 q 433 0 453 0 l 278 0 q 225 40 235 0 l 42 958 l 189 958 l 326 228 q 343 106 331 204 l 375 106 q 396 228 382 165 l 533 913 q 586 958 543 958 l 735 958 q 769 945 754 958 q 788 913 783 932 l 924 226 q 944 106 935 171 l 976 106 q 985 165 979 125 q 994 225 990 206 l 1132 958 l 1279 958 z "},"X":{"ha":854,"x_min":31,"x_max":822,"o":"m 443 444 l 410 444 l 182 0 l 31 0 l 294 496 l 49 958 l 199 958 l 408 550 l 444 550 l 654 958 l 804 958 l 558 496 l 822 0 l 671 0 l 443 444 z "},"Y":{"ha":797,"x_min":13,"x_max":783,"o":"m 468 332 l 468 0 l 329 0 l 329 333 l 13 958 l 160 958 l 353 565 q 394 454 364 542 l 404 454 q 446 564 433 540 l 639 958 l 783 958 l 468 332 z "},"Z":{"ha":789,"x_min":67,"x_max":724,"o":"m 724 118 l 724 0 l 67 0 l 67 118 l 563 840 l 74 840 l 74 958 l 714 958 l 714 840 l 219 118 l 724 118 z "},"[":{"ha":461,"x_min":124,"x_max":406,"o":"m 406 979 l 271 979 q 250 957 250 979 l 250 -119 q 271 -142 250 -142 l 406 -142 l 406 -229 l 204 -229 q 124 -149 124 -229 l 124 986 q 147 1044 124 1022 q 204 1067 169 1067 l 406 1067 l 406 979 z "},"\\":{"ha":726,"x_min":35,"x_max":692,"o":"m 692 -93 l 581 -93 l 35 958 l 146 958 l 692 -93 z "},"]":{"ha":461,"x_min":56,"x_max":338,"o":"m 56 1067 l 257 1067 q 315 1044 292 1067 q 338 986 338 1022 l 338 -149 q 315 -206 338 -183 q 257 -229 292 -229 l 56 -229 l 56 -142 l 189 -142 q 211 -119 211 -142 l 211 957 q 189 979 211 979 l 56 979 l 56 1067 z "},"^":{"ha":601,"x_min":42,"x_max":560,"o":"m 560 544 l 506 511 l 307 751 l 296 751 l 96 511 l 42 544 l 253 840 l 350 840 l 560 544 z "},"_":{"ha":800,"x_min":96,"x_max":704,"o":"m 704 -101 l 96 -101 l 96 0 l 704 0 l 704 -101 z "},"`":{"ha":447,"x_min":35,"x_max":356,"o":"m 356 806 l 311 743 l 35 906 l 110 1008 l 356 806 z "},"a":{"ha":765,"x_min":68,"x_max":667,"o":"m 110 565 l 97 664 q 426 696 281 696 q 608 646 550 696 q 667 472 667 596 l 667 0 l 561 0 l 546 107 q 275 -12 429 -12 q 124 38 181 -12 q 68 179 68 88 l 68 250 q 118 375 68 331 q 260 419 168 419 l 532 419 l 532 472 q 503 558 531 535 q 397 582 475 582 q 110 565 321 582 m 204 232 l 204 196 q 228 124 204 146 q 303 101 251 101 q 532 196 424 101 l 532 318 l 285 318 q 222 295 240 317 q 204 232 204 274 z "},"b":{"ha":796,"x_min":101,"x_max":724,"o":"m 236 972 l 236 729 q 222 575 236 636 q 478 696 336 696 q 664 613 604 696 q 724 342 724 529 q 656 72 724 160 q 418 -17 589 -17 q 101 32 236 -17 l 101 972 l 236 972 m 236 485 l 236 117 q 415 96 319 96 q 546 151 508 97 q 585 342 583 206 q 553 528 583 478 q 431 579 522 579 q 341 557 383 579 q 236 485 299 535 z "},"c":{"ha":682,"x_min":72,"x_max":632,"o":"m 619 111 l 632 21 q 396 -17 529 -17 q 145 63 218 -17 q 72 339 72 143 q 145 615 72 535 q 396 696 218 696 q 621 661 532 696 l 603 575 q 419 582 499 582 q 258 531 303 582 q 213 339 213 479 q 258 147 213 199 q 419 96 303 96 q 619 111 533 96 z "},"d":{"ha":799,"x_min":74,"x_max":694,"o":"m 589 0 l 578 93 q 311 -17 447 -17 q 130 73 186 -17 q 74 342 74 163 q 136 616 74 536 q 332 696 199 696 q 565 635 460 696 q 560 768 560 694 l 560 972 l 694 972 l 694 0 l 589 0 m 560 185 l 560 546 q 365 579 433 579 q 246 531 279 579 q 213 343 213 483 q 245 151 213 203 q 357 100 278 100 q 448 118 408 100 q 560 185 488 136 z "},"e":{"ha":749,"x_min":72,"x_max":683,"o":"m 518 274 l 214 274 q 269 132 224 168 q 417 96 314 96 q 654 113 507 96 l 667 24 q 399 -17 575 -17 q 147 64 221 -17 q 72 340 72 144 q 145 617 72 538 q 386 696 218 696 q 613 639 542 696 q 683 468 683 582 q 518 274 683 274 m 213 378 l 482 378 q 549 468 549 378 q 513 556 547 531 q 393 582 479 582 q 254 540 293 582 q 213 378 215 497 z "},"f":{"ha":535,"x_min":38,"x_max":557,"o":"m 546 886 l 408 886 q 320 863 346 886 q 294 781 294 839 l 294 678 l 504 678 l 504 574 l 294 574 l 294 0 l 160 0 l 160 574 l 38 574 l 38 671 l 160 678 l 160 796 q 207 945 160 894 q 361 996 254 996 q 557 986 492 996 l 546 886 z "},"g":{"ha":779,"x_min":53,"x_max":750,"o":"m 743 606 l 647 596 q 671 478 671 549 q 605 312 671 363 q 376 261 539 261 q 242 272 301 261 q 230 208 219 243 q 285 167 240 174 l 535 128 q 672 68 631 114 q 713 -65 713 22 q 642 -232 713 -186 q 385 -278 571 -278 q 125 -233 197 -278 q 53 -69 53 -187 q 78 21 53 -12 q 161 88 103 54 q 117 195 113 128 q 171 297 122 263 q 82 476 82 343 q 147 646 82 596 q 378 696 213 696 q 539 678 479 696 l 750 678 l 743 606 m 376 363 q 508 388 471 363 q 546 478 546 414 q 509 568 546 543 q 376 593 472 593 q 242 568 279 593 q 204 478 204 543 q 242 389 204 415 q 376 363 281 363 m 465 29 l 247 58 q 183 -58 183 6 q 222 -144 183 -125 q 383 -164 260 -164 q 542 -144 503 -164 q 581 -58 581 -124 q 560 3 581 -11 q 465 29 539 18 z "},"h":{"ha":810,"x_min":104,"x_max":710,"o":"m 240 972 l 240 710 q 231 578 240 640 q 526 696 392 696 q 663 648 615 696 q 710 508 710 600 l 710 0 l 575 0 l 575 469 q 556 558 575 533 q 489 582 538 582 q 381 558 436 582 q 239 482 326 535 l 239 0 l 104 0 l 104 972 l 240 972 z "},"i":{"ha":353,"x_min":106,"x_max":247,"o":"m 144 967 l 208 967 q 247 928 247 967 l 247 850 q 208 810 247 810 l 144 810 q 106 850 106 810 l 106 928 q 144 967 106 967 m 243 0 l 110 0 l 110 678 l 243 678 l 243 0 z "},"j":{"ha":356,"x_min":33,"x_max":250,"o":"m 147 967 l 211 967 q 250 928 250 967 l 250 850 q 211 810 250 810 l 147 810 q 107 850 107 810 l 107 928 q 147 967 107 967 m 246 678 l 246 -7 q 209 -162 246 -90 q 108 -281 172 -235 l 33 -222 q 111 -7 111 -124 l 111 678 l 246 678 z "},"k":{"ha":718,"x_min":104,"x_max":697,"o":"m 317 333 l 232 333 q 239 228 239 274 l 239 0 l 104 0 l 104 972 l 240 972 l 240 546 q 232 431 240 486 l 315 431 l 519 678 l 675 678 l 471 432 q 421 382 453 407 l 421 379 q 471 321 447 358 l 697 0 l 542 0 l 317 333 z "},"l":{"ha":419,"x_min":106,"x_max":406,"o":"m 240 972 l 240 196 q 261 131 239 153 q 328 110 283 110 l 390 110 l 406 6 q 276 -12 365 -12 q 151 34 197 -12 q 106 165 106 81 l 106 972 l 240 972 z "},"m":{"ha":1215,"x_min":104,"x_max":1115,"o":"m 215 678 l 222 574 q 494 696 364 696 q 667 578 635 696 q 933 696 801 696 q 1069 648 1022 696 q 1115 508 1115 600 l 1115 0 l 983 0 l 983 469 q 960 556 982 529 q 885 582 938 582 q 797 561 839 582 q 675 482 756 540 l 675 0 l 546 0 l 546 469 q 522 556 546 531 q 447 582 499 582 q 360 561 403 582 q 238 483 318 540 l 238 0 l 104 0 l 104 678 l 215 678 z "},"n":{"ha":810,"x_min":104,"x_max":710,"o":"m 218 678 l 226 574 q 526 696 386 696 q 663 648 617 696 q 710 508 710 600 l 710 0 l 575 0 l 575 469 q 556 558 575 533 q 489 582 538 582 q 383 558 436 582 q 239 481 331 535 l 239 0 l 104 0 l 104 678 l 218 678 z "},"o":{"ha":792,"x_min":72,"x_max":719,"o":"m 146 614 q 183 655 146 614 q 396 696 219 696 q 646 614 572 696 q 719 338 719 532 q 646 63 719 143 q 396 -18 572 -18 q 146 63 219 -18 q 72 338 72 143 q 146 614 72 532 m 540 531 q 521 556 540 531 q 396 582 501 582 q 251 531 290 582 q 213 338 213 479 q 251 146 213 197 q 396 94 290 94 q 540 146 501 94 q 579 338 579 197 q 540 531 579 479 z "},"p":{"ha":811,"x_min":104,"x_max":738,"o":"m 215 678 l 225 574 q 356 663 278 629 q 507 696 433 696 q 738 335 738 696 q 675 63 738 143 q 479 -17 613 -17 q 235 51 343 -17 q 238 -86 240 -7 l 238 -276 l 104 -276 l 104 678 l 215 678 m 238 481 l 238 136 q 443 100 378 100 q 565 148 531 100 q 599 336 599 196 q 567 525 599 471 q 461 579 536 579 q 238 481 374 579 z "},"q":{"ha":794,"x_min":72,"x_max":693,"o":"m 693 -276 l 558 -276 l 558 -54 q 569 86 558 35 q 306 -18 443 -18 q 130 67 188 -18 q 72 338 72 153 q 140 608 72 519 q 382 696 208 696 q 693 646 560 696 l 693 -276 m 560 185 l 560 561 q 381 582 474 585 q 248 527 285 579 q 211 328 211 475 q 240 153 211 206 q 351 100 269 100 q 449 120 404 100 q 560 185 493 140 z "},"r":{"ha":561,"x_min":104,"x_max":539,"o":"m 539 696 l 524 569 l 482 569 q 239 492 403 569 l 239 0 l 104 0 l 104 678 l 208 678 l 222 575 q 507 696 374 696 l 539 696 z "},"s":{"ha":707,"x_min":67,"x_max":643,"o":"m 410 267 l 221 314 q 101 380 136 336 q 67 507 67 424 q 127 658 67 619 q 335 696 188 697 q 624 672 497 693 l 613 575 q 356 582 400 582 q 227 570 257 582 q 197 507 197 558 q 201 469 197 483 q 223 444 206 454 q 250 431 240 435 q 293 418 260 428 l 485 371 q 607 308 571 349 q 643 181 643 267 q 577 23 643 61 q 349 -15 511 -15 q 79 4 207 -15 l 89 104 q 321 97 167 97 q 474 113 435 97 q 513 181 513 129 q 507 217 513 203 q 483 242 501 232 q 455 255 465 251 q 410 267 444 258 z "},"t":{"ha":539,"x_min":35,"x_max":501,"o":"m 479 110 l 494 6 q 335 -12 431 -12 q 203 37 249 -12 q 158 178 158 86 l 158 574 l 35 574 l 35 671 l 158 676 l 158 876 l 292 876 l 292 678 l 501 678 l 501 574 l 292 574 l 292 196 q 312 129 292 149 q 381 110 332 110 l 479 110 z "},"u":{"ha":794,"x_min":100,"x_max":690,"o":"m 690 678 l 690 0 l 583 0 l 574 93 q 285 -18 425 -18 q 100 169 100 -18 l 100 678 l 235 678 l 235 208 q 256 122 233 146 q 332 97 278 97 q 557 188 411 97 l 557 678 l 690 678 z "},"v":{"ha":742,"x_min":22,"x_max":719,"o":"m 719 678 l 478 33 q 431 0 464 0 l 310 0 q 264 33 275 0 l 22 678 l 165 678 l 324 211 l 361 94 l 379 94 l 419 211 l 576 678 l 719 678 z "},"w":{"ha":1147,"x_min":32,"x_max":1115,"o":"m 1115 678 l 925 38 q 874 0 914 0 l 753 0 q 701 43 711 0 l 603 489 q 597 523 600 501 q 590 563 593 544 q 582 597 586 581 l 565 597 l 543 489 l 446 43 q 393 0 436 0 l 274 0 q 224 38 232 0 l 32 678 l 171 678 l 301 189 q 322 85 318 119 l 340 85 l 364 189 l 464 636 q 514 678 474 678 l 635 678 q 685 635 675 678 l 783 189 q 807 85 786 175 l 825 85 q 846 189 835 147 l 976 678 l 1115 678 z "},"x":{"ha":740,"x_min":28,"x_max":713,"o":"m 383 300 l 357 300 l 174 0 l 28 0 l 250 350 l 44 678 l 189 678 l 356 404 l 385 404 l 550 678 l 694 678 l 490 350 l 713 0 l 567 0 l 383 300 z "},"y":{"ha":740,"x_min":22,"x_max":717,"o":"m 717 678 l 454 -32 q 143 -285 360 -282 l 129 -196 q 254 -131 208 -172 q 328 -25 300 -89 l 338 0 l 310 0 q 263 35 271 0 l 22 678 l 167 678 l 335 185 q 358 101 351 142 l 378 101 q 406 185 392 139 l 572 678 l 717 678 z "},"z":{"ha":711,"x_min":67,"x_max":644,"o":"m 644 110 l 644 0 l 67 0 l 67 110 l 490 568 l 72 568 l 72 678 l 639 678 l 639 568 l 217 110 l 644 110 z "},"{":{"ha":449,"x_min":61,"x_max":396,"o":"m 390 1067 l 390 982 q 295 957 321 982 q 269 869 269 932 l 269 629 q 244 506 271 543 q 142 456 218 469 q 247 397 219 432 q 275 288 274 361 l 275 -33 q 301 -120 275 -96 q 396 -144 326 -144 l 396 -229 q 146 -43 146 -250 l 146 308 q 142 350 146 335 q 125 376 139 365 q 102 392 111 388 q 61 408 93 396 l 61 503 q 128 534 115 519 q 140 608 140 549 l 140 881 q 390 1067 140 1088 z "},"|":{"ha":346,"x_min":124,"x_max":221,"o":"m 221 -235 l 124 -235 l 124 1085 l 221 1085 l 221 -235 z "},"}":{"ha":450,"x_min":54,"x_max":389,"o":"m 60 982 l 60 1067 q 310 881 310 1088 l 310 608 q 322 534 310 549 q 389 503 335 519 l 389 408 q 319 371 332 386 q 304 308 304 353 l 304 -43 q 54 -229 304 -250 l 54 -144 q 149 -120 124 -144 q 175 -33 175 -96 l 175 288 q 203 397 176 361 q 308 456 231 432 q 206 506 232 469 q 181 629 179 543 l 181 869 q 155 957 181 932 q 60 982 129 982 z "},"~":{"ha":726,"x_min":104,"x_max":625,"o":"m 172 313 l 104 313 q 124 445 93 400 q 211 488 156 490 q 361 449 261 485 q 496 408 461 413 q 543 421 531 404 q 556 481 556 438 l 625 481 q 604 351 635 396 q 517 310 574 306 q 361 349 460 313 q 231 388 263 385 q 184 374 196 392 q 172 313 172 357 z "}," ":{"ha":308,"x_min":0,"x_max":0,"o":""},"¡":{"ha":363,"x_min":114,"x_max":249,"o":"m 165 689 l 199 689 q 236 678 225 689 q 247 639 247 667 l 247 564 q 236 526 247 536 q 199 515 225 515 l 165 515 q 126 526 138 515 q 115 564 115 538 l 115 639 q 127 678 115 667 q 165 689 139 689 m 249 139 l 249 -269 l 114 -269 l 114 139 l 128 393 l 235 393 l 249 139 z "},"¢":{"ha":706,"x_min":71,"x_max":631,"o":"m 618 256 l 631 165 q 411 129 533 132 l 399 0 l 331 0 l 343 131 q 133 222 194 140 q 71 485 71 303 q 144 760 71 681 q 396 840 218 840 l 407 840 l 418 958 l 488 958 l 476 838 q 619 807 560 828 l 603 717 q 465 726 544 724 l 424 242 q 618 256 521 242 m 354 246 l 394 726 q 246 670 288 722 q 204 485 204 618 q 238 310 204 364 q 354 246 272 257 z "},"£":{"ha":793,"x_min":76,"x_max":724,"o":"m 724 119 l 724 0 l 83 0 l 83 119 q 190 371 203 175 l 185 465 l 76 465 l 76 543 l 181 543 l 171 722 q 182 853 167 801 q 235 931 197 904 q 319 966 272 957 q 438 975 365 975 q 693 961 549 975 l 685 850 q 440 854 578 854 q 331 826 360 854 q 307 719 301 799 l 317 543 l 601 543 l 597 465 l 322 465 l 328 371 q 310 217 333 275 q 229 113 288 160 q 324 119 261 119 l 724 119 z "},"¤":{"ha":822,"x_min":88,"x_max":733,"o":"m 674 167 l 572 268 q 411 214 503 214 q 249 267 319 214 l 150 168 l 88 231 l 186 329 q 136 488 136 399 q 190 651 136 581 l 92 750 l 150 808 l 247 710 q 411 763 319 763 q 575 708 504 763 l 675 808 l 732 750 l 632 650 q 685 488 685 578 q 631 326 685 399 l 733 225 l 674 167 m 411 294 q 545 351 489 293 q 601 489 601 408 q 545 626 601 569 q 411 683 489 683 q 274 626 331 683 q 217 489 217 569 q 274 351 217 408 q 411 294 331 293 z "},"¥":{"ha":863,"x_min":46,"x_max":817,"o":"m 551 453 l 743 453 l 743 374 l 508 374 l 501 358 l 501 296 l 743 296 l 743 217 l 501 217 l 501 0 l 363 0 l 363 217 l 126 217 l 126 296 l 363 296 l 363 358 l 354 374 l 128 374 l 125 453 l 313 453 l 46 958 l 190 958 l 382 583 q 407 526 392 564 q 428 474 422 488 l 438 474 q 457 522 442 482 q 481 583 472 563 l 672 958 l 817 958 l 551 453 z "},"¦":{"ha":349,"x_min":125,"x_max":222,"o":"m 222 529 l 125 529 l 125 1085 l 222 1085 l 222 529 m 222 -235 l 125 -235 l 125 321 l 222 321 l 222 -235 z "},"§":{"ha":757,"x_min":83,"x_max":675,"o":"m 457 443 l 224 578 q 117 665 151 619 q 83 793 83 711 q 150 939 83 901 q 363 976 217 976 q 665 960 538 974 l 657 854 q 400 863 536 863 q 327 861 353 863 q 276 853 301 860 q 239 832 250 847 q 226 790 228 817 q 247 719 225 746 q 315 669 269 693 l 532 547 q 656 412 631 494 q 651 217 682 329 l 554 217 q 541 357 561 307 q 457 443 521 407 m 106 532 l 203 532 q 216 392 196 440 q 301 307 236 343 l 535 174 q 640 86 606 133 q 675 -44 675 39 q 656 -142 675 -104 q 597 -199 638 -181 q 512 -223 557 -217 q 396 -229 467 -229 q 92 -212 218 -226 l 103 -107 q 361 -117 232 -115 q 432 -115 407 -117 q 483 -106 457 -114 q 519 -83 508 -99 q 531 -40 531 -67 q 511 30 533 3 q 446 82 489 57 l 228 203 q 103 336 129 254 q 106 532 76 418 z "},"¨":{"ha":574,"x_min":107,"x_max":471,"o":"m 143 968 l 188 968 q 224 931 224 968 l 224 856 q 188 818 224 818 l 143 818 q 107 856 107 818 l 107 931 q 143 968 107 968 m 389 968 l 433 968 q 471 931 471 968 l 471 856 q 433 818 471 818 l 389 818 q 353 856 353 818 l 353 931 q 389 968 353 968 z "},"©":{"ha":1156,"x_min":78,"x_max":1078,"o":"m 222 835 q 294 906 222 835 q 578 976 367 976 q 933 835 789 976 q 1078 479 1078 694 q 933 123 1078 264 q 578 -18 789 -18 q 222 124 367 -18 q 78 479 78 265 q 222 835 78 693 m 880 783 q 818 844 880 783 q 578 906 756 906 q 276 783 400 906 q 151 479 151 661 q 276 175 151 297 q 578 53 400 53 q 880 175 756 53 q 1004 479 1004 297 q 880 783 1004 661 m 776 278 l 786 201 q 585 179 703 179 q 375 247 436 179 q 314 482 314 315 q 375 717 314 649 q 585 785 436 785 q 772 765 694 785 l 761 689 q 583 694 682 694 q 453 649 489 694 q 418 482 418 603 q 453 315 418 361 q 583 269 489 269 q 776 278 708 269 z "},"ª":{"ha":613,"x_min":85,"x_max":515,"o":"m 117 750 l 106 825 q 351 846 249 846 q 474 810 433 846 q 515 692 515 775 l 515 379 l 435 379 l 422 463 q 224 369 335 369 q 123 401 161 369 q 85 492 85 433 l 85 544 q 119 627 85 597 q 217 657 154 657 l 414 657 l 414 692 q 331 761 414 761 q 117 750 261 761 m 183 535 l 183 514 q 201 469 183 482 q 256 456 218 456 q 414 519 332 456 l 414 600 l 249 588 q 198 573 213 586 q 183 535 183 560 z "},"«":{"ha":682,"x_min":60,"x_max":613,"o":"m 353 593 l 183 349 l 354 100 l 283 53 l 60 333 l 60 364 l 282 639 l 353 593 m 611 593 l 442 349 l 613 100 l 542 53 l 318 333 l 318 364 l 540 639 l 611 593 z "},"¬":{"ha":819,"x_min":99,"x_max":713,"o":"m 713 464 l 713 183 l 611 183 l 611 363 l 99 363 l 99 464 l 713 464 z "},"­":{"ha":613,"x_min":96,"x_max":518,"o":"m 518 300 l 96 300 l 96 403 l 518 403 l 518 300 z "},"®":{"ha":761,"x_min":71,"x_max":689,"o":"m 381 975 q 599 885 508 975 q 689 667 689 794 q 599 447 689 538 q 381 357 508 357 q 161 447 251 357 q 71 667 71 538 q 161 885 71 794 q 381 975 251 975 m 195 479 q 234 440 195 479 q 381 401 272 401 q 566 479 489 401 q 643 667 643 557 q 566 853 643 776 q 381 931 489 931 q 195 853 272 931 q 118 667 118 776 q 195 479 118 557 m 456 658 l 456 656 q 510 603 496 650 l 550 492 l 485 492 l 449 600 q 393 636 433 636 l 303 636 l 303 492 l 242 492 l 242 844 q 393 849 290 849 q 503 826 471 849 q 536 747 536 804 q 456 658 536 668 m 303 681 l 392 681 q 457 694 439 682 q 474 740 475 707 q 457 788 475 776 q 392 800 439 800 l 303 800 l 303 681 z "},"¯":{"ha":556,"x_min":82,"x_max":474,"o":"m 474 842 l 82 842 l 82 940 l 474 940 l 474 842 z "},"°":{"ha":499,"x_min":68,"x_max":432,"o":"m 250 976 q 378 924 324 976 q 432 800 432 872 q 378 673 432 726 q 250 619 324 619 q 122 673 175 619 q 68 800 68 726 q 122 924 68 872 q 250 976 175 976 m 319 869 q 306 882 319 869 q 250 896 292 896 q 181 869 208 896 q 153 800 153 842 q 181 729 153 757 q 250 701 208 701 q 319 729 290 701 q 347 800 347 757 q 319 869 347 842 z "},"±":{"ha":814,"x_min":100,"x_max":714,"o":"m 714 551 l 714 451 l 457 451 l 457 269 l 356 269 l 356 451 l 100 451 l 100 551 l 356 551 l 356 733 l 458 733 l 458 551 l 714 551 m 100 190 l 714 190 l 714 90 l 100 90 l 100 190 z "},"²":{"ha":603,"x_min":82,"x_max":519,"o":"m 93 986 l 88 1065 q 285 1085 192 1085 q 448 1058 399 1085 q 497 950 497 1031 q 386 756 497 863 l 217 590 q 310 593 256 596 l 519 593 l 519 500 l 82 500 l 82 558 q 99 603 82 586 l 269 768 q 383 939 379 874 q 359 985 385 974 q 278 996 333 996 q 93 986 188 996 z "},"³":{"ha":576,"x_min":79,"x_max":500,"o":"m 96 994 l 90 1071 q 279 1086 193 1086 q 440 1057 394 1086 q 485 953 485 1028 q 379 807 485 822 l 379 804 q 472 760 444 796 q 500 660 499 725 q 454 529 503 569 q 289 489 406 489 q 79 504 201 489 l 85 582 q 263 576 175 576 q 365 597 336 576 q 393 674 393 618 q 369 737 393 714 q 278 760 344 760 l 160 760 l 160 839 l 278 839 q 335 846 313 839 q 367 867 357 853 q 379 894 376 882 q 382 926 382 907 q 357 984 382 969 q 263 999 332 999 q 96 994 163 999 z "},"´":{"ha":446,"x_min":75,"x_max":396,"o":"m 396 906 l 119 743 l 75 806 l 321 1008 l 396 906 z "},"¶":{"ha":824,"x_min":51,"x_max":692,"o":"m 369 -292 l 369 279 q 126 375 200 294 q 51 625 51 456 q 149 896 51 817 q 478 975 247 975 q 692 951 607 975 l 692 0 l 592 0 l 592 883 q 469 889 564 885 l 469 -292 l 369 -292 z "},"·":{"ha":336,"x_min":96,"x_max":239,"o":"m 146 444 l 190 444 q 228 433 217 444 q 239 396 239 422 l 239 321 q 228 283 239 294 q 190 272 217 272 l 146 272 q 107 283 118 272 q 96 321 96 294 l 96 396 q 107 433 96 422 q 146 444 118 444 z "},"¸":{"ha":328,"x_min":44,"x_max":285,"o":"m 107 -121 l 121 -58 q 249 -68 213 -50 q 285 -149 286 -86 q 215 -287 283 -239 q 44 -321 147 -335 l 67 -250 q 153 -226 119 -251 q 189 -160 188 -201 q 174 -130 190 -137 q 107 -121 157 -122 z "},"¹":{"ha":411,"x_min":43,"x_max":308,"o":"m 308 500 l 204 500 l 204 925 q 208 982 204 963 l 57 943 l 43 1017 l 204 1075 l 308 1075 l 308 500 z "},"º":{"ha":615,"x_min":78,"x_max":538,"o":"m 307 846 q 486 792 435 846 q 538 606 538 738 q 486 421 538 474 q 307 368 435 368 q 129 421 181 368 q 78 606 78 474 q 129 792 78 738 q 307 846 181 846 m 405 729 q 391 746 405 729 q 307 763 378 763 q 210 729 236 763 q 182 606 183 696 q 210 483 183 515 q 307 451 236 451 q 406 483 379 451 q 432 606 432 515 q 405 729 432 696 z "},"»":{"ha":682,"x_min":69,"x_max":622,"o":"m 364 364 l 364 333 l 142 53 l 69 100 l 240 349 l 71 593 l 143 639 l 364 364 m 622 364 l 622 333 l 399 53 l 328 100 l 499 349 l 329 593 l 400 639 l 622 364 z "},"¼":{"ha":1204,"x_min":49,"x_max":1149,"o":"m 208 383 l 208 808 q 214 865 208 839 l 61 826 l 49 900 l 208 958 l 313 958 l 313 383 l 208 383 m 900 958 l 288 0 l 193 0 l 806 958 l 900 958 m 1149 140 l 1082 132 l 1082 0 l 983 0 l 983 131 l 721 131 q 664 156 682 131 q 665 225 646 181 l 835 575 l 936 575 l 774 242 q 775 222 768 231 q 797 213 782 213 l 983 213 l 983 372 l 1001 464 l 1082 464 l 1082 213 l 1149 213 l 1149 140 z "},"½":{"ha":1236,"x_min":49,"x_max":1169,"o":"m 313 383 l 208 383 l 208 808 q 214 865 208 839 l 61 826 l 49 900 l 208 958 l 313 958 l 313 383 m 278 0 l 182 0 l 794 958 l 889 958 l 278 0 m 743 486 l 738 565 q 935 585 842 585 q 1097 558 1047 585 q 1147 450 1147 531 q 1036 256 1147 365 l 865 90 q 958 93 907 96 l 1169 93 l 1169 0 l 732 0 l 732 58 q 749 103 732 86 l 919 268 q 1033 439 1029 374 q 1009 485 1035 474 q 928 496 983 496 q 743 486 838 496 z "},"¾":{"ha":1332,"x_min":75,"x_max":1276,"o":"m 375 688 l 375 685 q 467 641 440 676 q 496 540 494 606 q 449 410 497 450 q 283 369 400 369 q 75 385 197 369 l 81 463 q 258 457 171 457 q 360 478 332 457 q 389 553 389 499 q 365 617 389 594 q 274 640 340 640 l 156 643 l 156 715 l 274 719 q 342 734 318 719 q 372 765 367 749 q 378 806 378 781 q 353 864 378 849 q 258 879 328 879 q 92 875 158 879 l 86 951 q 274 965 179 965 q 435 937 390 965 q 479 833 479 908 q 456 733 479 769 q 375 688 433 696 m 1040 958 l 428 0 l 333 0 l 944 958 l 1040 958 m 1276 140 l 1207 132 l 1207 0 l 1108 0 l 1108 131 l 849 131 q 792 156 810 131 q 792 225 774 181 l 963 575 l 1064 575 l 901 242 q 902 222 896 231 q 924 213 908 213 l 1108 213 l 1108 372 l 1126 464 l 1207 464 l 1207 213 l 1276 213 l 1276 140 z "},"¿":{"ha":694,"x_min":53,"x_max":646,"o":"m 346 696 l 379 696 q 417 685 406 696 q 428 647 428 675 l 428 572 q 417 533 428 544 q 379 522 407 522 l 346 522 q 307 533 318 522 q 296 572 296 544 l 296 647 q 307 685 296 675 q 346 696 318 696 m 304 401 l 417 401 q 397 271 418 331 q 342 172 375 211 q 277 97 310 132 q 220 24 244 63 q 194 -54 196 -15 q 233 -149 192 -118 q 364 -179 274 -179 q 639 -167 471 -179 l 646 -262 q 608 -269 636 -264 q 569 -276 579 -275 q 535 -282 560 -278 q 496 -287 511 -286 q 454 -290 481 -287 q 399 -292 428 -292 q 336 -293 371 -293 q 53 -78 53 -293 q 78 28 53 -21 q 138 113 103 76 q 210 188 174 150 q 274 281 247 226 q 304 401 301 336 z "},"À":{"ha":869,"x_min":13,"x_max":857,"o":"m 463 1008 l 186 1171 l 261 1274 l 507 1071 l 463 1008 m 625 289 l 243 289 l 154 0 l 13 0 l 313 921 q 364 958 324 958 l 506 958 q 556 921 547 958 l 857 0 l 714 0 l 625 289 m 589 410 l 476 774 q 465 813 472 786 q 453 851 457 839 l 415 851 l 393 774 l 281 410 l 589 410 z "},"Á":{"ha":869,"x_min":13,"x_max":857,"o":"m 385 1008 l 339 1071 l 585 1274 l 661 1171 l 385 1008 m 625 289 l 243 289 l 154 0 l 13 0 l 313 921 q 364 958 324 958 l 506 958 q 556 921 547 958 l 857 0 l 714 0 l 625 289 m 589 410 l 476 774 q 465 813 472 786 q 453 851 457 839 l 415 851 l 393 774 l 281 410 l 589 410 z "},"Â":{"ha":869,"x_min":13,"x_max":857,"o":"m 249 1013 l 204 1069 l 386 1249 l 483 1249 l 667 1069 l 619 1013 l 440 1146 l 429 1146 l 249 1013 m 625 289 l 243 289 l 154 0 l 13 0 l 313 921 q 364 958 324 958 l 506 958 q 556 921 547 958 l 857 0 l 714 0 l 625 289 m 589 410 l 476 774 q 465 813 472 786 q 453 851 457 839 l 415 851 l 393 774 l 281 410 l 589 410 z "},"Ã":{"ha":869,"x_min":13,"x_max":857,"o":"m 274 1060 l 213 1060 q 235 1187 203 1143 q 321 1226 267 1231 q 431 1189 367 1222 q 531 1151 494 1156 q 582 1163 568 1147 q 596 1219 596 1179 l 657 1219 q 636 1095 667 1139 q 549 1056 606 1051 q 431 1094 497 1060 q 336 1132 365 1128 q 287 1119 300 1136 q 274 1060 274 1103 m 625 289 l 243 289 l 154 0 l 13 0 l 313 921 q 364 958 324 958 l 506 958 q 556 921 547 958 l 857 0 l 714 0 l 625 289 m 589 410 l 476 774 q 465 813 472 786 q 453 851 457 839 l 415 851 l 393 774 l 281 410 l 589 410 z "},"Ä":{"ha":869,"x_min":13,"x_max":857,"o":"m 335 1063 l 289 1063 q 253 1100 253 1063 l 253 1175 q 289 1211 253 1211 l 335 1211 q 369 1175 369 1211 l 369 1100 q 335 1063 369 1063 m 581 1063 l 536 1063 q 499 1100 499 1063 l 499 1175 q 536 1211 499 1211 l 581 1211 q 617 1175 617 1211 l 617 1100 q 581 1063 617 1063 m 625 289 l 243 289 l 154 0 l 13 0 l 313 921 q 364 958 324 958 l 506 958 q 556 921 547 958 l 857 0 l 714 0 l 625 289 m 589 410 l 476 774 q 465 813 472 786 q 453 851 457 839 l 415 851 l 393 774 l 281 410 l 589 410 z "},"Å":{"ha":869,"x_min":13,"x_max":857,"o":"m 435 992 q 328 1034 372 992 q 283 1139 283 1076 q 328 1244 283 1201 q 435 1288 372 1288 q 542 1244 497 1288 q 588 1139 588 1201 q 543 1034 588 1076 q 435 992 499 992 m 435 1221 q 379 1199 401 1221 q 357 1139 357 1176 q 379 1081 357 1103 q 435 1058 401 1058 q 492 1081 469 1058 q 514 1139 514 1103 q 492 1198 514 1175 q 435 1221 469 1221 m 625 289 l 243 289 l 154 0 l 13 0 l 313 921 q 364 958 324 958 l 506 958 q 556 921 547 958 l 857 0 l 714 0 l 625 289 m 589 410 l 476 774 q 465 813 472 786 q 453 851 457 839 l 415 851 l 393 774 l 281 410 l 589 410 z "},"Æ":{"ha":1271,"x_min":-6,"x_max":1201,"o":"m 1196 117 l 1201 8 q 789 -3 1069 -3 q 670 46 715 -3 q 625 169 625 94 l 625 300 l 310 300 l 140 0 l -6 0 l 457 801 q 576 926 507 893 q 785 960 646 960 q 1201 950 1054 960 l 1196 840 l 844 840 q 780 815 804 840 q 756 747 756 790 l 756 561 l 1142 561 l 1142 447 l 756 447 l 756 206 q 776 138 756 158 q 844 117 797 117 l 1196 117 m 625 415 l 625 767 q 638 823 625 794 q 667 865 650 851 l 654 865 q 579 781 615 843 l 374 415 l 625 415 z "},"Ç":{"ha":794,"x_min":82,"x_max":746,"o":"m 732 122 l 746 17 q 461 -17 631 -17 q 167 94 251 -17 q 82 479 82 206 q 167 864 82 753 q 461 975 251 975 q 726 947 611 975 l 713 840 q 461 851 601 851 q 278 771 329 851 q 228 479 228 690 q 278 188 228 268 q 461 107 329 107 q 732 122 638 107 m 372 -137 l 386 -75 q 514 -85 476 -67 q 550 -165 551 -103 q 479 -303 547 -256 q 310 -337 411 -351 l 331 -267 q 417 -243 383 -268 q 454 -176 451 -218 q 439 -147 456 -154 q 372 -137 422 -139 z "},"È":{"ha":781,"x_min":108,"x_max":713,"o":"m 457 1036 l 181 1199 l 257 1301 l 503 1097 l 457 1036 m 706 115 l 713 8 q 301 -3 586 -3 q 161 44 213 -3 q 108 169 110 90 l 108 789 q 161 915 110 868 q 301 961 213 961 q 713 950 586 961 l 706 842 l 325 842 q 266 822 283 842 q 249 753 249 801 l 249 561 l 653 561 l 653 449 l 249 449 l 249 204 q 266 135 249 156 q 325 115 283 115 l 706 115 z "},"É":{"ha":781,"x_min":108,"x_max":713,"o":"m 379 1036 l 335 1097 l 581 1301 l 657 1199 l 379 1036 m 706 115 l 713 8 q 301 -3 586 -3 q 161 44 213 -3 q 108 169 110 90 l 108 789 q 161 915 110 868 q 301 961 213 961 q 713 950 586 961 l 706 842 l 325 842 q 266 822 283 842 q 249 753 249 801 l 249 561 l 653 561 l 653 449 l 249 449 l 249 204 q 266 135 249 156 q 325 115 283 115 l 706 115 z "},"Ê":{"ha":781,"x_min":108,"x_max":713,"o":"m 244 1039 l 200 1097 l 382 1276 l 479 1276 l 661 1097 l 615 1039 l 436 1174 l 425 1174 l 244 1039 m 706 115 l 713 8 q 301 -3 586 -3 q 161 44 213 -3 q 108 169 110 90 l 108 789 q 161 915 110 868 q 301 961 213 961 q 713 950 586 961 l 706 842 l 325 842 q 266 822 283 842 q 249 753 249 801 l 249 561 l 653 561 l 653 449 l 249 449 l 249 204 q 266 135 249 156 q 325 115 283 115 l 706 115 z "},"Ë":{"ha":781,"x_min":108,"x_max":713,"o":"m 329 1090 l 285 1090 q 249 1126 249 1090 l 249 1203 q 285 1239 249 1239 l 329 1239 q 365 1203 365 1239 l 365 1126 q 329 1090 365 1090 m 575 1090 l 532 1090 q 494 1126 494 1090 l 494 1203 q 532 1239 494 1239 l 575 1239 q 613 1203 613 1239 l 613 1126 q 575 1090 613 1090 m 706 115 l 713 8 q 301 -3 586 -3 q 161 44 213 -3 q 108 169 110 90 l 108 789 q 161 915 110 868 q 301 961 213 961 q 713 950 586 961 l 706 842 l 325 842 q 266 822 283 842 q 249 753 249 801 l 249 561 l 653 561 l 653 449 l 249 449 l 249 204 q 266 135 249 156 q 325 115 283 115 l 706 115 z "},"Ì":{"ha":372,"x_min":-64,"x_max":258,"o":"m 258 1071 l 214 1008 l -64 1171 l 13 1274 l 258 1071 m 256 0 l 117 0 l 117 958 l 256 958 l 256 0 z "},"Í":{"ha":372,"x_min":90,"x_max":413,"o":"m 413 1171 l 136 1008 l 90 1071 l 336 1274 l 413 1171 m 256 0 l 117 0 l 117 958 l 256 958 l 256 0 z "},"Î":{"ha":372,"x_min":-44,"x_max":418,"o":"m 418 1069 l 371 1013 l 192 1146 l 181 1146 l 0 1013 l -44 1069 l 138 1249 l 235 1249 l 418 1069 m 256 0 l 117 0 l 117 958 l 256 958 l 256 0 z "},"Ï":{"ha":372,"x_min":4,"x_max":368,"o":"m 40 1211 l 86 1211 q 121 1175 121 1211 l 121 1100 q 86 1063 121 1063 l 40 1063 q 4 1100 4 1063 l 4 1175 q 40 1211 4 1211 m 288 1211 l 332 1211 q 368 1175 368 1211 l 368 1100 q 332 1063 368 1063 l 288 1063 q 250 1100 250 1063 l 250 1175 q 288 1211 250 1211 m 256 0 l 117 0 l 117 958 l 256 958 l 256 0 z "},"Ð":{"ha":931,"x_min":31,"x_max":847,"o":"m 124 546 l 124 958 q 469 971 306 971 q 763 863 679 971 q 847 479 847 756 q 763 95 847 203 q 469 -12 679 -12 q 124 0 306 -12 l 124 469 l 31 469 l 31 546 l 124 546 m 261 469 l 261 113 q 469 108 353 108 q 651 189 600 108 q 701 479 701 269 q 651 769 701 689 q 469 850 600 850 q 358 849 426 850 q 261 849 290 849 l 261 546 l 464 546 l 464 469 l 261 469 z "},"Ñ":{"ha":983,"x_min":117,"x_max":867,"o":"m 340 1060 l 279 1060 q 301 1187 269 1143 q 388 1226 333 1231 q 497 1189 433 1222 q 599 1151 561 1156 q 649 1163 635 1147 q 663 1219 663 1179 l 724 1219 q 703 1095 733 1139 q 615 1056 672 1051 q 498 1094 564 1060 q 404 1132 432 1128 q 353 1119 367 1136 q 340 1060 340 1103 m 867 958 l 867 54 q 815 0 867 0 l 683 0 q 624 43 642 0 l 325 696 q 268 829 275 804 l 249 829 q 256 696 256 774 l 256 0 l 117 0 l 117 904 q 169 958 117 958 l 297 958 q 358 915 338 958 l 649 279 q 668 238 654 267 q 694 184 682 210 q 715 136 706 158 l 736 136 q 729 285 729 219 l 729 958 l 867 958 z "},"Ò":{"ha":929,"x_min":82,"x_max":847,"o":"m 535 1071 l 490 1008 l 214 1171 l 290 1274 l 535 1071 m 464 976 q 763 868 678 976 q 847 479 847 760 q 763 90 847 199 q 464 -18 678 -18 q 167 90 251 -18 q 82 479 82 199 q 167 868 82 760 q 464 976 251 976 m 650 772 q 624 813 650 772 q 464 853 599 853 q 278 772 329 853 q 228 479 228 692 q 278 186 228 267 q 464 106 329 106 q 650 186 599 106 q 701 479 701 267 q 650 772 701 692 z "},"Ó":{"ha":929,"x_min":82,"x_max":847,"o":"m 689 1171 l 413 1008 l 368 1071 l 614 1274 l 689 1171 m 464 976 q 763 868 678 976 q 847 479 847 760 q 763 90 847 199 q 464 -18 678 -18 q 167 90 251 -18 q 82 479 82 199 q 167 868 82 760 q 464 976 251 976 m 650 772 q 624 813 650 772 q 464 853 599 853 q 278 772 329 853 q 228 479 228 692 q 278 186 228 267 q 464 106 329 106 q 650 186 599 106 q 701 479 701 267 q 650 772 701 692 z "},"Ô":{"ha":929,"x_min":82,"x_max":847,"o":"m 694 1069 l 649 1013 l 468 1146 l 457 1146 l 278 1013 l 233 1069 l 414 1249 l 513 1249 l 694 1069 m 464 976 q 763 868 678 976 q 847 479 847 760 q 763 90 847 199 q 464 -18 678 -18 q 167 90 251 -18 q 82 479 82 199 q 167 868 82 760 q 464 976 251 976 m 650 772 q 624 813 650 772 q 464 853 599 853 q 278 772 329 853 q 228 479 228 692 q 278 186 228 267 q 464 106 329 106 q 650 186 599 106 q 701 479 701 267 q 650 772 701 692 z "},"Õ":{"ha":929,"x_min":82,"x_max":847,"o":"m 301 1060 l 240 1060 q 263 1187 231 1143 q 350 1226 294 1231 q 458 1189 394 1222 q 560 1151 522 1156 q 611 1163 597 1147 q 625 1219 625 1179 l 686 1219 q 665 1095 696 1139 q 576 1056 633 1051 q 459 1094 525 1060 q 365 1132 393 1128 q 315 1119 328 1136 q 301 1060 301 1103 m 464 976 q 763 868 678 976 q 847 479 847 760 q 763 90 847 199 q 464 -18 678 -18 q 167 90 251 -18 q 82 479 82 199 q 167 868 82 760 q 464 976 251 976 m 650 772 q 624 813 650 772 q 464 853 599 853 q 278 772 329 853 q 228 479 228 692 q 278 186 228 267 q 464 106 329 106 q 650 186 599 106 q 701 479 701 267 q 650 772 701 692 z "},"Ö":{"ha":929,"x_min":82,"x_max":847,"o":"m 317 1211 l 363 1211 q 399 1175 399 1211 l 399 1100 q 363 1063 399 1063 l 317 1063 q 282 1100 282 1063 l 282 1175 q 317 1211 282 1211 m 564 1211 l 608 1211 q 646 1175 646 1211 l 646 1100 q 608 1063 646 1063 l 564 1063 q 528 1100 528 1063 l 528 1175 q 564 1211 528 1211 m 464 976 q 763 868 678 976 q 847 479 847 760 q 763 90 847 199 q 464 -18 678 -18 q 167 90 251 -18 q 82 479 82 199 q 167 868 82 760 q 464 976 251 976 m 650 772 q 624 813 650 772 q 464 853 599 853 q 278 772 329 853 q 228 479 228 692 q 278 186 228 267 q 464 106 329 106 q 650 186 599 106 q 701 479 701 267 q 650 772 701 692 z "},"×":{"ha":672,"x_min":58,"x_max":619,"o":"m 58 586 l 554 140 l 619 219 l 125 665 l 58 586 z "},"Ø":{"ha":929,"x_min":82,"x_max":847,"o":"m 754 1015 l 710 919 q 815 763 783 868 q 847 479 847 658 q 763 90 847 199 q 464 -18 678 -18 q 283 8 354 -18 l 240 -82 l 171 -53 l 215 43 q 113 199 144 94 q 82 479 82 303 q 167 868 82 760 q 464 976 251 976 q 642 953 572 976 l 683 1043 l 754 1015 m 281 183 l 585 831 q 464 853 539 853 q 278 772 329 853 q 228 479 228 692 q 281 183 228 265 m 644 781 l 340 131 q 464 106 389 106 q 650 186 599 106 q 701 479 701 267 q 644 781 701 703 z "},"Ù":{"ha":925,"x_min":110,"x_max":815,"o":"m 536 1071 l 492 1008 l 214 1171 l 290 1274 l 536 1071 m 815 958 l 815 369 q 737 70 815 158 q 468 -18 658 -18 q 191 70 272 -18 q 110 369 110 158 l 110 958 l 249 958 l 249 369 q 296 164 249 222 q 463 106 343 106 q 628 164 581 106 q 676 369 676 222 l 676 958 l 815 958 z "},"Ú":{"ha":925,"x_min":110,"x_max":815,"o":"m 690 1171 l 414 1008 l 368 1071 l 614 1274 l 690 1171 m 815 958 l 815 369 q 737 70 815 158 q 468 -18 658 -18 q 191 70 272 -18 q 110 369 110 158 l 110 958 l 249 958 l 249 369 q 296 164 249 222 q 463 106 343 106 q 628 164 581 106 q 676 369 676 222 l 676 958 l 815 958 z "},"Û":{"ha":925,"x_min":110,"x_max":815,"o":"m 696 1069 l 649 1013 l 469 1146 l 458 1146 l 278 1013 l 233 1069 l 415 1249 l 513 1249 l 696 1069 m 815 958 l 815 369 q 737 70 815 158 q 468 -18 658 -18 q 191 70 272 -18 q 110 369 110 158 l 110 958 l 249 958 l 249 369 q 296 164 249 222 q 463 106 343 106 q 628 164 581 106 q 676 369 676 222 l 676 958 l 815 958 z "},"Ü":{"ha":925,"x_min":110,"x_max":815,"o":"m 318 1211 l 363 1211 q 399 1175 399 1211 l 399 1100 q 363 1063 399 1063 l 318 1063 q 282 1100 282 1063 l 282 1175 q 318 1211 282 1211 m 565 1211 l 608 1211 q 646 1175 646 1211 l 646 1100 q 608 1063 646 1063 l 565 1063 q 528 1100 528 1063 l 528 1175 q 565 1211 528 1211 m 815 958 l 815 369 q 737 70 815 158 q 468 -18 658 -18 q 191 70 272 -18 q 110 369 110 158 l 110 958 l 249 958 l 249 369 q 296 164 249 222 q 463 106 343 106 q 628 164 581 106 q 676 369 676 222 l 676 958 l 815 958 z "},"Ý":{"ha":797,"x_min":13,"x_max":783,"o":"m 347 1008 l 303 1071 l 549 1274 l 624 1171 l 347 1008 m 468 332 l 468 0 l 329 0 l 329 333 l 13 958 l 160 958 l 353 565 q 394 454 364 542 l 404 454 q 446 564 433 540 l 639 958 l 783 958 l 468 332 z "},"Þ":{"ha":825,"x_min":117,"x_max":764,"o":"m 256 958 l 256 789 q 451 792 308 792 q 697 727 629 792 q 764 483 764 663 q 699 242 764 306 q 467 178 635 178 q 256 189 375 178 l 256 0 l 117 0 l 117 779 l 117 958 l 256 958 m 256 297 l 447 297 q 587 336 550 299 q 624 483 624 374 q 586 634 624 596 q 447 672 549 672 q 256 671 308 672 l 256 297 z "},"ß":{"ha":944,"x_min":36,"x_max":896,"o":"m 640 424 l 778 358 q 869 288 843 326 q 896 176 896 249 q 838 24 896 64 q 646 -15 779 -15 q 425 0 546 -15 l 433 101 q 618 94 518 94 q 735 111 704 96 q 765 183 765 126 q 761 217 765 204 q 742 243 757 231 q 716 261 726 256 q 675 282 706 267 l 535 349 q 422 507 422 403 q 426 546 422 528 q 440 580 429 564 q 459 606 451 596 q 486 631 467 617 q 515 651 506 646 q 550 672 524 657 q 585 693 576 688 q 651 749 633 725 q 669 811 669 772 q 631 874 669 854 q 483 894 593 894 q 332 864 371 894 q 293 742 293 833 l 293 0 l 158 0 l 158 572 l 36 572 l 36 678 l 158 678 l 158 757 q 234 956 158 907 q 478 1004 310 1004 q 724 963 653 1004 q 796 814 796 922 q 772 717 796 758 q 679 632 749 676 q 627 600 661 619 q 582 572 593 581 q 560 548 571 564 q 550 511 550 532 q 569 465 550 481 q 640 424 589 449 z "},"à":{"ha":765,"x_min":68,"x_max":667,"o":"m 401 760 l 125 922 l 200 1025 l 446 821 l 401 760 m 110 565 l 97 664 q 426 696 281 696 q 608 646 550 696 q 667 472 667 596 l 667 0 l 561 0 l 546 107 q 275 -12 429 -12 q 124 38 181 -12 q 68 179 68 88 l 68 250 q 118 375 68 331 q 260 419 168 419 l 532 419 l 532 472 q 503 558 531 535 q 397 582 475 582 q 110 565 321 582 m 204 232 l 204 196 q 228 124 204 146 q 303 101 251 101 q 532 196 424 101 l 532 318 l 285 318 q 222 295 240 317 q 204 232 204 274 z "},"á":{"ha":765,"x_min":68,"x_max":667,"o":"m 324 760 l 279 821 l 525 1025 l 600 922 l 324 760 m 110 565 l 97 664 q 426 696 281 696 q 608 646 550 696 q 667 472 667 596 l 667 0 l 561 0 l 546 107 q 275 -12 429 -12 q 124 38 181 -12 q 68 179 68 88 l 68 250 q 118 375 68 331 q 260 419 168 419 l 532 419 l 532 472 q 503 558 531 535 q 397 582 475 582 q 110 565 321 582 m 204 232 l 204 196 q 228 124 204 146 q 303 101 251 101 q 532 196 424 101 l 532 318 l 285 318 q 222 295 240 317 q 204 232 204 274 z "},"â":{"ha":765,"x_min":68,"x_max":667,"o":"m 188 763 l 143 821 l 325 1000 l 422 1000 l 606 821 l 558 763 l 379 897 l 368 897 l 188 763 m 110 565 l 97 664 q 426 696 281 696 q 608 646 550 696 q 667 472 667 596 l 667 0 l 561 0 l 546 107 q 275 -12 429 -12 q 124 38 181 -12 q 68 179 68 88 l 68 250 q 118 375 68 331 q 260 419 168 419 l 532 419 l 532 472 q 503 558 531 535 q 397 582 475 582 q 110 565 321 582 m 204 232 l 204 196 q 228 124 204 146 q 303 101 251 101 q 532 196 424 101 l 532 318 l 285 318 q 222 295 240 317 q 204 232 204 274 z "},"ã":{"ha":765,"x_min":68,"x_max":667,"o":"m 213 811 l 151 811 q 174 937 142 893 q 260 976 206 981 q 369 940 306 972 q 471 903 433 907 q 521 914 507 897 q 535 969 535 931 l 596 969 q 575 846 606 889 q 488 807 544 803 q 370 845 436 811 q 276 883 304 879 q 226 870 239 888 q 213 811 213 853 m 110 565 l 97 664 q 426 696 281 696 q 608 646 550 696 q 667 472 667 596 l 667 0 l 561 0 l 546 107 q 275 -12 429 -12 q 124 38 181 -12 q 68 179 68 88 l 68 250 q 118 375 68 331 q 260 419 168 419 l 532 419 l 532 472 q 503 558 531 535 q 397 582 475 582 q 110 565 321 582 m 204 232 l 204 196 q 228 124 204 146 q 303 101 251 101 q 532 196 424 101 l 532 318 l 285 318 q 222 295 240 317 q 204 232 204 274 z "},"ä":{"ha":765,"x_min":68,"x_max":667,"o":"m 274 813 l 228 813 q 193 850 193 813 l 193 925 q 228 963 193 963 l 274 963 q 310 925 310 963 l 310 850 q 274 813 310 813 m 519 813 l 475 813 q 439 850 439 813 l 439 925 q 475 963 439 963 l 519 963 q 557 925 557 963 l 557 850 q 519 813 557 813 m 110 565 l 97 664 q 426 696 281 696 q 608 646 550 696 q 667 472 667 596 l 667 0 l 561 0 l 546 107 q 275 -12 429 -12 q 124 38 181 -12 q 68 179 68 88 l 68 250 q 118 375 68 331 q 260 419 168 419 l 532 419 l 532 472 q 503 558 531 535 q 397 582 475 582 q 110 565 321 582 m 204 232 l 204 196 q 228 124 204 146 q 303 101 251 101 q 532 196 424 101 l 532 318 l 285 318 q 222 295 240 317 q 204 232 204 274 z "},"å":{"ha":765,"x_min":68,"x_max":667,"o":"m 375 742 q 267 784 311 742 q 224 890 224 826 q 268 996 224 953 q 375 1039 313 1039 q 482 996 438 1039 q 526 890 526 953 q 482 785 526 828 q 375 742 438 742 m 375 971 q 318 949 340 971 q 296 890 296 928 q 318 832 296 854 q 375 810 340 810 q 431 832 408 810 q 453 890 453 854 q 431 949 453 926 q 375 971 408 971 m 110 565 l 97 664 q 426 696 281 696 q 608 646 550 696 q 667 472 667 596 l 667 0 l 561 0 l 546 107 q 275 -12 429 -12 q 124 38 181 -12 q 68 179 68 88 l 68 250 q 118 375 68 331 q 260 419 168 419 l 532 419 l 532 472 q 503 558 531 535 q 397 582 475 582 q 110 565 321 582 m 204 232 l 204 196 q 228 124 204 146 q 303 101 251 101 q 532 196 424 101 l 532 318 l 285 318 q 222 295 240 317 q 204 232 204 274 z "},"æ":{"ha":1208,"x_min":68,"x_max":1142,"o":"m 971 274 l 674 274 q 727 132 682 168 q 875 96 772 96 q 1113 113 968 96 l 1125 24 q 858 -17 1035 -17 q 670 17 740 -17 q 565 126 600 51 q 444 31 521 74 q 275 -12 368 -12 q 124 38 181 -12 q 68 179 68 88 l 68 250 q 118 375 68 331 q 260 419 168 419 l 532 419 l 532 472 q 503 558 532 535 q 397 582 475 582 q 110 565 321 582 l 97 664 q 426 696 281 696 q 621 633 565 696 q 846 696 693 696 q 1071 639 1000 696 q 1142 468 1142 582 q 971 274 1144 274 m 671 378 l 933 378 q 1007 468 1007 378 q 972 556 1007 529 q 851 582 938 582 q 713 540 751 582 q 671 378 674 497 m 204 232 l 204 196 q 228 124 204 146 q 303 101 251 101 q 421 127 356 101 q 542 204 486 153 q 531 318 532 260 l 285 318 q 222 295 240 317 q 204 232 204 274 z "},"ç":{"ha":682,"x_min":72,"x_max":632,"o":"m 619 111 l 632 21 q 396 -17 529 -17 q 145 63 218 -17 q 72 339 72 143 q 145 615 72 535 q 396 696 218 696 q 621 661 532 696 l 603 575 q 419 582 499 582 q 258 531 303 582 q 213 339 213 479 q 258 147 213 199 q 419 96 303 96 q 619 111 533 96 m 307 -137 l 321 -75 q 449 -85 411 -67 q 485 -165 486 -103 q 414 -303 482 -256 q 244 -337 346 -351 l 265 -267 q 352 -243 318 -268 q 389 -176 386 -218 q 374 -147 390 -154 q 307 -137 357 -139 z "},"è":{"ha":749,"x_min":72,"x_max":683,"o":"m 417 760 l 140 922 l 215 1025 l 461 821 l 417 760 m 518 274 l 214 274 q 269 132 224 168 q 417 96 314 96 q 654 113 507 96 l 667 24 q 399 -17 575 -17 q 147 64 221 -17 q 72 340 72 144 q 145 617 72 538 q 386 696 218 696 q 613 639 542 696 q 683 468 683 582 q 518 274 683 274 m 213 378 l 482 378 q 549 468 549 378 q 513 556 547 531 q 393 582 479 582 q 254 540 293 582 q 213 378 215 497 z "},"é":{"ha":749,"x_min":72,"x_max":683,"o":"m 339 760 l 294 821 l 539 1025 l 615 922 l 339 760 m 518 274 l 214 274 q 269 132 224 168 q 417 96 314 96 q 654 113 507 96 l 667 24 q 399 -17 575 -17 q 147 64 221 -17 q 72 340 72 144 q 145 617 72 538 q 386 696 218 696 q 613 639 542 696 q 683 468 683 582 q 518 274 683 274 m 213 378 l 482 378 q 549 468 549 378 q 513 556 547 531 q 393 582 479 582 q 254 540 293 582 q 213 378 215 497 z "},"ê":{"ha":749,"x_min":72,"x_max":683,"o":"m 203 763 l 158 821 l 340 1000 l 438 1000 l 621 821 l 574 763 l 394 897 l 383 897 l 203 763 m 518 274 l 214 274 q 269 132 224 168 q 417 96 314 96 q 654 113 507 96 l 667 24 q 399 -17 575 -17 q 147 64 221 -17 q 72 340 72 144 q 145 617 72 538 q 386 696 218 696 q 613 639 542 696 q 683 468 683 582 q 518 274 683 274 m 213 378 l 482 378 q 549 468 549 378 q 513 556 547 531 q 393 582 479 582 q 254 540 293 582 q 213 378 215 497 z "},"ë":{"ha":749,"x_min":72,"x_max":683,"o":"m 289 813 l 243 813 q 208 850 208 813 l 208 925 q 243 963 208 963 l 289 963 q 325 925 325 963 l 325 850 q 289 813 325 813 m 535 813 l 490 813 q 454 850 454 813 l 454 925 q 490 963 454 963 l 535 963 q 571 925 571 963 l 571 850 q 535 813 571 813 m 518 274 l 214 274 q 269 132 224 168 q 417 96 314 96 q 654 113 507 96 l 667 24 q 399 -17 575 -17 q 147 64 221 -17 q 72 340 72 144 q 145 617 72 538 q 386 696 218 696 q 613 639 542 696 q 683 468 683 582 q 518 274 683 274 m 213 378 l 482 378 q 549 468 549 378 q 513 556 547 531 q 393 582 479 582 q 254 540 293 582 q 213 378 215 497 z "},"ì":{"ha":354,"x_min":-72,"x_max":250,"o":"m 250 821 l 206 760 l -72 922 l 4 1025 l 250 821 m 244 0 l 110 0 l 110 678 l 244 678 l 244 0 z "},"í":{"ha":354,"x_min":82,"x_max":404,"o":"m 404 922 l 128 760 l 82 821 l 328 1025 l 404 922 m 244 0 l 110 0 l 110 678 l 244 678 l 244 0 z "},"î":{"ha":354,"x_min":-53,"x_max":410,"o":"m 410 821 l 363 763 l 183 897 l 172 897 l -8 763 l -53 821 l 129 1000 l 226 1000 l 410 821 m 244 0 l 110 0 l 110 678 l 244 678 l 244 0 z "},"ï":{"ha":354,"x_min":-4,"x_max":360,"o":"m 32 963 l 78 963 q 113 925 113 963 l 113 850 q 78 813 113 813 l 32 813 q -4 850 -4 813 l -4 925 q 32 963 -4 963 m 279 963 l 324 963 q 360 925 360 963 l 360 850 q 324 813 360 813 l 279 813 q 242 850 242 813 l 242 925 q 279 963 242 963 m 244 0 l 110 0 l 110 678 l 244 678 l 244 0 z "},"ð":{"ha":779,"x_min":74,"x_max":696,"o":"m 621 932 l 531 863 q 696 393 696 715 q 628 85 696 189 q 383 -18 561 -18 q 149 59 224 -18 q 74 303 74 136 q 140 544 74 464 q 358 624 206 624 q 540 578 463 624 q 438 790 515 715 l 333 708 l 286 767 l 374 836 q 165 872 290 876 l 181 969 q 467 908 344 978 l 572 993 l 621 932 m 385 94 q 523 165 490 94 q 556 400 556 235 q 553 483 556 457 q 381 510 478 510 q 251 459 289 510 q 214 304 214 408 q 253 142 214 189 q 385 94 293 94 z "},"ñ":{"ha":810,"x_min":104,"x_max":710,"o":"m 253 811 l 192 811 q 213 938 182 894 q 300 976 244 981 q 410 940 346 972 q 510 903 474 907 q 561 914 547 897 q 575 969 575 931 l 636 969 q 615 846 646 889 q 528 807 585 803 q 410 845 476 811 q 315 883 344 879 q 266 870 279 888 q 253 811 253 853 m 218 678 l 226 574 q 526 696 386 696 q 663 648 617 696 q 710 508 710 600 l 710 0 l 575 0 l 575 469 q 556 558 575 533 q 489 582 538 582 q 383 558 436 582 q 239 481 331 535 l 239 0 l 104 0 l 104 678 l 218 678 z "},"ò":{"ha":792,"x_min":72,"x_max":719,"o":"m 467 821 l 422 760 l 144 922 l 221 1025 l 467 821 m 146 614 q 183 655 146 614 q 396 696 219 696 q 646 614 572 696 q 719 338 719 532 q 646 63 719 143 q 396 -18 572 -18 q 146 63 219 -18 q 72 338 72 143 q 146 614 72 532 m 540 531 q 521 556 540 531 q 396 582 501 582 q 251 531 290 582 q 213 338 213 479 q 251 146 213 197 q 396 94 290 94 q 540 146 501 94 q 579 338 579 197 q 540 531 579 479 z "},"ó":{"ha":792,"x_min":72,"x_max":719,"o":"m 621 922 l 344 760 l 299 821 l 544 1025 l 621 922 m 146 614 q 183 655 146 614 q 396 696 219 696 q 646 614 572 696 q 719 338 719 532 q 646 63 719 143 q 396 -18 572 -18 q 146 63 219 -18 q 72 338 72 143 q 146 614 72 532 m 540 531 q 521 556 540 531 q 396 582 501 582 q 251 531 290 582 q 213 338 213 479 q 251 146 213 197 q 396 94 290 94 q 540 146 501 94 q 579 338 579 197 q 540 531 579 479 z "},"ô":{"ha":792,"x_min":72,"x_max":719,"o":"m 626 821 l 579 763 l 400 897 l 389 897 l 208 763 l 164 821 l 346 1000 l 443 1000 l 626 821 m 146 614 q 183 655 146 614 q 396 696 219 696 q 646 614 572 696 q 719 338 719 532 q 646 63 719 143 q 396 -18 572 -18 q 146 63 219 -18 q 72 338 72 143 q 146 614 72 532 m 540 531 q 521 556 540 531 q 396 582 501 582 q 251 531 290 582 q 213 338 213 479 q 251 146 213 197 q 396 94 290 94 q 540 146 501 94 q 579 338 579 197 q 540 531 579 479 z "},"õ":{"ha":792,"x_min":72,"x_max":719,"o":"m 233 811 l 172 811 q 194 938 163 894 q 281 976 225 981 q 390 940 326 972 q 490 903 454 907 q 542 914 528 897 q 556 969 556 931 l 617 969 q 596 846 626 889 q 508 807 565 803 q 391 845 457 811 q 296 883 325 879 q 247 870 260 888 q 233 811 233 853 m 146 614 q 183 655 146 614 q 396 696 219 696 q 646 614 572 696 q 719 338 719 532 q 646 63 719 143 q 396 -18 572 -18 q 146 63 219 -18 q 72 338 72 143 q 146 614 72 532 m 540 531 q 521 556 540 531 q 396 582 501 582 q 251 531 290 582 q 213 338 213 479 q 251 146 213 197 q 396 94 290 94 q 540 146 501 94 q 579 338 579 197 q 540 531 579 479 z "},"ö":{"ha":792,"x_min":72,"x_max":719,"o":"m 249 963 l 294 963 q 329 925 329 963 l 329 850 q 294 813 329 813 l 249 813 q 213 850 213 813 l 213 925 q 249 963 213 963 m 496 963 l 540 963 q 576 925 576 963 l 576 850 q 540 813 576 813 l 496 813 q 458 850 458 813 l 458 925 q 496 963 458 963 m 146 614 q 183 655 146 614 q 396 696 219 696 q 646 614 572 696 q 719 338 719 532 q 646 63 719 143 q 396 -18 572 -18 q 146 63 219 -18 q 72 338 72 143 q 146 614 72 532 m 540 531 q 521 556 540 531 q 396 582 501 582 q 251 531 290 582 q 213 338 213 479 q 251 146 213 197 q 396 94 290 94 q 540 146 501 94 q 579 338 579 197 q 540 531 579 479 z "},"÷":{"ha":788,"x_min":86,"x_max":701,"o":"m 375 735 l 410 735 q 448 724 438 735 q 458 685 458 713 l 458 621 q 448 584 458 594 q 410 574 438 574 l 375 574 q 337 583 347 574 q 326 621 326 593 l 326 685 q 337 724 326 713 q 375 735 347 735 m 701 360 l 86 360 l 86 460 l 701 460 l 701 360 m 375 244 l 410 244 q 448 233 438 244 q 458 194 458 222 l 458 132 q 448 94 458 104 q 410 83 438 83 l 375 83 q 337 94 347 83 q 326 132 326 104 l 326 194 q 337 233 326 222 q 375 244 347 244 z "},"ø":{"ha":792,"x_min":72,"x_max":719,"o":"m 622 754 l 581 663 q 687 549 654 628 q 719 338 719 471 q 646 63 719 143 q 396 -18 572 -18 q 269 -6 324 -18 l 221 -108 l 161 -79 l 206 18 q 104 131 136 53 q 72 338 72 208 q 146 614 72 532 q 396 696 219 696 q 517 685 461 696 l 563 783 l 622 754 m 261 136 l 465 576 q 396 582 439 582 q 251 531 290 582 q 213 338 213 479 q 261 136 213 185 m 526 547 l 319 103 q 396 94 351 94 q 540 146 501 94 q 579 338 579 197 q 526 547 579 499 z "},"ù":{"ha":794,"x_min":100,"x_max":690,"o":"m 428 765 l 151 928 l 228 1031 l 472 828 l 428 765 m 690 678 l 690 0 l 583 0 l 574 93 q 285 -18 425 -18 q 100 169 100 -18 l 100 678 l 235 678 l 235 208 q 256 122 233 146 q 332 97 278 97 q 557 188 411 97 l 557 678 l 690 678 z "},"ú":{"ha":794,"x_min":100,"x_max":690,"o":"m 350 765 l 306 828 l 551 1031 l 626 928 l 350 765 m 690 678 l 690 0 l 583 0 l 574 93 q 285 -18 425 -18 q 100 169 100 -18 l 100 678 l 235 678 l 235 208 q 256 122 233 146 q 332 97 278 97 q 557 188 411 97 l 557 678 l 690 678 z "},"û":{"ha":794,"x_min":100,"x_max":690,"o":"m 215 769 l 169 826 l 351 1006 l 449 1006 l 632 826 l 586 769 l 406 903 l 394 903 l 215 769 m 690 678 l 690 0 l 583 0 l 574 93 q 285 -18 425 -18 q 100 169 100 -18 l 100 678 l 235 678 l 235 208 q 256 122 233 146 q 332 97 278 97 q 557 188 411 97 l 557 678 l 690 678 z "},"ü":{"ha":794,"x_min":100,"x_max":690,"o":"m 300 819 l 254 819 q 219 857 219 819 l 219 932 q 254 968 219 968 l 300 968 q 336 932 336 968 l 336 857 q 300 819 336 819 m 546 819 l 501 819 q 465 857 465 819 l 465 932 q 501 968 465 968 l 546 968 q 583 932 583 968 l 583 857 q 546 819 583 819 m 690 678 l 690 0 l 583 0 l 574 93 q 285 -18 425 -18 q 100 169 100 -18 l 100 678 l 235 678 l 235 208 q 256 122 233 146 q 332 97 278 97 q 557 188 411 97 l 557 678 l 690 678 z "},"ý":{"ha":740,"x_min":22,"x_max":717,"o":"m 322 760 l 278 821 l 524 1025 l 600 922 l 322 760 m 717 678 l 454 -32 q 143 -285 360 -282 l 129 -196 q 254 -131 208 -172 q 328 -25 300 -89 l 338 0 l 310 0 q 263 35 271 0 l 22 678 l 167 678 l 335 185 q 358 101 351 142 l 378 101 q 406 185 392 139 l 572 678 l 717 678 z "},"þ":{"ha":800,"x_min":104,"x_max":725,"o":"m 239 972 l 239 746 q 233 604 239 651 q 481 694 349 694 q 669 609 613 694 q 725 333 725 524 q 667 60 725 139 q 476 -18 608 -18 q 235 40 347 -18 q 239 -86 239 -1 l 239 -276 l 104 -276 l 104 972 l 239 972 m 239 493 l 239 140 q 432 93 358 93 q 552 145 518 93 q 586 335 586 197 q 552 528 586 475 q 438 581 518 581 q 239 493 358 581 z "},"ÿ":{"ha":740,"x_min":22,"x_max":717,"o":"m 272 813 l 228 813 q 192 850 192 813 l 192 925 q 228 963 192 963 l 272 963 q 308 925 308 963 l 308 850 q 272 813 308 813 m 518 813 l 475 813 q 438 850 438 813 l 438 925 q 475 963 438 963 l 518 963 q 556 925 556 963 l 556 850 q 518 813 556 813 m 717 678 l 454 -32 q 143 -285 360 -282 l 129 -196 q 254 -131 208 -172 q 328 -25 300 -89 l 338 0 l 310 0 q 263 35 271 0 l 22 678 l 167 678 l 335 185 q 358 101 351 142 l 378 101 q 406 185 392 139 l 572 678 l 717 678 z "},"Ā":{"ha":869,"x_min":13,"x_max":857,"o":"m 632 1086 l 239 1086 l 239 1185 l 632 1185 l 632 1086 m 625 289 l 243 289 l 154 0 l 13 0 l 313 921 q 364 958 324 958 l 506 958 q 556 921 547 958 l 857 0 l 714 0 l 625 289 m 589 410 l 476 774 q 465 813 472 786 q 453 851 457 839 l 415 851 l 393 774 l 281 410 l 589 410 z "},"ā":{"ha":765,"x_min":68,"x_max":667,"o":"m 571 838 l 178 838 l 178 936 l 571 936 l 571 838 m 110 565 l 97 664 q 426 696 281 696 q 608 646 550 696 q 667 472 667 596 l 667 0 l 561 0 l 546 107 q 275 -12 429 -12 q 124 38 181 -12 q 68 179 68 88 l 68 250 q 118 375 68 331 q 260 419 168 419 l 532 419 l 532 472 q 503 558 531 535 q 397 582 475 582 q 110 565 321 582 m 204 232 l 204 196 q 228 124 204 146 q 303 101 251 101 q 532 196 424 101 l 532 318 l 285 318 q 222 295 240 317 q 204 232 204 274 z "},"Ă":{"ha":869,"x_min":13,"x_max":857,"o":"m 578 1231 l 646 1219 q 594 1085 653 1138 q 435 1033 536 1033 q 274 1085 332 1033 q 222 1219 215 1138 l 290 1231 q 436 1132 290 1132 q 542 1158 504 1132 q 578 1231 579 1183 m 625 289 l 243 289 l 154 0 l 13 0 l 313 921 q 364 958 324 958 l 506 958 q 556 921 547 958 l 857 0 l 714 0 l 625 289 m 589 410 l 476 774 q 465 813 472 786 q 453 851 457 839 l 415 851 l 393 774 l 281 410 l 589 410 z "},"ă":{"ha":765,"x_min":68,"x_max":667,"o":"m 518 981 l 585 971 q 534 835 592 888 q 375 783 476 783 q 213 835 272 783 q 161 971 154 888 l 229 981 q 375 882 229 882 q 481 908 443 882 q 518 981 518 933 m 110 565 l 97 664 q 426 696 281 696 q 608 646 550 696 q 667 472 667 596 l 667 0 l 561 0 l 546 107 q 275 -12 429 -12 q 124 38 181 -12 q 68 179 68 88 l 68 250 q 118 375 68 331 q 260 419 168 419 l 532 419 l 532 472 q 503 558 531 535 q 397 582 475 582 q 110 565 321 582 m 204 232 l 204 196 q 228 124 204 146 q 303 101 251 101 q 532 196 424 101 l 532 318 l 285 318 q 222 295 240 317 q 204 232 204 274 z "},"Ą":{"ha":869,"x_min":13,"x_max":879,"o":"m 863 -212 l 879 -268 q 735 -294 789 -304 q 664 -248 682 -285 q 664 -161 646 -211 q 794 0 694 -79 l 714 0 l 625 289 l 243 289 l 154 0 l 13 0 l 313 921 q 364 958 324 958 l 506 958 q 556 921 547 958 l 857 0 q 758 -154 785 -85 q 768 -218 738 -203 q 863 -212 799 -233 m 589 410 l 476 774 q 465 813 472 786 q 453 851 457 839 l 415 851 l 393 774 l 281 410 l 589 410 z "},"ą":{"ha":765,"x_min":68,"x_max":689,"o":"m 672 -212 l 689 -268 q 545 -294 599 -304 q 474 -248 492 -285 q 474 -161 456 -211 q 604 0 504 -79 l 561 0 l 546 107 q 275 -12 429 -12 q 124 38 181 -12 q 68 179 68 88 l 68 250 q 118 375 68 331 q 260 419 168 419 l 532 419 l 532 472 q 503 558 531 535 q 397 582 475 582 q 110 565 321 582 l 97 664 q 426 696 281 696 q 608 646 550 696 q 667 472 667 596 l 667 0 q 568 -154 594 -85 q 578 -218 547 -203 q 672 -212 608 -233 m 204 232 l 204 196 q 228 124 204 146 q 303 101 251 101 q 532 196 424 101 l 532 318 l 285 318 q 222 295 240 317 q 204 232 204 274 z "},"Ć":{"ha":794,"x_min":82,"x_max":746,"o":"m 671 1171 l 394 1008 l 349 1071 l 594 1274 l 671 1171 m 732 122 l 746 17 q 461 -17 631 -17 q 167 94 251 -17 q 82 479 82 206 q 167 864 82 753 q 461 975 251 975 q 726 947 611 975 l 713 840 q 461 851 601 851 q 278 771 329 851 q 228 479 228 690 q 278 188 228 268 q 461 107 329 107 q 732 122 638 107 z "},"ć":{"ha":682,"x_min":72,"x_max":632,"o":"m 596 922 l 319 760 l 275 821 l 521 1025 l 596 922 m 619 111 l 632 21 q 396 -17 529 -17 q 145 63 218 -17 q 72 339 72 143 q 145 615 72 535 q 396 696 218 696 q 621 661 532 696 l 603 575 q 419 582 499 582 q 258 531 303 582 q 213 339 213 479 q 258 147 213 199 q 419 96 303 96 q 619 111 533 96 z "},"Ċ":{"ha":794,"x_min":82,"x_max":746,"o":"m 424 1207 l 467 1207 q 506 1167 506 1207 l 506 1089 q 467 1050 506 1050 l 424 1050 q 383 1089 383 1050 l 383 1167 q 424 1207 383 1207 m 732 122 l 746 17 q 461 -17 631 -17 q 167 94 251 -17 q 82 479 82 206 q 167 864 82 753 q 461 975 251 975 q 726 947 611 975 l 713 840 q 461 851 601 851 q 278 771 329 851 q 228 479 228 690 q 278 188 228 268 q 461 107 329 107 q 732 122 638 107 z "},"ċ":{"ha":682,"x_min":72,"x_max":632,"o":"m 349 957 l 392 957 q 432 918 432 957 l 432 840 q 392 800 432 800 l 349 800 q 310 840 310 800 l 310 918 q 349 957 310 957 m 619 111 l 632 21 q 396 -17 529 -17 q 145 63 218 -17 q 72 339 72 143 q 145 615 72 535 q 396 696 218 696 q 621 661 532 696 l 603 575 q 419 582 499 582 q 258 531 303 582 q 213 339 213 479 q 258 147 213 199 q 419 96 303 96 q 619 111 533 96 z "},"Č":{"ha":794,"x_min":82,"x_max":746,"o":"m 678 1211 l 476 1032 l 415 1032 l 215 1211 l 260 1268 l 440 1151 l 451 1151 l 631 1268 l 678 1211 m 732 122 l 746 17 q 461 -17 631 -17 q 167 94 251 -17 q 82 479 82 206 q 167 864 82 753 q 461 975 251 975 q 726 947 611 975 l 713 840 q 461 851 601 851 q 278 771 329 851 q 228 479 228 690 q 278 188 228 268 q 461 107 329 107 q 732 122 638 107 z "},"č":{"ha":682,"x_min":72,"x_max":632,"o":"m 604 961 l 403 782 l 342 782 l 142 961 l 186 1019 l 367 901 l 378 901 l 557 1019 l 604 961 m 619 111 l 632 21 q 396 -17 529 -17 q 145 63 218 -17 q 72 339 72 143 q 145 615 72 535 q 396 696 218 696 q 621 661 532 696 l 603 575 q 419 582 499 582 q 258 531 303 582 q 213 339 213 479 q 258 147 213 199 q 419 96 303 96 q 619 111 533 96 z "},"Ď":{"ha":924,"x_min":117,"x_max":842,"o":"m 411 1032 l 211 1211 l 256 1268 l 436 1151 l 447 1151 l 626 1268 l 674 1211 l 472 1032 l 411 1032 m 117 0 l 117 958 q 463 971 299 971 q 758 864 674 971 q 842 479 842 757 q 758 94 842 201 q 463 -12 674 -12 q 117 0 299 -12 m 256 849 l 256 113 q 463 108 344 108 q 644 189 593 108 q 694 479 694 269 q 644 769 694 689 q 463 850 593 850 q 352 849 421 850 q 256 849 283 849 z "},"ď":{"ha":799,"x_min":74,"x_max":892,"o":"m 892 938 l 892 869 q 844 697 890 775 l 786 711 q 800 842 800 775 q 775 851 785 842 q 767 875 765 861 l 767 938 q 813 976 768 976 l 849 976 q 883 968 874 976 q 892 938 892 960 m 694 972 l 694 0 l 589 0 l 578 93 q 311 -17 447 -17 q 130 73 186 -17 q 74 342 74 163 q 136 616 74 536 q 332 696 199 696 q 565 635 460 696 q 560 768 560 694 l 560 972 l 694 972 m 560 185 l 560 546 q 365 579 433 579 q 246 531 279 579 q 213 343 213 483 q 245 151 213 203 q 357 100 278 100 q 448 118 408 100 q 560 185 488 136 z "},"Đ":{"ha":931,"x_min":31,"x_max":847,"o":"m 124 546 l 124 958 q 469 971 306 971 q 763 863 679 971 q 847 479 847 756 q 763 95 847 203 q 469 -12 679 -12 q 124 0 306 -12 l 124 469 l 31 469 l 31 546 l 124 546 m 261 469 l 261 113 q 469 108 353 108 q 651 189 600 108 q 701 479 701 269 q 651 769 701 689 q 469 850 600 850 q 358 849 426 850 q 261 849 290 849 l 261 546 l 464 546 l 464 469 l 261 469 z "},"đ":{"ha":792,"x_min":74,"x_max":786,"o":"m 786 792 l 694 792 l 694 0 l 589 0 l 578 93 q 311 -17 447 -17 q 130 73 186 -17 q 74 342 74 163 q 136 616 74 536 q 332 696 199 696 q 565 635 460 696 q 560 768 560 694 l 560 792 l 353 792 l 353 868 l 560 868 l 560 972 l 694 972 l 694 868 l 786 868 l 786 792 m 560 185 l 560 546 q 365 579 433 579 q 246 531 279 579 q 213 343 213 483 q 245 151 213 203 q 357 100 278 100 q 448 118 408 100 q 560 185 488 136 z "},"Ē":{"ha":781,"x_min":108,"x_max":713,"o":"m 626 1114 l 235 1114 l 235 1213 l 626 1213 l 626 1114 m 706 115 l 713 8 q 301 -3 586 -3 q 161 44 213 -3 q 108 169 110 90 l 108 789 q 161 915 110 868 q 301 961 213 961 q 713 950 586 961 l 706 842 l 325 842 q 266 822 283 842 q 249 753 249 801 l 249 561 l 653 561 l 653 449 l 249 449 l 249 204 q 266 135 249 156 q 325 115 283 115 l 706 115 z "},"ē":{"ha":749,"x_min":72,"x_max":683,"o":"m 586 838 l 193 838 l 193 936 l 586 936 l 586 838 m 518 274 l 214 274 q 269 132 224 168 q 417 96 314 96 q 654 113 507 96 l 667 24 q 399 -17 575 -17 q 147 64 221 -17 q 72 340 72 144 q 145 617 72 538 q 386 696 218 696 q 613 639 542 696 q 683 468 683 582 q 518 274 683 274 m 213 378 l 482 378 q 549 468 549 378 q 513 556 547 531 q 393 582 479 582 q 254 540 293 582 q 213 378 215 497 z "},"Ė":{"ha":781,"x_min":108,"x_max":713,"o":"m 451 1076 l 410 1076 q 369 1117 369 1076 l 369 1194 q 410 1233 369 1233 l 451 1233 q 492 1194 492 1233 l 492 1117 q 451 1076 492 1076 m 706 115 l 713 8 q 301 -3 586 -3 q 161 44 213 -3 q 108 169 110 90 l 108 789 q 161 915 110 868 q 301 961 213 961 q 713 950 586 961 l 706 842 l 325 842 q 266 822 283 842 q 249 753 249 801 l 249 561 l 653 561 l 653 449 l 249 449 l 249 204 q 266 135 249 156 q 325 115 283 115 l 706 115 z "},"ė":{"ha":749,"x_min":72,"x_max":683,"o":"m 411 800 l 368 800 q 328 840 328 800 l 328 918 q 368 957 328 957 l 411 957 q 450 918 450 957 l 450 840 q 411 800 450 800 m 518 274 l 214 274 q 269 132 224 168 q 417 96 314 96 q 654 113 507 96 l 667 24 q 399 -17 575 -17 q 147 64 221 -17 q 72 340 72 144 q 145 617 72 538 q 386 696 218 696 q 613 639 542 696 q 683 468 683 582 q 518 274 683 274 m 213 378 l 482 378 q 549 468 549 378 q 513 556 547 531 q 393 582 479 582 q 254 540 293 582 q 213 378 215 497 z "},"Ę":{"ha":781,"x_min":108,"x_max":733,"o":"m 718 -206 l 733 -260 q 545 -271 600 -308 q 519 -153 490 -233 q 644 3 547 -74 q 301 -3 535 -3 q 161 44 213 -3 q 108 169 110 90 l 108 789 q 161 915 110 868 q 301 961 213 961 q 713 950 586 961 l 706 842 l 325 842 q 266 822 283 842 q 249 753 249 801 l 249 561 l 653 561 l 653 449 l 249 449 l 249 204 q 266 135 249 156 q 325 115 283 115 l 706 115 l 713 8 q 614 -146 640 -79 q 624 -210 593 -194 q 718 -206 654 -226 z "},"ę":{"ha":749,"x_min":72,"x_max":688,"o":"m 672 -189 l 688 -244 q 500 -254 556 -292 q 474 -137 444 -217 q 574 -1 499 -67 q 399 -17 492 -17 q 147 64 221 -17 q 72 340 72 144 q 145 617 72 538 q 386 696 218 696 q 613 639 542 696 q 683 468 683 582 q 518 274 683 274 l 214 274 q 269 132 224 168 q 417 96 314 96 q 654 113 507 96 l 667 24 q 568 -131 594 -61 q 578 -194 547 -179 q 672 -189 608 -210 m 213 378 l 482 378 q 549 468 549 378 q 513 556 547 531 q 393 582 479 582 q 254 540 293 582 q 213 378 215 497 z "},"Ě":{"ha":781,"x_min":108,"x_max":713,"o":"m 401 1058 l 201 1239 l 246 1296 l 426 1179 l 438 1179 l 617 1296 l 664 1239 l 463 1058 l 401 1058 m 706 115 l 713 8 q 301 -3 586 -3 q 161 44 213 -3 q 108 169 110 90 l 108 789 q 161 915 110 868 q 301 961 213 961 q 713 950 586 961 l 706 842 l 325 842 q 266 822 283 842 q 249 753 249 801 l 249 561 l 653 561 l 653 449 l 249 449 l 249 204 q 266 135 249 156 q 325 115 283 115 l 706 115 z "},"ě":{"ha":749,"x_min":72,"x_max":683,"o":"m 360 782 l 160 961 l 204 1019 l 385 901 l 396 901 l 575 1019 l 622 961 l 421 782 l 360 782 m 518 274 l 214 274 q 269 132 224 168 q 417 96 314 96 q 654 113 507 96 l 667 24 q 399 -17 575 -17 q 147 64 221 -17 q 72 340 72 144 q 145 617 72 538 q 386 696 218 696 q 613 639 542 696 q 683 468 683 582 q 518 274 683 274 m 213 378 l 482 378 q 549 468 549 378 q 513 556 547 531 q 393 582 479 582 q 254 540 293 582 q 213 378 215 497 z "},"Ğ":{"ha":874,"x_min":82,"x_max":783,"o":"m 599 1231 l 667 1219 q 615 1085 674 1138 q 456 1033 557 1033 q 294 1085 353 1033 q 243 1219 236 1138 l 311 1231 q 457 1132 311 1132 q 563 1158 525 1132 q 599 1231 600 1183 m 783 553 l 783 0 l 681 0 l 667 97 q 382 -18 546 -18 q 153 103 224 -18 q 82 483 82 224 q 122 783 82 676 q 249 933 163 889 q 490 976 335 976 q 757 947 640 976 l 743 842 q 499 853 626 853 q 393 845 433 853 q 318 815 353 838 q 266 750 283 793 q 239 640 249 707 q 229 474 229 574 q 272 185 229 267 q 421 103 314 103 q 647 188 522 103 l 647 553 l 783 553 z "},"ğ":{"ha":779,"x_min":53,"x_max":750,"o":"m 522 981 l 589 971 q 538 835 596 888 q 379 783 481 783 q 217 835 276 783 q 165 971 158 888 l 233 981 q 379 882 233 882 q 485 908 447 882 q 522 981 522 933 m 743 606 l 647 596 q 671 478 671 549 q 605 312 671 363 q 376 261 539 261 q 242 272 301 261 q 230 208 219 243 q 285 167 240 174 l 535 128 q 672 68 631 114 q 713 -65 713 22 q 642 -232 713 -186 q 385 -278 571 -278 q 125 -233 197 -278 q 53 -69 53 -187 q 78 21 53 -12 q 161 88 103 54 q 117 195 113 128 q 171 297 122 263 q 82 476 82 343 q 147 646 82 596 q 378 696 213 696 q 539 678 479 696 l 750 678 l 743 606 m 376 363 q 508 388 471 363 q 546 478 546 414 q 509 568 546 543 q 376 593 472 593 q 242 568 279 593 q 204 478 204 543 q 242 389 204 415 q 376 363 281 363 m 465 29 l 247 58 q 183 -58 183 6 q 222 -144 183 -125 q 383 -164 260 -164 q 542 -144 503 -164 q 581 -58 581 -124 q 560 3 581 -11 q 465 29 539 18 z "},"Ġ":{"ha":874,"x_min":82,"x_max":783,"o":"m 478 1050 l 435 1050 q 394 1089 394 1050 l 394 1167 q 435 1207 394 1207 l 478 1207 q 517 1167 517 1207 l 517 1089 q 478 1050 517 1050 m 783 553 l 783 0 l 681 0 l 667 97 q 382 -18 546 -18 q 153 103 224 -18 q 82 483 82 224 q 122 783 82 676 q 249 933 163 889 q 490 976 335 976 q 757 947 640 976 l 743 842 q 499 853 626 853 q 393 845 433 853 q 318 815 353 838 q 266 750 283 793 q 239 640 249 707 q 229 474 229 574 q 272 185 229 267 q 421 103 314 103 q 647 188 522 103 l 647 553 l 783 553 z "},"ġ":{"ha":779,"x_min":53,"x_max":750,"o":"m 400 800 l 357 800 q 318 840 318 800 l 318 918 q 357 957 318 957 l 400 957 q 440 918 440 957 l 440 840 q 400 800 440 800 m 743 606 l 647 596 q 671 478 671 549 q 605 312 671 363 q 376 261 539 261 q 242 272 301 261 q 230 208 219 243 q 285 167 240 174 l 535 128 q 672 68 631 114 q 713 -65 713 22 q 642 -232 713 -186 q 385 -278 571 -278 q 125 -233 197 -278 q 53 -69 53 -187 q 78 21 53 -12 q 161 88 103 54 q 117 195 113 128 q 171 297 122 263 q 82 476 82 343 q 147 646 82 596 q 378 696 213 696 q 539 678 479 696 l 750 678 l 743 606 m 376 363 q 508 388 471 363 q 546 478 546 414 q 509 568 546 543 q 376 593 472 593 q 242 568 279 593 q 204 478 204 543 q 242 389 204 415 q 376 363 281 363 m 465 29 l 247 58 q 183 -58 183 6 q 222 -144 183 -125 q 383 -164 260 -164 q 542 -144 503 -164 q 581 -58 581 -124 q 560 3 581 -11 q 465 29 539 18 z "},"Ģ":{"ha":874,"x_min":82,"x_max":783,"o":"m 783 553 l 783 0 l 681 0 l 667 97 q 382 -18 546 -18 q 153 103 224 -18 q 82 483 82 224 q 122 783 82 676 q 249 933 163 889 q 490 976 335 976 q 757 947 640 976 l 743 842 q 499 853 626 853 q 393 845 433 853 q 318 815 353 838 q 266 750 283 793 q 239 640 249 707 q 229 474 229 574 q 272 185 229 267 q 421 103 314 103 q 647 188 522 103 l 647 553 l 783 553 m 435 -81 l 471 -81 q 505 -90 496 -81 q 514 -122 514 -99 l 514 -197 q 467 -385 513 -301 l 408 -369 q 422 -226 422 -300 q 397 -217 407 -226 q 389 -190 388 -207 l 389 -122 q 400 -90 390 -99 q 435 -81 410 -81 z "},"ģ":{"ha":779,"x_min":53,"x_max":750,"o":"m 414 772 l 379 772 q 344 781 354 772 q 335 814 335 790 l 335 889 q 383 1076 336 990 l 442 1061 q 428 918 428 993 q 461 882 461 918 l 461 814 q 414 772 460 772 m 743 606 l 647 596 q 671 478 671 549 q 605 312 671 363 q 376 261 539 261 q 242 272 301 261 q 230 208 219 243 q 285 167 240 174 l 535 128 q 672 68 631 114 q 713 -65 713 22 q 642 -232 713 -186 q 385 -278 571 -278 q 125 -233 197 -278 q 53 -69 53 -187 q 78 21 53 -12 q 161 88 103 54 q 117 195 113 128 q 171 297 122 263 q 82 476 82 343 q 147 646 82 596 q 378 696 213 696 q 539 678 479 696 l 750 678 l 743 606 m 376 363 q 508 388 471 363 q 546 478 546 414 q 509 568 546 543 q 376 593 472 593 q 242 568 279 593 q 204 478 204 543 q 242 389 204 415 q 376 363 281 363 m 465 29 l 247 58 q 183 -58 183 6 q 222 -144 183 -125 q 383 -164 260 -164 q 542 -144 503 -164 q 581 -58 581 -124 q 560 3 581 -11 q 465 29 539 18 z "},"Ħ":{"ha":942,"x_min":26,"x_max":914,"o":"m 914 719 l 819 719 l 819 0 l 681 0 l 681 451 l 261 451 l 261 0 l 122 0 l 122 719 l 26 719 l 26 792 l 122 792 l 122 958 l 261 958 l 261 792 l 681 792 l 681 958 l 819 958 l 819 792 l 914 792 l 914 719 m 681 719 l 261 719 l 261 571 l 681 571 l 681 719 z "},"ħ":{"ha":815,"x_min":7,"x_max":715,"o":"m 246 792 l 246 710 q 236 578 246 640 q 532 696 397 696 q 668 648 621 696 q 715 508 715 600 l 715 0 l 581 0 l 581 469 q 562 558 581 533 q 494 582 543 582 q 387 558 442 582 q 244 482 332 535 l 244 0 l 110 0 l 110 792 l 7 792 l 7 868 l 110 868 l 110 972 l 244 972 l 244 868 l 442 868 l 442 792 l 246 792 z "},"Ī":{"ha":372,"x_min":-10,"x_max":382,"o":"m 382 1086 l -10 1086 l -10 1185 l 382 1185 l 382 1086 m 256 0 l 117 0 l 117 958 l 256 958 l 256 0 z "},"ī":{"ha":354,"x_min":-18,"x_max":374,"o":"m 374 838 l -18 838 l -18 936 l 374 936 l 374 838 m 244 0 l 110 0 l 110 678 l 244 678 l 244 0 z "},"Į":{"ha":372,"x_min":38,"x_max":261,"o":"m 244 -212 l 261 -268 q 166 -294 208 -289 q 98 -290 124 -300 q 55 -262 72 -281 q 38 -217 38 -243 q 47 -161 39 -190 q 178 0 75 -79 l 117 0 l 117 958 l 256 958 l 256 0 l 239 0 q 140 -154 167 -85 q 151 -217 119 -201 q 244 -212 182 -233 z "},"į":{"ha":354,"x_min":32,"x_max":256,"o":"m 200 800 l 157 800 q 117 840 117 800 l 117 918 q 157 957 117 957 l 200 957 q 239 918 239 957 l 239 840 q 200 800 239 800 m 239 -212 l 256 -268 q 160 -294 203 -289 q 92 -290 118 -300 q 49 -262 67 -281 q 33 -217 32 -243 q 42 -161 33 -190 q 171 0 69 -79 l 110 0 l 110 678 l 244 678 l 244 0 l 233 0 q 135 -154 161 -85 q 145 -217 114 -201 q 239 -212 176 -233 z "},"İ":{"ha":372,"x_min":117,"x_max":256,"o":"m 165 1207 l 208 1207 q 247 1167 247 1207 l 247 1089 q 208 1050 247 1050 l 165 1050 q 125 1089 125 1050 l 125 1167 q 165 1207 125 1207 m 256 0 l 117 0 l 117 958 l 256 958 l 256 0 z "},"ı":{"ha":354,"x_min":110,"x_max":244,"o":"m 244 0 l 110 0 l 110 678 l 244 678 l 244 0 z "},"Ĳ":{"ha":849,"x_min":117,"x_max":736,"o":"m 256 0 l 117 0 l 117 958 l 256 958 l 256 0 m 736 958 l 736 210 q 688 44 736 101 q 547 -12 639 -14 q 411 6 463 -12 l 426 106 l 493 106 q 597 203 597 106 l 597 958 l 736 958 z "},"ĳ":{"ha":708,"x_min":106,"x_max":603,"o":"m 144 967 l 208 967 q 247 928 247 967 l 247 850 q 208 810 247 810 l 144 810 q 106 850 106 810 l 106 928 q 144 967 106 967 m 500 967 l 564 967 q 603 928 603 967 l 603 850 q 564 810 603 810 l 500 810 q 460 850 460 810 l 460 928 q 500 967 460 967 m 243 0 l 110 0 l 110 678 l 243 678 l 243 0 m 599 678 l 599 -7 q 562 -162 599 -90 q 461 -281 525 -235 l 386 -222 q 464 -7 464 -124 l 464 678 l 599 678 z "},"Ķ":{"ha":829,"x_min":117,"x_max":806,"o":"m 806 0 l 651 0 l 354 443 l 246 443 q 256 344 256 385 l 256 0 l 117 0 l 117 958 l 256 958 l 256 664 q 246 556 256 604 l 354 556 l 636 958 l 788 958 l 517 567 q 458 500 494 535 l 458 496 q 525 424 497 463 l 806 0 m 422 -81 l 458 -81 q 492 -90 483 -81 q 501 -122 501 -99 l 501 -197 q 454 -385 500 -301 l 396 -369 q 410 -226 410 -300 q 375 -190 375 -226 l 375 -122 q 388 -90 376 -99 q 422 -81 399 -81 z "},"ķ":{"ha":718,"x_min":104,"x_max":697,"o":"m 697 0 l 542 0 l 317 333 l 232 333 q 239 228 239 274 l 239 0 l 104 0 l 104 972 l 240 972 l 240 546 q 232 431 240 486 l 315 431 l 519 678 l 675 678 l 471 432 q 421 382 453 407 l 421 379 q 471 321 447 358 l 697 0 m 371 -81 l 407 -81 q 440 -90 431 -81 q 450 -122 450 -99 l 450 -197 q 403 -385 449 -301 l 344 -369 q 358 -226 358 -289 q 324 -190 324 -226 l 324 -122 q 336 -90 325 -99 q 371 -81 347 -81 z "},"Ĺ":{"ha":715,"x_min":90,"x_max":688,"o":"m 411 1171 l 135 1008 l 90 1071 l 336 1274 l 411 1171 m 253 958 l 253 206 q 272 137 253 157 q 340 117 292 117 l 681 117 l 688 10 q 318 -3 553 -3 q 114 186 114 -3 l 114 958 l 253 958 z "},"ĺ":{"ha":419,"x_min":81,"x_max":406,"o":"m 403 1200 l 126 1039 l 81 1100 l 326 1304 l 403 1200 m 240 972 l 240 196 q 261 131 239 153 q 328 110 283 110 l 390 110 l 406 6 q 276 -12 365 -12 q 151 34 197 -12 q 106 165 106 81 l 106 972 l 240 972 z "},"Ļ":{"ha":715,"x_min":114,"x_max":688,"o":"m 253 958 l 253 206 q 272 137 253 157 q 340 117 292 117 l 681 117 l 688 10 q 318 -3 553 -3 q 114 186 114 -3 l 114 958 l 253 958 m 393 -82 l 428 -82 q 463 -91 453 -82 q 472 -124 472 -100 l 472 -199 q 424 -386 471 -300 l 365 -371 q 379 -228 379 -303 q 346 -192 346 -228 l 346 -124 q 393 -82 347 -82 z "},"ļ":{"ha":419,"x_min":106,"x_max":406,"o":"m 240 972 l 240 196 q 261 131 239 153 q 328 110 283 110 l 390 110 l 406 6 q 276 -12 365 -12 q 151 34 197 -12 q 106 165 106 81 l 106 972 l 240 972 m 225 -82 l 260 -82 q 294 -91 285 -82 q 304 -124 304 -100 l 304 -199 q 256 -386 303 -300 l 197 -371 q 211 -228 211 -303 q 178 -192 178 -228 l 178 -124 q 225 -82 179 -82 z "},"Ľ":{"ha":715,"x_min":114,"x_max":688,"o":"m 453 960 l 489 960 q 524 951 514 960 q 533 918 533 942 l 533 843 q 485 656 532 742 l 426 671 q 440 814 440 739 q 415 824 425 814 q 407 850 406 833 l 407 918 q 453 960 408 960 m 253 958 l 253 206 q 272 137 253 157 q 340 117 292 117 l 681 117 l 688 10 q 318 -3 553 -3 q 114 186 114 -3 l 114 958 l 253 958 z "},"ľ":{"ha":419,"x_min":106,"x_max":439,"o":"m 360 976 l 394 976 q 429 968 419 976 q 439 938 439 960 l 439 869 q 390 697 438 778 l 332 711 q 346 842 346 775 q 313 875 313 842 l 313 938 q 360 976 314 976 m 240 972 l 240 196 q 261 131 239 153 q 328 110 283 110 l 390 110 l 406 6 q 276 -12 365 -12 q 151 34 197 -12 q 106 165 106 81 l 106 972 l 240 972 z "},"Ŀ":{"ha":715,"x_min":114,"x_max":688,"o":"m 253 958 l 253 206 q 272 137 253 157 q 340 117 292 117 l 681 117 l 688 10 q 318 -3 553 -3 q 114 186 114 -3 l 114 958 l 253 958 m 568 472 l 525 472 q 485 511 485 472 l 485 589 q 525 629 485 629 l 568 629 q 607 589 607 629 l 607 511 q 568 472 607 472 z "},"ŀ":{"ha":454,"x_min":106,"x_max":457,"o":"m 240 972 l 240 196 q 261 131 239 153 q 328 110 283 110 l 390 110 l 406 6 q 276 -12 365 -12 q 151 34 197 -12 q 106 165 106 81 l 106 972 l 240 972 m 418 463 l 375 463 q 335 503 335 463 l 335 581 q 375 619 335 619 l 418 619 q 457 581 457 619 l 457 503 q 418 463 457 463 z "},"Ł":{"ha":724,"x_min":26,"x_max":696,"o":"m 690 117 l 696 10 q 328 -3 561 -3 q 122 186 122 -3 l 122 460 l 26 419 l 26 504 l 122 544 l 122 958 l 261 958 l 261 601 l 419 667 l 419 582 l 261 517 l 261 206 q 281 137 261 157 q 350 117 301 117 l 690 117 z "},"ł":{"ha":461,"x_min":26,"x_max":436,"o":"m 419 110 l 436 6 q 306 -12 396 -12 q 181 34 226 -12 q 135 165 135 81 l 135 457 l 26 411 l 26 497 l 135 543 l 135 972 l 269 972 l 269 599 l 417 660 l 417 574 l 268 513 l 268 196 q 357 110 268 110 l 419 110 z "},"Ń":{"ha":983,"x_min":117,"x_max":867,"o":"m 728 1171 l 451 1008 l 407 1071 l 651 1274 l 728 1171 m 867 958 l 867 54 q 815 0 867 0 l 683 0 q 624 43 642 0 l 325 696 q 268 829 275 804 l 249 829 q 256 696 256 774 l 256 0 l 117 0 l 117 904 q 169 958 117 958 l 297 958 q 358 915 338 958 l 649 279 q 668 238 654 267 q 694 184 682 210 q 715 136 706 158 l 736 136 q 729 285 729 219 l 729 958 l 867 958 z "},"ń":{"ha":810,"x_min":104,"x_max":710,"o":"m 364 760 l 318 821 l 564 1025 l 640 922 l 364 760 m 218 678 l 226 574 q 526 696 386 696 q 663 648 617 696 q 710 508 710 600 l 710 0 l 575 0 l 575 469 q 556 558 575 533 q 489 582 538 582 q 383 558 436 582 q 239 481 331 535 l 239 0 l 104 0 l 104 678 l 218 678 z "},"Ņ":{"ha":983,"x_min":117,"x_max":867,"o":"m 867 958 l 867 54 q 815 0 867 0 l 683 0 q 624 43 642 0 l 325 696 q 268 829 275 804 l 249 829 q 256 696 256 774 l 256 0 l 117 0 l 117 904 q 169 958 117 958 l 297 958 q 358 915 338 958 l 649 279 q 668 238 654 267 q 694 184 682 210 q 715 136 706 158 l 736 136 q 729 285 729 219 l 729 958 l 867 958 m 457 -81 l 493 -81 q 527 -90 518 -81 q 536 -122 536 -99 l 536 -197 q 489 -385 535 -301 l 431 -369 q 444 -226 444 -300 q 410 -190 410 -226 l 410 -122 q 422 -90 411 -99 q 457 -81 433 -81 z "},"ņ":{"ha":810,"x_min":104,"x_max":710,"o":"m 218 678 l 226 574 q 526 696 386 696 q 663 648 617 696 q 710 508 710 600 l 710 0 l 575 0 l 575 469 q 556 558 575 533 q 489 582 538 582 q 383 558 436 582 q 239 481 331 535 l 239 0 l 104 0 l 104 678 l 218 678 m 388 -81 l 422 -81 q 457 -90 447 -81 q 467 -122 467 -99 l 467 -197 q 418 -385 465 -299 l 360 -369 q 374 -226 374 -300 q 340 -190 340 -226 l 340 -122 q 388 -81 342 -81 z "},"Ň":{"ha":983,"x_min":117,"x_max":867,"o":"m 735 1211 l 533 1032 l 472 1032 l 272 1211 l 317 1268 l 497 1151 l 508 1151 l 688 1268 l 735 1211 m 867 958 l 867 54 q 815 0 867 0 l 683 0 q 624 43 642 0 l 325 696 q 268 829 275 804 l 249 829 q 256 696 256 774 l 256 0 l 117 0 l 117 904 q 169 958 117 958 l 297 958 q 358 915 338 958 l 649 279 q 668 238 654 267 q 694 184 682 210 q 715 136 706 158 l 736 136 q 729 285 729 219 l 729 958 l 867 958 z "},"ň":{"ha":810,"x_min":104,"x_max":710,"o":"m 385 782 l 185 961 l 229 1019 l 410 901 l 421 901 l 600 1019 l 647 961 l 446 782 l 385 782 m 218 678 l 226 574 q 526 696 386 696 q 663 648 617 696 q 710 508 710 600 l 710 0 l 575 0 l 575 469 q 556 558 575 533 q 489 582 538 582 q 383 558 436 582 q 239 481 331 535 l 239 0 l 104 0 l 104 678 l 218 678 z "},"Ŋ":{"ha":983,"x_min":117,"x_max":867,"o":"m 867 958 l 867 -104 q 815 -249 867 -197 q 676 -299 764 -300 q 547 -279 603 -299 l 563 -192 l 628 -192 q 736 -93 736 -192 l 736 0 l 688 0 q 647 39 668 0 l 324 671 q 265 804 297 721 l 249 804 q 256 669 256 760 l 256 0 l 117 0 l 117 904 q 169 958 117 958 l 271 958 q 332 915 310 958 l 647 304 q 714 160 675 251 l 735 160 q 728 306 728 240 l 728 958 l 867 958 z "},"ŋ":{"ha":810,"x_min":104,"x_max":710,"o":"m 208 678 l 221 568 q 525 696 381 696 q 710 508 710 696 l 710 -89 q 665 -234 710 -183 q 535 -283 619 -285 q 407 -264 465 -283 l 422 -178 l 481 -178 q 575 -78 575 -178 l 575 469 q 556 549 575 526 q 485 572 536 572 q 239 481 399 572 l 239 0 l 104 0 l 104 678 l 208 678 z "},"Ō":{"ha":929,"x_min":82,"x_max":847,"o":"m 660 1086 l 267 1086 l 267 1185 l 660 1185 l 660 1086 m 464 976 q 763 868 678 976 q 847 479 847 760 q 763 90 847 199 q 464 -18 678 -18 q 167 90 251 -18 q 82 479 82 199 q 167 868 82 760 q 464 976 251 976 m 650 772 q 624 813 650 772 q 464 853 599 853 q 278 772 329 853 q 228 479 228 692 q 278 186 228 267 q 464 106 329 106 q 650 186 599 106 q 701 479 701 267 q 650 772 701 692 z "},"ō":{"ha":792,"x_min":72,"x_max":719,"o":"m 592 838 l 199 838 l 199 936 l 592 936 l 592 838 m 146 614 q 183 655 146 614 q 396 696 219 696 q 646 614 572 696 q 719 338 719 532 q 646 63 719 143 q 396 -18 572 -18 q 146 63 219 -18 q 72 338 72 143 q 146 614 72 532 m 540 531 q 521 556 540 531 q 396 582 501 582 q 251 531 290 582 q 213 338 213 479 q 251 146 213 197 q 396 94 290 94 q 540 146 501 94 q 579 338 579 197 q 540 531 579 479 z "},"Ő":{"ha":929,"x_min":82,"x_max":847,"o":"m 521 1224 l 329 1000 l 271 1044 l 424 1290 l 521 1224 m 756 1224 l 564 1000 l 507 1044 l 658 1290 l 756 1224 m 464 976 q 763 868 678 976 q 847 479 847 760 q 763 90 847 199 q 464 -18 678 -18 q 167 90 251 -18 q 82 479 82 199 q 167 868 82 760 q 464 976 251 976 m 650 772 q 624 813 650 772 q 464 853 599 853 q 278 772 329 853 q 228 479 228 692 q 278 186 228 267 q 464 106 329 106 q 650 186 599 106 q 701 479 701 267 q 650 772 701 692 z "},"ő":{"ha":792,"x_min":72,"x_max":719,"o":"m 453 974 l 261 751 l 203 794 l 356 1040 l 453 974 m 686 974 l 496 751 l 438 794 l 590 1040 l 686 974 m 146 614 q 183 655 146 614 q 396 696 219 696 q 646 614 572 696 q 719 338 719 532 q 646 63 719 143 q 396 -18 572 -18 q 146 63 219 -18 q 72 338 72 143 q 146 614 72 532 m 540 531 q 521 556 540 531 q 396 582 501 582 q 251 531 290 582 q 213 338 213 479 q 251 146 213 197 q 396 94 290 94 q 540 146 501 94 q 579 338 579 197 q 540 531 579 479 z "},"Œ":{"ha":1275,"x_min":82,"x_max":1206,"o":"m 1200 115 l 1206 8 q 788 -3 1078 -3 q 692 28 733 -3 q 464 -18 592 -18 q 167 90 251 -18 q 82 479 82 199 q 167 868 82 760 q 464 976 251 976 q 700 933 590 976 q 800 961 743 961 q 1206 950 1081 961 l 1200 842 l 847 842 q 778 822 799 842 q 758 753 758 801 l 758 561 l 1146 561 l 1146 447 l 758 447 l 758 204 q 778 135 758 156 q 847 115 799 115 l 1200 115 m 618 186 l 618 772 q 628 833 618 800 q 464 853 546 853 q 278 773 329 853 q 228 479 228 693 q 278 186 228 267 q 464 106 329 106 q 626 125 556 106 q 618 186 618 154 z "},"œ":{"ha":1257,"x_min":72,"x_max":1190,"o":"m 978 281 l 721 281 q 774 133 729 169 q 925 96 818 96 q 1160 113 1015 96 l 1174 24 q 906 -17 1082 -17 q 650 67 724 -17 q 396 -18 578 -18 q 146 63 219 -18 q 72 338 72 143 q 146 614 72 532 q 396 696 219 696 q 647 614 574 696 q 885 696 717 696 q 1190 483 1190 696 q 1143 324 1192 368 q 978 281 1094 281 m 396 94 q 535 140 494 94 q 579 306 575 185 l 578 344 q 579 378 578 367 q 533 538 574 494 q 396 582 493 582 q 251 531 290 582 q 213 338 213 479 q 251 146 213 197 q 396 94 290 94 m 718 379 l 969 379 q 1039 403 1019 379 q 1056 485 1058 426 q 1012 558 1051 535 q 889 582 972 582 q 760 538 797 582 q 718 379 722 494 z "},"Ŕ":{"ha":861,"x_min":117,"x_max":803,"o":"m 369 1008 l 325 1071 l 571 1274 l 647 1171 l 369 1008 m 803 0 l 654 0 l 572 299 q 451 394 542 394 l 254 396 l 254 0 l 117 0 l 117 958 q 451 971 235 971 q 697 911 625 971 q 768 693 768 851 q 727 519 768 578 q 592 449 686 461 l 592 442 q 713 303 685 414 l 803 0 m 254 514 l 449 514 q 590 551 551 515 q 628 685 628 586 q 590 817 628 782 q 449 851 551 851 q 254 850 307 851 l 254 514 z "},"ŕ":{"ha":561,"x_min":104,"x_max":543,"o":"m 267 760 l 222 821 l 468 1025 l 543 922 l 267 760 m 208 678 l 222 575 q 507 696 374 696 l 539 696 l 524 569 l 482 569 q 239 492 403 569 l 239 0 l 104 0 l 104 678 l 208 678 z "},"Ŗ":{"ha":861,"x_min":117,"x_max":803,"o":"m 803 0 l 654 0 l 572 299 q 451 394 542 394 l 254 396 l 254 0 l 117 0 l 117 958 q 451 971 235 971 q 697 911 625 971 q 768 693 768 851 q 727 519 768 578 q 592 449 686 461 l 592 442 q 713 303 685 414 l 803 0 m 254 514 l 449 514 q 590 551 551 515 q 628 685 628 586 q 590 817 628 782 q 449 851 551 851 q 254 850 307 851 l 254 514 m 439 -81 l 474 -81 q 508 -90 499 -81 q 518 -122 518 -99 l 518 -197 q 469 -385 517 -299 l 413 -369 q 426 -226 426 -289 q 392 -190 392 -226 l 392 -122 q 404 -90 393 -99 q 439 -81 415 -81 z "},"ŗ":{"ha":561,"x_min":96,"x_max":539,"o":"m 539 696 l 524 569 l 482 569 q 239 492 403 569 l 239 0 l 104 0 l 104 678 l 208 678 l 222 575 q 507 696 374 696 l 539 696 m 143 -81 l 178 -81 q 213 -90 203 -81 q 222 -122 222 -99 l 222 -197 q 174 -385 221 -299 l 117 -369 q 129 -226 129 -297 q 96 -190 96 -226 l 96 -122 q 143 -81 97 -81 z "},"Ř":{"ha":861,"x_min":117,"x_max":803,"o":"m 392 1032 l 192 1211 l 236 1268 l 417 1151 l 428 1151 l 607 1268 l 654 1211 l 453 1032 l 392 1032 m 803 0 l 654 0 l 572 299 q 451 394 542 394 l 254 396 l 254 0 l 117 0 l 117 958 q 451 971 235 971 q 697 911 625 971 q 768 693 768 851 q 727 519 768 578 q 592 449 686 461 l 592 442 q 713 303 685 414 l 803 0 m 254 514 l 449 514 q 590 551 551 515 q 628 685 628 586 q 590 817 628 782 q 449 851 551 851 q 254 850 307 851 l 254 514 z "},"ř":{"ha":561,"x_min":89,"x_max":551,"o":"m 289 782 l 89 961 l 133 1019 l 314 901 l 325 901 l 504 1019 l 551 961 l 350 782 l 289 782 m 208 678 l 222 575 q 507 696 374 696 l 539 696 l 524 569 l 482 569 q 239 492 403 569 l 239 0 l 104 0 l 104 678 l 208 678 z "},"Ś":{"ha":782,"x_min":74,"x_max":714,"o":"m 613 1171 l 336 1008 l 290 1071 l 536 1274 l 613 1171 m 458 396 l 264 450 q 117 544 161 478 q 74 722 74 610 q 91 855 74 804 q 151 932 108 906 q 247 967 194 958 q 389 975 300 975 q 678 946 558 975 l 669 844 q 394 851 468 851 q 250 830 286 851 q 214 718 214 808 q 240 618 214 647 q 329 572 265 589 l 519 519 q 670 425 626 490 q 714 247 714 360 q 642 36 714 89 q 388 -17 569 -17 q 86 11 235 -17 l 96 114 q 390 107 313 107 q 535 135 499 108 q 572 249 572 161 q 547 351 572 322 q 458 396 522 379 z "},"ś":{"ha":707,"x_min":67,"x_max":643,"o":"m 586 922 l 308 760 l 264 821 l 510 1025 l 586 922 m 410 267 l 221 314 q 101 380 136 336 q 67 507 67 424 q 127 658 67 619 q 335 696 188 697 q 624 672 497 693 l 613 575 q 356 582 400 582 q 227 570 257 582 q 197 507 197 558 q 201 469 197 483 q 223 444 206 454 q 250 431 240 435 q 293 418 260 428 l 485 371 q 607 308 571 349 q 643 181 643 267 q 577 23 643 61 q 349 -15 511 -15 q 79 4 207 -15 l 89 104 q 321 97 167 97 q 474 113 435 97 q 513 181 513 129 q 507 217 513 203 q 483 242 501 232 q 455 255 465 251 q 410 267 444 258 z "},"Ş":{"ha":782,"x_min":74,"x_max":714,"o":"m 458 396 l 264 450 q 117 544 161 478 q 74 722 74 610 q 91 855 74 804 q 151 932 108 906 q 247 967 194 958 q 389 975 300 975 q 678 946 558 975 l 669 844 q 394 851 468 851 q 250 830 286 851 q 214 718 214 808 q 240 618 214 647 q 329 572 265 589 l 519 519 q 670 425 626 490 q 714 247 714 360 q 642 36 714 89 q 388 -17 569 -17 q 86 11 235 -17 l 96 114 q 390 107 313 107 q 535 135 499 108 q 572 249 572 161 q 547 351 572 322 q 458 396 522 379 m 317 -137 l 331 -75 q 459 -85 422 -67 q 494 -165 496 -103 q 425 -303 493 -256 q 254 -337 357 -351 l 276 -267 q 363 -243 329 -268 q 399 -176 396 -218 q 383 -145 400 -153 q 317 -137 367 -137 z "},"ş":{"ha":707,"x_min":67,"x_max":643,"o":"m 410 267 l 221 314 q 101 380 136 336 q 67 507 67 424 q 127 658 67 619 q 335 696 188 697 q 624 672 497 693 l 613 575 q 356 582 400 582 q 227 570 257 582 q 197 507 197 558 q 201 469 197 483 q 223 444 206 454 q 250 431 240 435 q 293 418 260 428 l 485 371 q 607 308 571 349 q 643 181 643 267 q 577 23 643 61 q 349 -15 511 -15 q 79 4 207 -15 l 89 104 q 321 97 167 97 q 474 113 435 97 q 513 181 513 129 q 507 217 513 203 q 483 242 501 232 q 455 255 465 251 q 410 267 444 258 m 268 -136 l 282 -74 q 410 -83 374 -65 q 446 -164 447 -101 q 376 -302 444 -254 q 206 -336 308 -350 l 228 -265 q 315 -242 281 -267 q 350 -175 349 -217 q 335 -145 351 -153 q 268 -136 318 -137 z "},"Š":{"ha":782,"x_min":74,"x_max":714,"o":"m 619 1211 l 418 1032 l 357 1032 l 157 1211 l 201 1268 l 382 1151 l 393 1151 l 572 1268 l 619 1211 m 458 396 l 264 450 q 117 544 161 478 q 74 722 74 610 q 91 855 74 804 q 151 932 108 906 q 247 967 194 958 q 389 975 300 975 q 678 946 558 975 l 669 844 q 394 851 468 851 q 250 830 286 851 q 214 718 214 808 q 240 618 214 647 q 329 572 265 589 l 519 519 q 670 425 626 490 q 714 247 714 360 q 642 36 714 89 q 388 -17 569 -17 q 86 11 235 -17 l 96 114 q 390 107 313 107 q 535 135 499 108 q 572 249 572 161 q 547 351 572 322 q 458 396 522 379 z "},"š":{"ha":707,"x_min":67,"x_max":643,"o":"m 593 961 l 392 782 l 331 782 l 131 961 l 175 1019 l 356 901 l 367 901 l 546 1019 l 593 961 m 410 267 l 221 314 q 101 380 136 336 q 67 507 67 424 q 127 658 67 619 q 335 696 188 697 q 624 672 497 693 l 613 575 q 356 582 400 582 q 227 570 257 582 q 197 507 197 558 q 201 469 197 483 q 223 444 206 454 q 250 431 240 435 q 293 418 260 428 l 485 371 q 607 308 571 349 q 643 181 643 267 q 577 23 643 61 q 349 -15 511 -15 q 79 4 207 -15 l 89 104 q 321 97 167 97 q 474 113 435 97 q 513 181 513 129 q 507 217 513 203 q 483 242 501 232 q 455 255 465 251 q 410 267 444 258 z "},"Ţ":{"ha":811,"x_min":33,"x_max":779,"o":"m 779 958 l 779 835 l 475 835 l 475 0 l 335 0 l 335 835 l 33 835 l 33 958 l 779 958 m 324 -121 l 338 -58 q 465 -68 428 -50 q 501 -149 503 -86 q 431 -287 499 -239 q 261 -321 363 -335 l 282 -250 q 369 -226 335 -251 q 406 -160 403 -201 q 390 -130 406 -137 q 324 -121 374 -122 z "},"ţ":{"ha":539,"x_min":35,"x_max":501,"o":"m 479 110 l 494 6 q 335 -12 431 -12 q 203 37 249 -12 q 158 178 158 86 l 158 574 l 35 574 l 35 671 l 158 676 l 158 876 l 292 876 l 292 678 l 501 678 l 501 574 l 292 574 l 292 196 q 312 129 292 149 q 381 110 332 110 l 479 110 m 225 -135 l 239 -72 q 367 -81 329 -62 q 403 -162 404 -100 q 332 -300 400 -253 q 163 -335 264 -347 l 183 -264 q 270 -240 236 -265 q 307 -172 304 -214 q 292 -142 308 -150 q 225 -135 275 -135 z "},"Ť":{"ha":811,"x_min":33,"x_max":779,"o":"m 376 1032 l 176 1211 l 221 1268 l 401 1151 l 413 1151 l 592 1268 l 638 1211 l 438 1032 l 376 1032 m 779 835 l 475 835 l 475 0 l 335 0 l 335 835 l 33 835 l 33 958 l 779 958 l 779 835 z "},"ť":{"ha":539,"x_min":35,"x_max":503,"o":"m 454 772 l 396 788 q 410 931 410 856 q 376 967 376 931 l 376 1035 q 424 1076 378 1076 l 458 1076 q 493 1067 483 1076 q 503 1035 503 1058 l 503 960 q 454 772 501 858 m 292 574 l 292 196 q 312 129 292 149 q 381 110 332 110 l 479 110 l 494 6 q 335 -12 431 -12 q 203 37 249 -12 q 158 178 158 86 l 158 574 l 35 574 l 35 671 l 158 676 l 158 876 l 292 876 l 292 678 l 501 678 l 501 574 l 292 574 z "},"Ŧ":{"ha":811,"x_min":33,"x_max":779,"o":"m 475 835 l 475 583 l 667 583 l 667 507 l 475 507 l 475 0 l 335 0 l 335 507 l 143 507 l 143 583 l 335 583 l 335 835 l 33 835 l 33 958 l 779 958 l 779 835 l 475 835 z "},"ŧ":{"ha":539,"x_min":35,"x_max":501,"o":"m 479 110 l 494 6 q 335 -12 431 -12 q 203 37 249 -12 q 158 178 158 86 l 158 374 l 69 374 l 69 447 l 158 447 l 158 574 l 35 574 l 35 671 l 158 676 l 158 876 l 292 876 l 292 678 l 501 678 l 501 574 l 292 574 l 292 447 l 467 447 l 467 374 l 292 374 l 292 196 q 312 129 292 149 q 381 110 332 110 l 479 110 z "},"Ū":{"ha":925,"x_min":110,"x_max":815,"o":"m 660 1086 l 268 1086 l 268 1185 l 660 1185 l 660 1086 m 815 958 l 815 369 q 737 70 815 158 q 468 -18 658 -18 q 191 70 272 -18 q 110 369 110 158 l 110 958 l 249 958 l 249 369 q 296 164 249 222 q 463 106 343 106 q 628 164 581 106 q 676 369 676 222 l 676 958 l 815 958 z "},"ū":{"ha":794,"x_min":100,"x_max":690,"o":"m 597 843 l 204 843 l 204 942 l 597 942 l 597 843 m 690 678 l 690 0 l 583 0 l 574 93 q 285 -18 425 -18 q 100 169 100 -18 l 100 678 l 235 678 l 235 208 q 256 122 233 146 q 332 97 278 97 q 557 188 411 97 l 557 678 l 690 678 z "},"Ů":{"ha":925,"x_min":110,"x_max":815,"o":"m 357 1244 q 379 1266 357 1244 q 464 1288 401 1288 q 571 1244 526 1288 q 615 1139 615 1201 q 571 1034 615 1076 q 464 992 526 992 q 356 1034 400 992 q 313 1139 313 1076 q 357 1244 313 1201 m 520 1198 q 509 1209 520 1198 q 464 1221 497 1221 q 408 1199 431 1221 q 386 1139 386 1176 q 408 1081 386 1103 q 464 1058 431 1058 q 521 1081 499 1058 q 543 1139 543 1103 q 520 1198 543 1175 m 815 958 l 815 369 q 737 70 815 158 q 468 -18 658 -18 q 191 70 272 -18 q 110 369 110 158 l 110 958 l 249 958 l 249 369 q 296 164 249 222 q 463 106 343 106 q 628 164 581 106 q 676 369 676 222 l 676 958 l 815 958 z "},"ů":{"ha":794,"x_min":100,"x_max":690,"o":"m 401 749 q 294 791 338 749 q 250 896 250 833 q 294 1001 250 958 q 401 1044 339 1044 q 508 1001 464 1044 q 553 896 553 958 q 508 791 553 833 q 401 749 464 749 m 401 978 q 344 956 367 978 q 322 896 322 933 q 344 838 322 860 q 401 815 367 815 q 458 838 435 815 q 481 896 481 860 q 458 955 481 932 q 401 978 435 978 m 690 678 l 690 0 l 583 0 l 574 93 q 285 -18 425 -18 q 100 169 100 -18 l 100 678 l 235 678 l 235 208 q 256 122 233 146 q 332 97 278 97 q 557 188 411 97 l 557 678 l 690 678 z "},"Ű":{"ha":925,"x_min":110,"x_max":815,"o":"m 522 1224 l 331 1000 l 272 1044 l 425 1290 l 522 1224 m 756 1224 l 564 1000 l 507 1044 l 658 1290 l 756 1224 m 815 958 l 815 369 q 737 70 815 158 q 468 -18 658 -18 q 191 70 272 -18 q 110 369 110 158 l 110 958 l 249 958 l 249 369 q 296 164 249 222 q 463 106 343 106 q 628 164 581 106 q 676 369 676 222 l 676 958 l 815 958 z "},"ű":{"ha":794,"x_min":100,"x_max":693,"o":"m 267 757 l 208 801 l 361 1047 l 458 981 l 267 757 m 444 801 l 596 1047 l 693 981 l 501 757 l 444 801 m 557 678 l 690 678 l 690 0 l 583 0 l 574 93 q 285 -18 425 -18 q 100 169 100 -18 l 100 678 l 235 678 l 235 208 q 256 122 233 146 q 332 97 278 97 q 557 188 411 97 l 557 678 z "},"Ų":{"ha":925,"x_min":110,"x_max":815,"o":"m 815 958 l 815 369 q 747 83 815 172 q 517 -17 679 -7 q 421 -167 449 -94 q 431 -231 400 -215 q 525 -225 461 -246 l 540 -281 q 426 -308 475 -307 q 353 -291 376 -310 q 319 -242 329 -272 q 326 -174 310 -211 q 451 -18 354 -93 q 188 75 265 -14 q 110 369 110 164 l 110 958 l 249 958 l 249 369 q 296 164 249 222 q 463 106 343 106 q 628 164 581 106 q 676 369 676 222 l 676 958 l 815 958 z "},"ų":{"ha":794,"x_min":100,"x_max":715,"o":"m 700 -212 l 715 -268 q 601 -296 650 -294 q 528 -278 551 -297 q 494 -229 504 -260 q 501 -161 485 -199 q 632 0 528 -82 l 583 0 l 574 93 q 285 -18 425 -18 q 100 169 100 -18 l 100 678 l 235 678 l 235 208 q 256 122 233 146 q 332 97 278 97 q 557 188 411 97 l 557 678 l 690 678 l 690 0 l 694 0 q 594 -154 624 -85 q 606 -218 575 -203 q 700 -212 636 -233 z "},"Ŵ":{"ha":1321,"x_min":42,"x_max":1279,"o":"m 893 1068 l 846 1011 l 667 1146 l 656 1146 l 475 1011 l 431 1068 l 613 1249 l 710 1249 l 893 1068 m 1279 958 l 1096 40 q 1042 0 1083 0 l 888 0 q 833 42 843 0 l 694 746 q 675 854 681 818 l 646 854 l 625 746 l 488 42 q 469 12 485 24 q 433 0 453 0 l 278 0 q 225 40 235 0 l 42 958 l 189 958 l 326 228 q 343 106 331 204 l 375 106 q 396 228 382 165 l 533 913 q 586 958 543 958 l 735 958 q 769 945 754 958 q 788 913 783 932 l 924 226 q 944 106 935 171 l 976 106 q 985 165 979 125 q 994 225 990 206 l 1132 958 l 1279 958 z "},"ŵ":{"ha":1147,"x_min":32,"x_max":1115,"o":"m 806 821 l 760 763 l 581 897 l 569 897 l 389 763 l 344 821 l 525 1000 l 624 1000 l 806 821 m 1115 678 l 925 38 q 874 0 914 0 l 753 0 q 701 43 711 0 l 603 489 q 597 523 600 501 q 590 563 593 544 q 582 597 586 581 l 565 597 l 543 489 l 446 43 q 393 0 436 0 l 274 0 q 224 38 232 0 l 32 678 l 171 678 l 301 189 q 322 85 318 119 l 340 85 l 364 189 l 464 636 q 514 678 474 678 l 635 678 q 685 635 675 678 l 783 189 q 807 85 786 175 l 825 85 q 846 189 835 147 l 976 678 l 1115 678 z "},"Ŷ":{"ha":797,"x_min":13,"x_max":783,"o":"m 211 1013 l 167 1069 l 349 1249 l 446 1249 l 629 1069 l 582 1013 l 403 1146 l 392 1146 l 211 1013 m 468 332 l 468 0 l 329 0 l 329 333 l 13 958 l 160 958 l 353 565 q 394 454 364 542 l 404 454 q 446 564 433 540 l 639 958 l 783 958 l 468 332 z "},"ŷ":{"ha":740,"x_min":22,"x_max":717,"o":"m 188 763 l 143 821 l 325 1000 l 422 1000 l 604 821 l 558 763 l 379 897 l 368 897 l 188 763 m 717 678 l 454 -32 q 143 -285 360 -282 l 129 -196 q 254 -131 208 -172 q 328 -25 300 -89 l 338 0 l 310 0 q 263 35 271 0 l 22 678 l 167 678 l 335 185 q 358 101 351 142 l 378 101 q 406 185 392 139 l 572 678 l 717 678 z "},"Ÿ":{"ha":797,"x_min":13,"x_max":783,"o":"m 297 1063 l 251 1063 q 217 1100 217 1063 l 217 1175 q 251 1211 217 1211 l 297 1211 q 333 1175 333 1211 l 333 1100 q 297 1063 333 1063 m 543 1063 l 499 1063 q 463 1100 463 1063 l 463 1175 q 499 1211 463 1211 l 543 1211 q 581 1175 581 1211 l 581 1100 q 543 1063 581 1063 m 468 332 l 468 0 l 329 0 l 329 333 l 13 958 l 160 958 l 353 565 q 394 454 364 542 l 404 454 q 446 564 433 540 l 639 958 l 783 958 l 468 332 z "},"Ź":{"ha":789,"x_min":67,"x_max":724,"o":"m 347 1008 l 303 1071 l 549 1274 l 624 1171 l 347 1008 m 724 118 l 724 0 l 67 0 l 67 118 l 563 840 l 74 840 l 74 958 l 714 958 l 714 840 l 219 118 l 724 118 z "},"ź":{"ha":711,"x_min":67,"x_max":644,"o":"m 306 760 l 261 821 l 507 1025 l 582 922 l 306 760 m 644 110 l 644 0 l 67 0 l 67 110 l 490 568 l 72 568 l 72 678 l 639 678 l 639 568 l 217 110 l 644 110 z "},"Ż":{"ha":789,"x_min":67,"x_max":724,"o":"m 419 1050 l 376 1050 q 338 1089 338 1050 l 338 1167 q 376 1207 338 1207 l 419 1207 q 460 1167 460 1207 l 460 1089 q 419 1050 460 1050 m 724 118 l 724 0 l 67 0 l 67 118 l 563 840 l 74 840 l 74 958 l 714 958 l 714 840 l 219 118 l 724 118 z "},"ż":{"ha":711,"x_min":67,"x_max":644,"o":"m 378 800 l 335 800 q 296 840 296 800 l 296 918 q 335 957 296 957 l 378 957 q 418 918 418 957 l 418 840 q 378 800 418 800 m 644 110 l 644 0 l 67 0 l 67 110 l 490 568 l 72 568 l 72 678 l 639 678 l 639 568 l 217 110 l 644 110 z "},"Ž":{"ha":789,"x_min":67,"x_max":724,"o":"m 369 1032 l 169 1211 l 214 1268 l 394 1151 l 406 1151 l 585 1268 l 632 1211 l 431 1032 l 369 1032 m 724 118 l 724 0 l 67 0 l 67 118 l 563 840 l 74 840 l 74 958 l 714 958 l 714 840 l 219 118 l 724 118 z "},"ž":{"ha":711,"x_min":67,"x_max":644,"o":"m 326 782 l 126 961 l 172 1019 l 351 901 l 363 901 l 543 1019 l 589 961 l 389 782 l 326 782 m 644 110 l 644 0 l 67 0 l 67 110 l 490 568 l 72 568 l 72 678 l 639 678 l 639 568 l 217 110 l 644 110 z "},"ƒ":{"ha":624,"x_min":-60,"x_max":606,"o":"m 588 861 l 489 861 q 402 840 428 861 q 371 757 376 819 l 353 557 l 544 557 l 535 451 l 343 451 l 300 -7 q 242 -156 292 -106 q 89 -207 192 -207 q -60 -197 -3 -207 l -43 -96 l 50 -96 q 134 -72 108 -96 q 167 8 160 -49 l 208 451 l 71 451 l 78 551 l 218 556 l 238 772 q 457 974 256 974 q 606 963 554 974 l 588 861 z "},"Ș":{"ha":782,"x_min":74,"x_max":714,"o":"m 458 396 l 264 450 q 117 544 161 478 q 74 722 74 610 q 91 855 74 804 q 151 932 108 906 q 247 967 194 958 q 389 975 300 975 q 678 946 558 975 l 669 844 q 394 851 468 851 q 250 830 286 851 q 214 718 214 808 q 240 618 214 647 q 329 572 265 589 l 519 519 q 670 425 626 490 q 714 247 714 360 q 642 36 714 89 q 388 -17 569 -17 q 86 11 235 -17 l 96 114 q 390 107 313 107 q 535 135 499 108 q 572 249 572 161 q 547 351 572 322 q 458 396 522 379 m 378 -81 l 414 -81 q 447 -90 438 -81 q 457 -122 457 -99 l 457 -197 q 410 -385 456 -301 l 351 -369 q 365 -226 365 -289 q 331 -190 331 -226 l 331 -122 q 343 -90 332 -99 q 378 -81 354 -81 z "},"ș":{"ha":707,"x_min":67,"x_max":643,"o":"m 410 267 l 221 314 q 101 380 136 336 q 67 507 67 424 q 127 658 67 619 q 335 696 188 697 q 624 672 497 693 l 613 575 q 356 582 400 582 q 227 570 257 582 q 197 507 197 558 q 201 469 197 483 q 223 444 206 454 q 250 431 240 435 q 293 418 260 428 l 485 371 q 607 308 571 349 q 643 181 643 267 q 577 23 643 61 q 349 -15 511 -15 q 79 4 207 -15 l 89 104 q 321 97 167 97 q 474 113 435 97 q 513 181 513 129 q 507 217 513 203 q 483 242 501 232 q 455 255 465 251 q 410 267 444 258 m 344 -81 l 381 -81 q 414 -90 404 -81 q 424 -122 424 -99 l 424 -197 q 375 -385 422 -303 l 318 -369 q 332 -226 332 -289 q 297 -190 297 -226 l 297 -122 q 310 -90 299 -99 q 344 -81 321 -81 z "},"Ț":{"ha":811,"x_min":33,"x_max":779,"o":"m 779 835 l 475 835 l 475 0 l 335 0 l 335 835 l 33 835 l 33 958 l 779 958 l 779 835 m 372 -81 l 407 -81 q 442 -90 432 -81 q 451 -122 451 -99 l 451 -197 q 403 -385 450 -299 l 346 -369 q 360 -226 360 -289 q 325 -190 325 -226 l 325 -122 q 338 -90 326 -99 q 372 -81 349 -81 z "},"ț":{"ha":539,"x_min":35,"x_max":501,"o":"m 479 110 l 494 6 q 335 -12 431 -12 q 203 37 249 -12 q 158 178 158 86 l 158 574 l 35 574 l 35 671 l 158 676 l 158 876 l 292 876 l 292 678 l 501 678 l 501 574 l 292 574 l 292 196 q 312 129 292 149 q 381 110 332 110 l 479 110 m 301 -81 l 338 -81 q 371 -90 361 -81 q 381 -122 381 -99 l 381 -197 q 332 -385 379 -303 l 275 -369 q 289 -226 289 -289 q 254 -190 254 -226 l 254 -122 q 267 -90 256 -99 q 301 -81 278 -81 z "},"ˆ":{"ha":590,"x_min":67,"x_max":528,"o":"m 528 813 l 482 756 l 301 889 l 290 889 l 111 756 l 67 813 l 247 992 l 346 992 l 528 813 z "},"ˇ":{"ha":590,"x_min":65,"x_max":528,"o":"m 528 954 l 326 775 l 265 775 l 65 954 l 111 1011 l 290 894 l 301 894 l 482 1011 l 528 954 z "},"˘":{"ha":525,"x_min":51,"x_max":475,"o":"m 407 969 l 475 960 q 424 824 482 876 q 264 772 367 772 q 103 824 161 772 q 51 960 44 876 l 119 969 q 156 897 118 922 q 264 871 193 871 q 371 897 333 871 q 407 969 408 922 z "},"˙":{"ha":311,"x_min":94,"x_max":217,"o":"m 133 954 l 176 954 q 217 915 217 954 l 217 838 q 176 797 217 797 l 133 797 q 94 838 94 797 l 94 915 q 133 954 94 954 z "},"˚":{"ha":419,"x_min":58,"x_max":361,"o":"m 103 989 q 125 1010 103 989 q 210 1032 147 1032 q 317 989 272 1032 q 361 883 361 946 q 317 778 361 821 q 210 736 272 736 q 102 778 146 736 q 58 883 58 821 q 103 989 58 946 m 210 965 q 154 943 176 965 q 132 883 132 921 q 154 826 132 847 q 210 804 176 804 q 267 826 244 804 q 289 883 289 847 q 267 942 289 919 q 210 965 244 965 z "},"˛":{"ha":350,"x_min":56,"x_max":279,"o":"m 199 3 l 257 0 q 158 -154 185 -85 q 169 -217 138 -201 q 263 -212 200 -233 l 279 -268 q 184 -294 226 -289 q 116 -290 142 -300 q 73 -262 90 -281 q 56 -217 56 -243 q 65 -161 57 -190 q 199 3 93 -79 z "},"˜":{"ha":589,"x_min":72,"x_max":517,"o":"m 133 808 l 72 808 q 94 935 63 892 q 181 975 125 979 q 289 938 225 971 q 390 901 353 906 q 442 912 428 896 q 456 968 456 928 l 517 968 q 496 844 526 888 q 408 806 465 801 q 291 844 357 810 q 196 882 225 878 q 147 869 160 886 q 133 808 133 851 z "},"˝":{"ha":643,"x_min":75,"x_max":560,"o":"m 325 958 l 135 735 l 75 779 l 229 1025 l 325 958 m 560 958 l 368 735 l 311 779 l 463 1025 l 560 958 z "},"Δ":{"ha":874,"x_min":32,"x_max":842,"o":"m 842 56 l 842 0 l 32 0 l 32 56 l 367 958 l 507 958 l 842 56 m 678 113 l 468 713 q 438 824 465 718 q 422 768 432 806 q 406 711 411 731 l 193 113 l 678 113 z "},"Ω":{"ha":999,"x_min":72,"x_max":926,"o":"m 72 122 l 208 122 q 300 111 257 122 q 148 283 193 190 q 104 521 103 376 q 197 865 104 753 q 500 976 290 976 q 801 864 708 976 q 894 519 894 751 q 849 281 894 372 q 697 111 804 190 q 789 122 742 122 l 926 122 l 926 0 l 571 0 l 571 117 q 710 274 671 188 q 750 503 749 361 q 691 773 749 692 q 499 854 633 854 q 305 773 361 854 q 249 500 249 692 q 288 273 249 354 q 426 117 328 192 l 426 0 l 72 0 l 72 122 z "},"μ":{"ha":831,"x_min":115,"x_max":710,"o":"m 606 0 l 593 101 q 329 -18 453 -18 q 225 4 272 -18 q 233 -85 233 -40 l 233 -276 l 115 -276 l 115 193 l 115 678 l 250 678 l 250 208 q 360 110 250 110 q 575 185 446 110 l 575 678 l 710 678 l 710 0 l 606 0 z "},"π":{"ha":893,"x_min":38,"x_max":857,"o":"m 857 569 l 731 569 l 731 0 l 596 0 l 596 569 l 297 569 l 297 0 l 164 0 l 164 569 l 38 569 l 38 678 l 857 678 l 857 569 z "},"Ё":{"ha":779,"x_min":108,"x_max":711,"o":"m 328 1090 l 283 1090 q 247 1126 247 1090 l 247 1203 q 283 1239 247 1239 l 328 1239 q 364 1203 364 1239 l 364 1126 q 328 1090 364 1090 m 574 1090 l 531 1090 q 493 1126 493 1090 l 493 1203 q 531 1239 493 1239 l 574 1239 q 611 1203 611 1239 l 611 1126 q 574 1090 611 1090 m 706 115 l 711 8 q 300 -3 585 -3 q 160 44 211 -3 q 108 169 108 90 l 108 789 q 160 915 108 868 q 300 961 211 961 q 711 950 585 961 l 706 842 l 324 842 q 265 822 282 842 q 247 753 247 801 l 247 561 l 651 561 l 651 449 l 247 449 l 247 204 q 265 135 247 156 q 324 115 282 115 l 706 115 z "},"Ђ":{"ha":1046,"x_min":33,"x_max":989,"o":"m 475 835 l 475 542 q 749 617 601 617 q 925 555 861 617 q 989 325 989 493 q 897 64 989 142 q 632 -7 804 -14 l 619 94 q 797 148 743 103 q 850 311 850 193 q 817 463 850 428 q 703 497 785 497 q 475 432 597 497 l 475 0 l 335 0 l 335 835 l 33 835 l 33 958 l 779 958 l 779 835 l 475 835 z "},"Ѓ":{"ha":719,"x_min":114,"x_max":693,"o":"m 635 1171 l 358 1008 l 313 1071 l 558 1274 l 635 1171 m 114 0 l 114 772 q 165 908 114 856 q 294 961 215 961 q 693 949 569 961 l 688 842 l 342 842 q 273 821 293 842 q 253 746 253 800 l 253 0 l 114 0 z "},"Є":{"ha":803,"x_min":82,"x_max":747,"o":"m 733 122 l 747 17 q 469 -17 636 -17 q 169 94 256 -17 q 82 479 82 206 q 169 864 82 753 q 469 975 256 975 q 739 947 624 975 l 724 839 q 469 850 613 850 q 290 786 344 850 q 226 561 235 722 l 631 561 l 631 453 l 225 453 q 281 183 226 258 q 469 108 335 108 q 733 122 636 108 z "},"Ѕ":{"ha":782,"x_min":74,"x_max":714,"o":"m 458 396 l 264 450 q 117 544 161 478 q 74 722 74 610 q 91 855 74 804 q 151 932 108 906 q 247 967 194 958 q 389 975 300 975 q 678 946 558 975 l 669 844 q 394 851 468 851 q 250 830 286 851 q 214 718 214 808 q 240 618 214 647 q 329 572 265 589 l 519 519 q 670 425 626 490 q 714 247 714 360 q 642 36 714 89 q 388 -17 569 -17 q 86 11 235 -17 l 96 114 q 390 107 313 107 q 535 135 499 108 q 572 249 572 161 q 547 351 572 322 q 458 396 522 379 z "},"І":{"ha":372,"x_min":117,"x_max":256,"o":"m 256 0 l 117 0 l 117 958 l 256 958 l 256 0 z "},"Ї":{"ha":372,"x_min":4,"x_max":368,"o":"m 40 1211 l 85 1211 q 121 1174 121 1211 l 121 1099 q 85 1061 121 1061 l 40 1061 q 4 1099 4 1061 l 4 1174 q 40 1211 4 1211 m 288 1211 l 331 1211 q 368 1174 368 1211 l 368 1099 q 331 1061 368 1061 l 288 1061 q 250 1099 250 1061 l 250 1174 q 288 1211 250 1211 m 256 0 l 117 0 l 117 958 l 256 958 l 256 0 z "},"Ј":{"ha":476,"x_min":39,"x_max":364,"o":"m 364 958 l 364 210 q 315 43 364 100 q 175 -12 267 -14 q 39 6 93 -12 l 54 106 l 122 106 q 225 203 225 106 l 225 958 l 364 958 z "},"Љ":{"ha":1349,"x_min":29,"x_max":1288,"o":"m 781 579 l 968 579 q 1217 514 1147 579 q 1288 283 1288 449 q 1221 51 1288 114 q 989 -11 1154 -11 q 643 0 767 -11 l 644 7 l 644 846 l 474 846 q 388 751 396 846 q 347 377 363 481 q 293 185 331 274 q 194 46 251 89 q 40 -3 136 3 l 29 93 q 163 224 110 122 q 180 264 172 243 q 194 303 188 285 q 206 349 200 321 q 216 393 213 376 q 224 444 219 410 q 230 497 228 479 q 236 559 232 515 q 242 622 240 603 q 247 694 243 640 q 253 772 251 749 q 461 958 265 958 l 781 958 l 781 579 m 781 111 l 968 110 q 1112 144 1076 110 q 1147 285 1147 179 q 1112 426 1147 388 q 968 464 1076 464 l 781 464 l 781 111 z "},"Њ":{"ha":1358,"x_min":117,"x_max":1297,"o":"m 790 578 l 976 578 q 1227 513 1157 578 q 1297 281 1297 449 q 1231 51 1297 113 q 999 -11 1164 -11 q 653 0 775 -11 l 653 464 l 256 464 l 256 0 l 117 0 l 117 958 l 256 958 l 256 578 l 653 578 l 653 958 l 790 958 l 790 578 m 790 111 l 976 110 q 1122 144 1086 110 q 1157 283 1157 179 q 1122 425 1157 386 q 976 464 1086 464 l 790 464 l 790 111 z "},"Ћ":{"ha":1074,"x_min":33,"x_max":1000,"o":"m 475 835 l 475 540 q 776 617 628 617 q 946 563 892 617 q 1000 397 1000 510 l 1000 0 l 861 0 l 861 369 q 832 467 861 439 q 729 494 803 494 q 475 429 607 494 l 475 0 l 335 0 l 335 835 l 33 835 l 33 958 l 779 958 l 779 835 l 475 835 z "},"Ќ":{"ha":840,"x_min":117,"x_max":800,"o":"m 375 1008 l 329 1071 l 575 1274 l 651 1171 l 375 1008 m 465 503 l 465 497 q 517 486 493 494 q 559 469 540 478 q 597 440 578 461 q 629 406 617 419 q 659 358 642 392 q 686 306 676 325 q 713 241 696 288 q 739 171 731 194 q 768 89 747 147 q 800 0 789 31 l 654 0 q 544 293 569 240 q 410 433 488 408 q 342 443 379 443 l 246 443 q 256 344 256 385 l 256 0 l 117 0 l 117 958 l 256 958 l 256 664 q 246 556 256 617 l 342 556 q 424 574 388 556 q 488 626 461 593 q 540 708 515 658 q 585 815 564 758 q 631 944 606 872 q 635 958 633 954 l 775 958 q 664 664 696 726 q 499 508 599 533 q 465 503 483 504 z "},"Ѝ":{"ha":964,"x_min":117,"x_max":847,"o":"m 557 1071 l 513 1008 l 236 1171 l 313 1274 l 557 1071 m 847 0 l 713 0 l 713 676 q 721 790 713 746 l 713 790 q 663 682 693 739 l 260 0 l 117 0 l 117 958 l 250 958 l 250 289 q 242 171 250 231 l 249 171 q 303 279 272 228 l 703 958 l 847 958 l 847 0 z "},"Ў":{"ha":788,"x_min":26,"x_max":775,"o":"m 538 1231 l 606 1219 q 554 1085 613 1138 q 394 1033 496 1033 q 233 1085 292 1033 q 182 1219 175 1138 l 249 1231 q 286 1158 249 1183 q 394 1132 324 1132 q 500 1158 463 1132 q 538 1231 538 1183 m 775 958 l 521 238 q 429 59 478 121 q 299 -10 381 -3 q 118 11 213 -17 l 133 113 q 203 109 178 110 q 253 108 228 108 q 292 115 278 108 q 318 128 306 122 q 340 153 331 135 q 358 188 350 171 q 379 238 367 204 l 396 278 l 344 278 q 280 294 303 278 q 243 347 257 310 l 26 958 l 168 958 l 354 415 q 383 394 364 394 l 436 394 l 633 958 l 775 958 z "},"Џ":{"ha":939,"x_min":117,"x_max":822,"o":"m 822 958 l 822 0 l 528 0 l 521 -210 l 426 -210 l 418 0 l 117 0 l 117 958 l 256 958 l 256 113 l 682 113 l 682 958 l 822 958 z "},"А":{"ha":869,"x_min":13,"x_max":857,"o":"m 625 289 l 243 289 l 154 0 l 13 0 l 313 921 q 364 958 324 958 l 506 958 q 556 921 547 958 l 857 0 l 714 0 l 625 289 m 589 410 l 476 774 q 465 813 472 786 q 453 851 457 839 l 415 851 l 393 774 l 281 410 l 589 410 z "},"Б":{"ha":833,"x_min":117,"x_max":767,"o":"m 256 551 l 446 551 q 697 489 626 551 q 767 267 767 426 q 751 139 767 190 q 712 58 736 88 q 640 12 688 28 q 546 -8 593 -4 q 421 -12 499 -12 q 119 0 258 -12 l 117 0 l 117 958 q 418 968 294 968 q 713 958 542 968 l 701 842 l 256 842 l 256 551 m 256 108 l 446 107 q 592 140 557 107 q 626 274 626 172 q 591 408 626 372 q 446 443 556 443 l 256 443 l 256 108 z "},"В":{"ha":864,"x_min":117,"x_max":786,"o":"m 594 500 l 594 494 q 742 422 699 485 q 786 239 786 358 q 717 42 786 94 q 478 -11 649 -11 q 117 0 243 -11 l 117 958 q 436 969 229 969 q 687 917 617 969 q 757 719 757 865 q 718 562 757 615 q 594 500 679 508 m 253 550 l 447 550 q 585 581 547 550 q 624 703 624 613 q 582 822 624 792 q 429 851 540 851 l 253 851 l 253 550 m 253 108 l 457 107 q 606 138 567 107 q 646 263 646 169 q 603 404 646 367 q 449 443 561 442 l 253 443 l 253 108 z "},"Г":{"ha":719,"x_min":114,"x_max":693,"o":"m 114 0 l 114 772 q 165 908 114 856 q 294 961 215 961 q 693 949 569 961 l 688 842 l 342 842 q 273 821 293 842 q 253 746 253 800 l 253 0 l 114 0 z "},"Д":{"ha":972,"x_min":31,"x_max":929,"o":"m 929 113 l 929 -210 l 835 -210 l 822 0 l 139 0 l 126 -210 l 31 -210 l 31 113 l 125 113 q 261 772 236 356 q 319 908 264 858 q 467 958 374 958 l 811 958 l 811 113 l 929 113 m 672 113 l 672 846 l 492 846 q 420 825 442 846 q 394 751 399 804 q 350 388 379 536 q 258 113 321 240 l 672 113 z "},"Е":{"ha":779,"x_min":108,"x_max":711,"o":"m 706 115 l 711 8 q 300 -3 585 -3 q 160 44 211 -3 q 108 169 108 90 l 108 789 q 160 915 108 868 q 300 961 211 961 q 711 950 585 961 l 706 842 l 324 842 q 265 822 282 842 q 247 753 247 801 l 247 561 l 651 561 l 651 449 l 247 449 l 247 204 q 265 135 247 156 q 324 115 282 115 l 706 115 z "},"Ж":{"ha":1269,"x_min":40,"x_max":1229,"o":"m 894 503 l 894 497 q 969 480 936 493 q 1033 434 1003 467 q 1081 376 1063 401 q 1126 286 1100 350 q 1166 184 1153 222 q 1211 53 1179 146 q 1229 0 1224 18 l 1082 0 q 968 299 993 246 q 836 436 911 413 q 781 443 811 443 l 694 443 q 703 344 703 393 l 703 0 l 571 0 l 571 344 q 581 443 571 385 l 488 443 q 369 393 419 443 q 294 287 319 343 q 213 71 269 231 q 186 0 196 25 l 40 0 q 58 53 47 18 q 97 166 85 131 q 132 258 110 201 q 169 341 154 315 q 208 401 185 367 q 253 451 231 436 q 307 480 276 467 q 374 497 338 493 l 374 503 q 290 528 326 508 q 224 585 253 549 q 174 667 196 622 q 128 778 151 713 q 82 907 104 843 q 65 958 71 940 l 207 958 q 321 675 286 738 q 485 556 388 556 l 579 556 q 571 664 571 608 l 571 958 l 703 958 l 703 664 q 696 556 703 599 l 782 556 q 897 610 846 556 q 972 722 947 664 q 1049 921 997 779 q 1063 958 1058 946 l 1204 958 q 1092 661 1125 726 q 922 507 1024 531 q 894 503 910 504 z "},"З":{"ha":765,"x_min":49,"x_max":686,"o":"m 83 840 l 72 947 q 342 969 196 969 q 590 917 521 969 q 658 719 658 865 q 620 562 658 615 q 497 500 582 508 l 497 494 q 643 422 600 485 q 686 239 686 358 q 618 42 686 94 q 383 -11 550 -11 q 49 22 186 -11 l 61 122 q 360 103 217 103 q 505 135 465 103 q 544 263 544 167 q 502 404 544 367 q 350 442 460 442 l 186 442 l 186 551 l 350 551 q 483 583 446 551 q 519 703 519 614 q 480 826 519 794 q 333 857 440 857 q 83 840 240 857 z "},"И":{"ha":964,"x_min":117,"x_max":847,"o":"m 847 0 l 713 0 l 713 676 q 721 790 713 746 l 713 790 q 663 682 693 739 l 260 0 l 117 0 l 117 958 l 250 958 l 250 289 q 242 171 250 231 l 249 171 q 303 279 272 228 l 703 958 l 847 958 l 847 0 z "},"Й":{"ha":964,"x_min":117,"x_max":847,"o":"m 596 1228 l 696 1228 q 645 1089 703 1144 q 486 1033 588 1033 q 324 1089 383 1033 q 272 1228 265 1144 l 374 1228 q 403 1137 374 1168 q 486 1106 432 1106 q 596 1228 596 1106 m 847 0 l 713 0 l 713 676 q 721 790 713 746 l 713 790 q 663 682 693 739 l 260 0 l 117 0 l 117 958 l 250 958 l 250 289 q 242 171 250 231 l 249 171 q 303 279 272 228 l 703 958 l 847 958 l 847 0 z "},"К":{"ha":840,"x_min":117,"x_max":800,"o":"m 465 503 l 465 497 q 517 486 493 494 q 559 469 540 478 q 597 440 578 461 q 629 406 617 419 q 659 358 642 392 q 686 306 676 325 q 713 241 696 288 q 739 171 731 194 q 768 89 747 147 q 800 0 789 31 l 654 0 q 544 293 569 240 q 410 433 488 408 q 342 443 379 443 l 246 443 q 256 344 256 385 l 256 0 l 117 0 l 117 958 l 256 958 l 256 664 q 246 556 256 617 l 342 556 q 424 574 388 556 q 488 626 461 593 q 540 708 515 658 q 585 815 564 758 q 631 944 606 872 q 635 958 633 954 l 775 958 q 664 664 696 726 q 499 508 599 533 q 465 503 483 504 z "},"Л":{"ha":910,"x_min":14,"x_max":793,"o":"m 793 958 l 793 0 l 653 0 l 653 846 l 476 846 q 378 751 386 846 q 338 377 354 483 q 282 185 321 271 q 25 -3 199 -7 l 14 106 q 151 222 111 132 q 204 415 188 308 q 242 776 221 522 q 440 958 258 958 l 793 958 z "},"М":{"ha":1224,"x_min":99,"x_max":1126,"o":"m 879 958 l 1031 958 q 1088 901 1085 958 l 1126 0 l 988 0 l 954 843 l 926 843 l 732 161 q 672 114 719 114 l 551 114 q 490 161 503 114 l 294 843 l 268 843 l 236 0 l 99 0 l 135 901 q 192 958 138 958 l 346 958 q 404 911 389 958 l 567 350 q 599 221 581 300 l 624 221 q 657 351 640 294 l 818 911 q 879 958 833 958 z "},"Н":{"ha":931,"x_min":117,"x_max":814,"o":"m 814 958 l 814 0 l 674 0 l 674 451 l 256 451 l 256 0 l 117 0 l 117 958 l 256 958 l 256 571 l 674 571 l 674 958 l 814 958 z "},"О":{"ha":929,"x_min":82,"x_max":847,"o":"m 464 976 q 763 868 678 976 q 847 479 847 760 q 763 90 847 199 q 464 -18 678 -18 q 167 90 251 -18 q 82 479 82 199 q 167 868 82 760 q 464 976 251 976 m 650 772 q 624 813 650 772 q 464 853 599 853 q 278 772 329 853 q 228 479 228 692 q 278 186 228 267 q 464 106 329 106 q 650 186 599 106 q 701 479 701 267 q 650 772 701 692 z "},"П":{"ha":932,"x_min":117,"x_max":815,"o":"m 815 958 l 815 0 l 676 0 l 676 846 l 256 846 l 256 0 l 117 0 l 117 958 l 815 958 z "},"Р":{"ha":822,"x_min":117,"x_max":764,"o":"m 117 0 l 117 958 q 451 971 235 971 q 697 907 629 971 q 764 668 764 843 q 699 428 764 492 q 467 364 635 364 q 257 376 363 364 l 257 0 l 117 0 m 257 483 l 447 483 q 586 522 549 485 q 624 668 624 560 q 586 814 624 776 q 447 851 549 851 q 257 850 308 851 l 257 483 z "},"С":{"ha":794,"x_min":82,"x_max":746,"o":"m 732 122 l 746 17 q 461 -17 631 -17 q 167 94 251 -17 q 82 479 82 206 q 167 864 82 753 q 461 975 251 975 q 726 947 611 975 l 713 840 q 461 851 601 851 q 278 771 329 851 q 228 479 228 690 q 278 188 228 268 q 461 107 329 107 q 732 122 638 107 z "},"Т":{"ha":811,"x_min":33,"x_max":779,"o":"m 779 835 l 475 835 l 475 0 l 335 0 l 335 835 l 33 835 l 33 958 l 779 958 l 779 835 z "},"У":{"ha":788,"x_min":26,"x_max":775,"o":"m 775 958 l 521 238 q 429 59 478 121 q 299 -10 381 -3 q 118 11 213 -17 l 133 113 q 203 109 178 110 q 253 108 228 108 q 292 115 278 108 q 318 128 306 122 q 340 153 331 135 q 358 188 350 171 q 379 238 367 204 l 396 278 l 344 278 q 280 294 303 278 q 243 347 257 310 l 26 958 l 168 958 l 354 415 q 383 394 364 394 l 436 394 l 633 958 l 775 958 z "},"Ф":{"ha":1142,"x_min":64,"x_max":1078,"o":"m 640 1033 l 640 900 q 979 799 882 890 q 1078 489 1076 708 q 979 184 1076 274 q 640 85 882 94 l 640 -49 l 501 -49 l 501 85 q 162 183 260 93 q 64 489 64 274 q 162 800 64 708 q 501 900 260 892 l 501 1033 l 640 1033 m 507 200 l 507 785 q 271 715 335 778 q 207 489 207 651 q 271 269 207 331 q 507 200 335 207 m 635 785 l 635 200 q 869 270 806 208 q 935 489 933 332 q 869 715 933 651 q 635 785 806 778 z "},"Х":{"ha":856,"x_min":32,"x_max":824,"o":"m 443 444 l 410 444 l 182 0 l 32 0 l 294 496 l 50 958 l 199 958 l 408 550 l 446 550 l 654 958 l 806 958 l 560 496 l 824 0 l 672 0 l 443 444 z "},"Ц":{"ha":965,"x_min":117,"x_max":921,"o":"m 921 113 l 921 -210 l 826 -210 l 814 0 l 117 0 l 117 958 l 256 958 l 256 113 l 664 113 l 664 958 l 804 958 l 804 113 l 921 113 z "},"Ч":{"ha":874,"x_min":81,"x_max":758,"o":"m 758 958 l 758 0 l 619 0 l 619 428 q 299 344 463 344 q 134 399 188 344 q 81 564 81 453 l 81 958 l 219 958 l 219 592 q 248 497 218 526 q 349 468 278 468 q 619 535 475 468 l 619 958 l 758 958 z "},"Ш":{"ha":1299,"x_min":117,"x_max":1182,"o":"m 1182 958 l 1182 0 l 117 0 l 117 958 l 253 958 l 253 113 l 582 113 l 582 958 l 717 958 l 717 113 l 1046 113 l 1046 958 l 1182 958 z "},"Щ":{"ha":1333,"x_min":117,"x_max":1290,"o":"m 1290 -210 l 1196 -210 l 1183 0 l 117 0 l 117 958 l 253 958 l 253 113 l 578 113 l 578 958 l 713 958 l 713 113 l 1038 113 l 1038 958 l 1174 958 l 1174 113 l 1290 113 l 1290 -210 z "},"Ъ":{"ha":1039,"x_min":32,"x_max":978,"o":"m 472 579 l 658 579 q 908 514 839 579 q 978 281 978 449 q 911 51 978 113 q 679 -11 844 -11 q 332 0 456 -11 l 332 835 l 32 835 l 32 958 l 472 958 l 472 579 m 472 111 l 658 110 q 802 144 767 110 q 838 283 838 179 q 802 425 838 386 q 658 464 767 464 l 472 464 l 472 111 z "},"Ы":{"ha":1185,"x_min":117,"x_max":1069,"o":"m 256 579 l 444 579 q 695 514 625 579 q 765 281 765 449 q 699 51 765 113 q 467 -11 632 -11 q 119 0 243 -11 l 117 0 l 117 958 l 256 958 l 256 579 m 1069 958 l 1069 0 l 931 0 l 931 958 l 1069 958 m 256 111 l 444 110 q 590 144 554 110 q 625 283 625 179 q 590 425 625 386 q 444 464 554 464 l 256 464 l 256 111 z "},"Ь":{"ha":826,"x_min":117,"x_max":765,"o":"m 256 579 l 444 579 q 695 514 625 579 q 765 281 765 449 q 699 51 765 113 q 467 -11 632 -11 q 119 0 243 -11 l 117 0 l 117 958 l 256 958 l 256 579 m 256 111 l 444 110 q 590 144 554 110 q 625 283 625 179 q 590 425 625 386 q 444 464 554 464 l 256 464 l 256 111 z "},"Э":{"ha":803,"x_min":56,"x_max":721,"o":"m 78 839 l 64 947 q 332 975 179 975 q 634 864 547 975 q 721 479 721 753 q 634 94 721 206 q 332 -17 547 -17 q 56 17 167 -17 l 69 122 q 333 108 167 108 q 522 183 468 108 q 578 453 576 258 l 172 453 l 172 561 l 575 561 q 513 786 567 722 q 333 850 458 850 q 78 839 190 850 z "},"Ю":{"ha":1296,"x_min":118,"x_max":1214,"o":"m 257 554 l 467 554 q 558 883 476 790 q 829 976 639 976 q 1128 868 1043 976 q 1214 479 1214 760 q 1128 90 1214 199 q 829 -18 1043 -18 q 552 83 633 -18 q 467 442 471 183 l 257 442 l 257 0 l 118 0 l 118 958 l 257 958 l 257 554 m 829 106 q 1015 186 964 106 q 1067 479 1065 267 q 1015 772 1065 692 q 829 853 964 853 q 651 772 700 853 q 603 479 603 692 q 651 186 603 267 q 829 106 700 106 z "},"Я":{"ha":854,"x_min":57,"x_max":738,"o":"m 276 429 l 275 436 q 137 512 179 450 q 96 690 94 574 q 167 906 96 842 q 404 971 239 971 q 738 958 621 971 l 738 0 l 599 0 l 599 385 l 406 383 q 285 288 311 383 l 204 0 l 57 0 l 142 293 q 276 429 174 404 m 599 503 l 599 850 q 407 851 547 851 q 273 816 310 851 q 235 682 236 781 q 273 545 235 588 q 404 503 311 503 l 599 503 z "},"а":{"ha":771,"x_min":69,"x_max":669,"o":"m 113 565 l 100 664 q 429 696 281 696 q 611 646 553 696 q 669 472 669 596 l 669 0 l 563 0 l 549 107 q 278 -12 432 -12 q 126 38 183 -12 q 69 179 69 89 l 69 250 q 120 375 69 331 q 263 419 171 419 l 535 419 l 535 472 q 506 558 533 535 q 400 582 478 582 q 113 565 321 582 m 206 232 l 206 196 q 229 124 206 146 q 306 101 253 101 q 535 196 426 101 l 535 318 l 288 318 q 224 294 243 317 q 206 232 206 272 z "},"б":{"ha":801,"x_min":94,"x_max":725,"o":"m 661 1025 l 693 919 q 594 873 642 888 q 488 849 547 858 q 392 831 428 840 q 208 619 236 786 q 194 519 199 567 l 197 519 q 240 586 217 560 q 319 635 264 613 q 454 657 374 657 q 664 582 603 657 q 725 332 725 507 q 657 70 725 157 q 410 -17 589 -17 q 264 6 324 -17 q 171 62 204 28 q 120 156 138 96 q 99 270 103 217 q 94 408 94 324 q 103 605 94 528 q 138 752 113 682 q 215 865 164 822 q 347 933 267 908 q 449 956 388 946 q 560 980 510 965 q 661 1025 611 994 m 419 543 q 271 494 308 543 q 233 331 233 444 q 272 147 233 197 q 410 96 311 96 q 547 147 508 96 q 585 329 585 197 q 550 499 585 454 q 419 543 515 543 z "},"в":{"ha":771,"x_min":106,"x_max":699,"o":"m 529 350 l 529 346 q 660 295 621 339 q 699 168 699 251 q 638 28 699 65 q 426 -10 576 -10 q 106 -1 224 -10 l 106 676 q 389 685 211 685 q 613 647 550 685 q 675 504 675 610 q 640 394 675 432 q 529 350 606 356 m 232 397 l 399 397 q 515 417 482 397 q 547 492 547 436 q 511 563 547 544 q 382 581 475 581 l 232 581 l 232 397 m 232 97 l 406 96 q 530 116 496 96 q 564 196 564 136 q 527 278 564 256 q 399 301 490 301 l 232 301 l 232 97 z "},"г":{"ha":649,"x_min":103,"x_max":619,"o":"m 103 0 l 103 532 q 257 682 103 682 q 619 669 508 682 l 615 575 l 314 575 q 255 556 274 575 q 236 496 236 538 l 236 0 l 103 0 z "},"д":{"ha":825,"x_min":39,"x_max":778,"o":"m 778 108 l 778 -200 l 689 -200 l 678 0 l 139 0 l 128 -200 l 39 -200 l 39 108 l 121 108 q 217 517 200 278 q 397 678 228 678 l 681 678 l 681 108 l 778 108 m 553 574 l 419 574 q 338 494 344 574 q 240 108 321 257 l 553 108 l 553 574 z "},"е":{"ha":754,"x_min":74,"x_max":686,"o":"m 521 274 l 217 274 q 272 132 226 168 q 419 96 317 96 q 657 113 510 96 l 669 24 q 401 -17 578 -17 q 149 65 224 -17 q 74 340 74 146 q 147 617 74 538 q 389 696 221 696 q 614 639 543 696 q 686 468 685 582 q 521 274 686 274 m 214 378 l 485 378 q 550 468 553 378 q 516 556 550 531 q 396 582 482 582 q 256 540 294 582 q 214 378 218 497 z "},"ж":{"ha":1104,"x_min":44,"x_max":1060,"o":"m 794 356 l 794 351 q 859 338 832 347 q 910 306 886 329 q 950 263 935 282 q 986 194 965 243 q 1019 111 1007 146 q 1060 0 1032 76 l 922 0 q 821 233 850 189 q 700 301 776 300 l 607 301 q 614 238 614 264 l 614 0 l 494 0 l 494 238 q 501 301 494 264 l 403 301 q 294 247 331 300 q 190 25 257 193 q 181 0 183 8 l 44 0 q 74 85 64 58 q 101 155 85 113 q 126 215 117 197 q 153 260 136 233 q 183 299 169 288 q 217 323 197 310 q 260 342 238 336 q 310 351 282 349 l 310 356 q 256 369 281 358 q 215 388 232 379 q 178 425 197 397 q 149 467 158 453 q 120 527 139 481 q 94 594 101 574 q 64 678 88 614 l 199 678 q 236 578 222 613 q 270 504 250 544 q 308 446 290 464 q 352 415 326 428 q 408 403 378 403 l 501 403 q 494 481 494 444 l 494 678 l 614 678 l 614 481 q 607 403 614 433 l 694 403 q 807 461 768 403 q 904 678 846 519 l 1040 678 q 1010 594 1017 614 q 984 527 1003 574 q 956 467 965 481 q 926 425 946 453 q 890 388 907 397 q 848 369 872 379 q 794 356 824 358 z "},"з":{"ha":696,"x_min":51,"x_max":622,"o":"m 85 565 l 74 667 q 288 690 161 690 q 530 653 463 690 q 597 508 597 617 q 565 394 597 432 q 456 350 533 357 l 456 346 q 583 297 544 339 q 622 168 622 254 q 556 24 622 61 q 328 -12 490 -12 q 51 10 160 -12 l 61 111 q 318 100 194 100 q 449 119 415 100 q 483 196 483 139 q 448 275 483 254 q 319 296 413 296 l 151 296 l 151 394 l 318 394 q 434 415 404 394 q 464 492 464 435 q 428 560 464 543 q 290 576 392 576 q 85 565 169 576 z "},"и":{"ha":817,"x_min":107,"x_max":710,"o":"m 710 0 l 589 0 l 589 429 q 591 480 589 447 q 593 524 593 513 l 590 524 q 542 440 576 486 l 215 0 l 107 0 l 107 678 l 226 678 l 226 247 q 222 156 226 206 l 226 156 q 274 236 253 208 l 601 678 l 710 678 l 710 0 z "},"й":{"ha":817,"x_min":107,"x_max":710,"o":"m 514 978 l 615 978 q 564 839 622 894 q 406 783 506 783 q 244 839 303 783 q 192 978 185 894 l 293 978 q 406 857 293 857 q 514 978 514 857 m 710 0 l 589 0 l 589 429 q 591 480 589 447 q 593 524 593 513 l 590 524 q 542 440 576 486 l 215 0 l 107 0 l 107 678 l 226 678 l 226 247 q 222 156 226 206 l 226 156 q 274 236 253 208 l 601 678 l 710 678 l 710 0 z "},"к":{"ha":750,"x_min":107,"x_max":706,"o":"m 432 354 l 432 351 q 491 338 465 347 q 537 319 517 329 q 576 283 557 308 q 609 237 596 257 q 640 173 622 217 q 670 97 658 129 q 706 0 682 65 l 565 0 q 527 99 539 69 q 496 173 515 129 q 463 233 476 217 q 427 269 449 250 q 382 294 406 289 q 326 300 358 300 l 233 300 q 240 238 240 265 l 240 0 l 107 0 l 107 678 l 240 678 l 240 482 q 233 404 240 446 l 318 404 q 450 463 407 404 q 547 678 493 522 l 686 678 q 654 592 663 615 q 627 525 646 569 q 597 465 608 481 q 567 424 586 450 q 531 388 549 397 q 488 368 513 378 q 432 354 463 358 z "},"л":{"ha":788,"x_min":26,"x_max":681,"o":"m 681 678 l 681 0 l 546 0 l 546 574 l 410 574 q 351 556 368 574 q 326 490 333 538 q 264 147 293 232 q 40 -7 214 -11 l 26 96 q 105 127 81 108 q 144 185 129 146 q 200 514 176 269 q 253 638 210 597 q 385 678 297 678 l 681 678 z "},"м":{"ha":1046,"x_min":92,"x_max":954,"o":"m 739 678 l 876 678 q 926 628 926 678 l 954 0 l 829 0 l 804 576 l 782 576 l 624 119 q 572 76 611 76 l 471 76 q 418 119 433 76 l 261 576 l 239 576 l 215 0 l 92 0 l 118 628 q 169 678 118 678 l 306 678 q 357 635 344 678 l 485 261 q 511 164 500 217 l 532 164 q 544 209 535 175 q 558 261 553 243 l 686 635 q 739 678 701 678 z "},"н":{"ha":813,"x_min":107,"x_max":707,"o":"m 707 678 l 707 0 l 574 0 l 574 308 l 239 308 l 239 0 l 107 0 l 107 678 l 239 678 l 239 411 l 574 411 l 574 678 l 707 678 z "},"о":{"ha":796,"x_min":74,"x_max":722,"o":"m 148 614 q 185 655 148 614 q 399 696 222 696 q 649 614 575 696 q 722 338 722 532 q 649 63 722 143 q 399 -18 575 -18 q 147 63 221 -18 q 74 338 74 144 q 148 614 74 532 m 543 531 q 524 556 543 531 q 399 582 504 582 q 254 531 293 582 q 215 338 215 479 q 254 146 215 197 q 399 94 293 94 q 542 146 503 94 q 582 338 582 197 q 543 531 582 479 z "},"п":{"ha":801,"x_min":107,"x_max":694,"o":"m 694 678 l 694 0 l 564 0 l 564 569 l 238 569 l 238 0 l 107 0 l 107 678 l 694 678 z "},"р":{"ha":815,"x_min":107,"x_max":740,"o":"m 218 678 l 228 574 q 358 663 281 629 q 508 696 435 696 q 685 605 629 696 q 740 335 740 514 q 678 63 740 143 q 481 -17 615 -17 q 236 51 344 -17 q 240 -86 242 -18 l 240 -276 l 107 -276 l 107 678 l 218 678 m 240 481 l 240 136 q 446 100 378 100 q 567 148 533 100 q 601 336 601 196 q 570 525 601 471 q 463 579 539 579 q 363 556 413 579 q 240 481 313 533 z "},"с":{"ha":688,"x_min":74,"x_max":635,"o":"m 621 111 l 635 21 q 397 -17 531 -17 q 147 63 219 -17 q 74 339 74 143 q 147 615 74 535 q 399 696 221 696 q 622 661 533 696 l 606 575 q 421 582 501 582 q 260 531 304 582 q 215 339 215 479 q 260 147 215 199 q 421 96 304 96 q 621 111 535 96 z "},"т":{"ha":686,"x_min":36,"x_max":651,"o":"m 651 568 l 411 568 l 411 0 l 276 0 l 276 568 l 36 568 l 36 678 l 651 678 l 651 568 z "},"у":{"ha":744,"x_min":25,"x_max":719,"o":"m 719 678 l 456 -32 q 328 -233 406 -174 q 63 -278 235 -303 l 75 -183 q 238 -156 183 -192 q 331 -25 290 -118 l 340 0 l 311 0 q 264 35 275 0 l 25 678 l 168 678 l 336 185 q 361 101 356 133 l 381 101 q 390 129 383 111 q 400 160 396 147 q 408 185 404 174 l 575 678 l 719 678 z "},"ф":{"ha":1004,"x_min":72,"x_max":932,"o":"m 564 972 l 564 694 q 848 602 764 685 q 932 338 932 519 q 847 76 932 157 q 564 -15 763 -6 l 564 -276 l 440 -276 l 440 -15 q 157 76 242 -6 q 72 338 72 157 q 156 602 72 519 q 440 694 240 685 l 440 972 l 564 972 m 444 97 l 444 581 q 256 520 308 574 q 203 338 203 467 q 256 157 203 210 q 444 97 310 104 m 560 581 l 560 97 q 748 157 694 104 q 801 338 801 210 q 749 520 801 467 q 560 581 696 574 z "},"х":{"ha":744,"x_min":31,"x_max":714,"o":"m 385 300 l 360 300 l 176 0 l 31 0 l 251 350 l 47 678 l 192 678 l 357 404 l 388 404 l 553 678 l 697 678 l 493 350 l 714 0 l 568 0 l 385 300 z "},"ц":{"ha":832,"x_min":107,"x_max":783,"o":"m 783 -200 l 694 -200 l 682 0 l 107 0 l 107 678 l 239 678 l 239 108 l 554 108 l 554 678 l 688 678 l 688 108 l 783 108 l 783 -200 z "},"ч":{"ha":746,"x_min":74,"x_max":638,"o":"m 638 678 l 638 0 l 504 0 l 504 276 q 249 231 371 231 q 74 381 74 231 l 74 678 l 206 678 l 206 426 q 226 360 206 379 q 293 340 246 340 q 504 382 399 340 l 504 678 l 638 678 z "},"ш":{"ha":1126,"x_min":107,"x_max":1019,"o":"m 1019 678 l 1019 0 l 107 0 l 107 678 l 236 678 l 236 108 l 501 108 l 501 678 l 622 678 l 622 108 l 889 108 l 889 678 l 1019 678 z "},"щ":{"ha":1165,"x_min":107,"x_max":1117,"o":"m 1117 -200 l 1028 -200 l 1015 0 l 107 0 l 107 678 l 236 678 l 236 108 l 503 108 l 503 678 l 622 678 l 622 108 l 890 108 l 890 678 l 1019 678 l 1019 108 l 1117 108 l 1117 -200 z "},"ъ":{"ha":881,"x_min":35,"x_max":824,"o":"m 400 422 l 546 422 q 764 376 704 422 q 824 206 824 329 q 765 38 824 83 q 565 -8 706 -8 q 269 0 378 -8 l 269 572 l 35 572 l 35 678 l 400 678 l 400 422 m 400 99 l 546 97 q 656 120 626 97 q 686 211 686 143 q 657 299 686 275 q 546 324 628 324 l 400 324 l 400 99 z "},"ы":{"ha":1015,"x_min":107,"x_max":908,"o":"m 236 422 l 385 422 q 600 376 542 422 q 658 206 658 329 q 601 38 658 83 q 407 -8 544 -8 q 110 0 218 -8 l 107 0 l 107 678 l 236 678 l 236 422 m 908 678 l 908 0 l 774 0 l 774 678 l 908 678 m 236 99 l 385 97 q 493 120 464 97 q 522 211 522 143 q 494 299 522 275 q 385 324 465 324 l 236 324 l 236 99 z "},"ь":{"ha":719,"x_min":107,"x_max":663,"o":"m 236 422 l 385 422 q 603 376 543 422 q 663 206 663 329 q 605 38 663 83 q 407 -8 547 -8 q 110 0 218 -8 l 107 0 l 107 678 l 236 678 l 236 422 m 236 99 l 385 97 q 497 120 467 97 q 526 211 526 143 q 497 299 526 275 q 385 324 467 324 l 236 324 l 236 99 z "},"э":{"ha":710,"x_min":56,"x_max":635,"o":"m 76 568 l 63 661 q 297 688 153 688 q 560 610 485 688 q 635 335 635 532 q 560 63 635 142 q 297 -15 485 -15 q 56 14 153 -15 l 68 108 q 297 100 169 100 q 449 141 406 100 q 499 294 493 182 l 156 294 l 156 396 l 497 396 q 444 538 489 499 q 297 575 400 576 q 76 568 167 575 z "},"ю":{"ha":1113,"x_min":107,"x_max":1038,"o":"m 240 401 l 406 401 q 483 632 414 568 q 713 696 551 696 q 966 620 894 696 q 1038 340 1038 544 q 966 63 1038 139 q 713 -12 894 -12 q 478 54 547 -12 q 404 297 410 121 l 240 297 l 240 0 l 107 0 l 107 678 l 240 678 l 240 401 m 710 100 q 857 151 817 100 q 899 340 897 203 q 857 531 897 479 q 710 582 817 582 q 569 531 607 582 q 532 340 532 481 q 569 151 532 203 q 710 100 607 100 z "},"я":{"ha":760,"x_min":51,"x_max":654,"o":"m 243 290 l 243 296 q 127 354 163 308 q 92 483 92 400 q 149 637 92 588 q 350 686 206 686 q 654 676 554 686 l 654 0 l 522 0 l 522 247 l 347 247 q 240 182 258 247 l 190 0 l 51 0 l 113 204 q 243 290 133 278 m 522 347 l 522 578 l 353 578 q 247 555 272 578 q 222 464 222 532 q 249 372 222 397 q 356 347 275 347 l 522 347 z "},"ё":{"ha":754,"x_min":74,"x_max":686,"o":"m 292 814 l 246 814 q 210 850 210 814 l 210 925 q 246 963 210 963 l 292 963 q 326 925 326 963 l 326 850 q 292 814 326 814 m 538 814 l 493 814 q 456 850 456 814 l 456 925 q 493 963 456 963 l 538 963 q 574 925 574 963 l 574 850 q 538 814 574 814 m 521 274 l 217 274 q 272 132 226 168 q 419 96 317 96 q 657 113 510 96 l 669 24 q 401 -17 578 -17 q 149 65 224 -17 q 74 340 74 146 q 147 617 74 538 q 389 696 221 696 q 614 639 543 696 q 686 468 685 582 q 521 274 686 274 m 214 378 l 485 378 q 550 468 553 378 q 516 556 550 531 q 396 582 482 582 q 256 540 294 582 q 214 378 218 497 z "},"ђ":{"ha":818,"x_min":36,"x_max":744,"o":"m 274 682 l 274 576 q 267 458 274 517 q 558 561 415 561 q 744 375 744 561 l 744 0 l 610 0 l 610 336 q 585 418 610 394 q 500 442 561 442 q 272 360 414 442 l 272 0 l 139 0 l 139 682 l 36 682 l 36 758 l 139 758 l 139 972 l 274 972 l 274 758 l 524 758 l 524 682 l 274 682 z "},"ѓ":{"ha":649,"x_min":103,"x_max":619,"o":"m 600 922 l 324 760 l 278 821 l 524 1025 l 600 922 m 103 0 l 103 532 q 257 682 103 682 q 619 669 508 682 l 615 575 l 314 575 q 255 556 274 575 q 236 496 236 538 l 236 0 l 103 0 z "},"є":{"ha":710,"x_min":75,"x_max":654,"o":"m 642 108 l 654 14 q 413 -15 557 -15 q 150 63 225 -15 q 75 335 75 142 q 150 610 75 532 q 413 688 225 688 q 647 661 557 688 l 633 568 q 413 575 543 575 q 265 538 310 576 q 213 396 221 499 l 556 396 l 556 294 l 211 294 q 260 141 217 182 q 413 100 304 100 q 642 108 540 100 z "},"ѕ":{"ha":713,"x_min":69,"x_max":646,"o":"m 413 267 l 224 314 q 104 380 139 336 q 69 507 69 424 q 129 658 69 619 q 336 696 189 697 q 625 672 499 693 l 615 575 q 357 582 400 582 q 228 570 258 582 q 199 507 199 558 q 203 469 199 483 q 224 444 207 454 q 251 431 242 435 q 296 418 261 428 l 488 371 q 609 307 572 349 q 646 181 646 265 q 580 23 646 61 q 351 -15 514 -15 q 82 4 210 -15 l 92 104 q 322 97 168 97 q 476 113 436 97 q 515 181 515 129 q 510 217 515 203 q 486 242 504 232 q 458 255 468 251 q 413 267 447 258 z "},"і":{"ha":357,"x_min":107,"x_max":250,"o":"m 147 967 l 211 967 q 250 928 250 967 l 250 850 q 211 810 250 810 l 147 810 q 107 850 107 810 l 107 928 q 147 967 107 967 m 246 0 l 113 0 l 113 678 l 246 678 l 246 0 z "},"ї":{"ha":357,"x_min":-3,"x_max":361,"o":"m 33 963 l 78 963 q 114 925 114 963 l 114 850 q 78 814 114 814 l 33 814 q -3 850 -3 814 l -3 925 q 33 963 -3 963 m 281 963 l 324 963 q 361 925 361 963 l 361 850 q 324 814 361 814 l 281 814 q 243 850 243 814 l 243 925 q 281 963 243 963 m 246 0 l 113 0 l 113 678 l 246 678 l 246 0 z "},"ј":{"ha":358,"x_min":36,"x_max":251,"o":"m 149 967 l 211 967 q 251 928 251 967 l 251 850 q 211 810 251 810 l 149 810 q 108 850 108 810 l 108 928 q 149 967 108 967 m 247 678 l 247 -7 q 210 -162 247 -90 q 110 -281 174 -235 l 36 -222 q 113 -7 113 -126 l 113 678 l 247 678 z "},"љ":{"ha":1124,"x_min":38,"x_max":1067,"o":"m 647 424 l 792 424 q 1008 377 949 424 q 1067 207 1067 331 q 1008 37 1067 82 q 807 -8 949 -8 q 519 0 628 -8 l 519 576 l 418 576 q 362 563 379 576 q 340 513 344 549 q 271 139 311 240 q 182 27 242 63 q 49 -4 122 -8 l 38 88 q 149 174 118 114 q 187 294 175 226 q 218 538 199 361 q 381 678 233 678 l 647 678 l 647 424 m 647 97 l 786 97 q 900 119 869 97 q 931 213 931 142 q 901 302 931 278 q 792 326 872 326 l 647 326 l 647 97 z "},"њ":{"ha":1132,"x_min":107,"x_max":1075,"o":"m 654 422 l 800 422 q 1017 376 958 422 q 1075 207 1075 331 q 1017 38 1075 83 q 821 -8 960 -8 q 528 0 636 -8 l 528 325 l 231 325 l 231 0 l 107 0 l 107 678 l 231 678 l 231 422 l 528 422 l 528 678 l 654 678 l 654 422 m 654 97 l 800 97 q 909 120 879 97 q 939 213 939 143 q 910 301 939 276 q 800 325 882 325 l 654 325 l 654 97 z "},"ћ":{"ha":818,"x_min":36,"x_max":744,"o":"m 274 682 l 274 576 q 267 458 274 517 q 558 561 415 561 q 744 375 742 561 l 744 -7 q 708 -162 744 -90 q 607 -281 671 -235 l 532 -222 q 610 -8 610 -129 l 610 336 q 585 418 610 394 q 500 442 561 442 q 272 360 414 442 l 272 0 l 139 0 l 139 682 l 36 682 l 36 758 l 139 758 l 139 972 l 274 972 l 274 758 l 524 758 l 524 682 l 274 682 z "},"ќ":{"ha":750,"x_min":107,"x_max":706,"o":"m 338 760 l 293 821 l 539 1025 l 615 922 l 338 760 m 432 354 l 432 351 q 491 338 465 347 q 537 319 517 329 q 576 283 557 308 q 609 237 596 257 q 640 173 622 217 q 670 97 658 129 q 706 0 682 65 l 565 0 q 527 99 539 69 q 496 173 515 129 q 463 233 476 217 q 427 269 449 250 q 382 294 406 289 q 326 300 358 300 l 233 300 q 240 238 240 265 l 240 0 l 107 0 l 107 678 l 240 678 l 240 482 q 233 404 240 446 l 318 404 q 450 463 407 404 q 547 678 493 522 l 686 678 q 654 592 663 615 q 627 525 646 569 q 597 465 608 481 q 567 424 586 450 q 531 388 549 397 q 488 368 513 378 q 432 354 463 358 z "},"ѝ":{"ha":817,"x_min":107,"x_max":710,"o":"m 476 821 l 432 760 l 156 922 l 231 1025 l 476 821 m 710 0 l 589 0 l 589 429 q 591 480 589 447 q 593 524 593 513 l 590 524 q 542 440 576 486 l 215 0 l 107 0 l 107 678 l 226 678 l 226 247 q 222 156 226 206 l 226 156 q 274 236 253 208 l 601 678 l 710 678 l 710 0 z "},"ў":{"ha":744,"x_min":25,"x_max":719,"o":"m 481 979 l 582 979 q 531 840 589 896 q 372 783 472 783 q 210 840 269 783 q 158 979 151 896 l 260 979 q 372 857 260 857 q 481 979 481 857 m 719 678 l 456 -32 q 328 -233 406 -174 q 63 -278 235 -303 l 75 -183 q 238 -156 183 -192 q 331 -25 290 -118 l 340 0 l 311 0 q 264 35 275 0 l 25 678 l 168 678 l 336 185 q 361 101 356 133 l 381 101 q 390 129 383 111 q 400 160 396 147 q 408 185 404 174 l 575 678 l 719 678 z "},"џ":{"ha":808,"x_min":107,"x_max":703,"o":"m 703 678 l 703 0 l 460 0 l 449 -229 l 358 -229 l 347 0 l 107 0 l 107 678 l 242 678 l 242 108 l 568 108 l 568 678 l 703 678 z "},"Ґ":{"ha":729,"x_min":114,"x_max":701,"o":"m 701 938 l 696 842 l 342 842 q 273 821 293 842 q 253 746 253 800 l 253 0 l 114 0 l 114 772 q 165 908 114 856 q 294 961 215 961 q 596 951 499 961 l 611 1169 l 701 1169 l 701 938 z "},"ґ":{"ha":651,"x_min":104,"x_max":622,"o":"m 622 881 l 622 669 l 617 575 l 314 575 q 238 496 238 575 l 238 0 l 104 0 l 104 532 q 258 682 104 682 q 519 678 435 682 l 533 881 l 622 881 z "},"Ұ":{"ha":813,"x_min":21,"x_max":792,"o":"m 681 304 l 476 304 l 476 0 l 338 0 l 338 304 l 133 304 l 133 386 l 311 386 l 21 958 l 169 958 l 361 565 q 403 454 372 542 l 414 454 q 456 564 435 522 l 647 958 l 792 958 l 504 386 l 681 386 l 681 304 z "},"ұ":{"ha":817,"x_min":22,"x_max":794,"o":"m 504 108 l 683 108 l 683 24 l 478 24 l 478 -276 l 340 -276 l 340 24 l 133 24 l 133 108 l 313 108 l 22 678 l 169 678 l 361 289 q 403 179 381 247 l 414 179 q 456 289 436 247 l 647 678 l 794 678 l 504 108 z "},"Ҷ":{"ha":915,"x_min":81,"x_max":874,"o":"m 874 96 l 874 -210 l 779 -210 l 765 0 l 621 0 l 621 421 q 304 344 463 344 q 135 399 190 344 q 81 564 81 453 l 81 958 l 221 958 l 221 592 q 249 495 218 525 q 353 465 281 465 q 621 532 478 465 l 621 958 l 760 958 l 760 96 l 874 96 z "},"ҷ":{"ha":783,"x_min":74,"x_max":735,"o":"m 735 108 l 735 -200 l 646 -200 l 633 0 l 504 0 l 504 276 q 249 231 371 231 q 74 381 74 231 l 74 678 l 206 678 l 206 426 q 226 360 206 379 q 293 340 246 340 q 504 382 399 340 l 504 678 l 638 678 l 638 108 l 735 108 z "},"Һ":{"ha":875,"x_min":117,"x_max":794,"o":"m 256 958 l 256 538 q 571 614 408 614 q 740 560 685 614 q 794 394 794 506 l 794 0 l 656 0 l 656 367 q 626 463 657 433 q 522 493 594 493 q 256 426 390 493 l 256 0 l 117 0 l 117 958 l 256 958 z "},"Ӏ":{"ha":374,"x_min":118,"x_max":257,"o":"m 257 0 l 118 0 l 118 958 l 257 958 l 257 0 z "},"Ẁ":{"ha":1321,"x_min":42,"x_max":1279,"o":"m 733 1069 l 689 1007 l 413 1169 l 488 1274 l 733 1069 m 1279 958 l 1096 40 q 1042 0 1083 0 l 888 0 q 833 42 843 0 l 694 746 q 675 854 681 818 l 646 854 l 625 746 l 488 42 q 469 12 485 24 q 433 0 453 0 l 278 0 q 225 40 235 0 l 42 958 l 189 958 l 326 228 q 343 106 331 204 l 375 106 q 396 228 382 165 l 533 913 q 586 958 543 958 l 735 958 q 769 945 754 958 q 788 913 783 932 l 924 226 q 944 106 935 171 l 976 106 q 985 165 979 125 q 994 225 990 206 l 1132 958 l 1279 958 z "},"ẁ":{"ha":1147,"x_min":32,"x_max":1115,"o":"m 647 821 l 601 760 l 325 922 l 401 1025 l 647 821 m 1115 678 l 925 38 q 874 0 914 0 l 753 0 q 701 43 711 0 l 603 489 q 597 523 600 501 q 590 563 593 544 q 582 597 586 581 l 565 597 l 543 489 l 446 43 q 393 0 436 0 l 274 0 q 224 38 232 0 l 32 678 l 171 678 l 301 189 q 322 85 318 119 l 340 85 l 364 189 l 464 636 q 514 678 474 678 l 635 678 q 685 635 675 678 l 783 189 q 807 85 786 175 l 825 85 q 846 189 835 147 l 976 678 l 1115 678 z "},"Ẃ":{"ha":1321,"x_min":42,"x_max":1279,"o":"m 888 1169 l 611 1007 l 567 1069 l 811 1274 l 888 1169 m 1279 958 l 1096 40 q 1042 0 1083 0 l 888 0 q 833 42 843 0 l 694 746 q 675 854 681 818 l 646 854 l 625 746 l 488 42 q 469 12 485 24 q 433 0 453 0 l 278 0 q 225 40 235 0 l 42 958 l 189 958 l 326 228 q 343 106 331 204 l 375 106 q 396 228 382 165 l 533 913 q 586 958 543 958 l 735 958 q 769 945 754 958 q 788 913 783 932 l 924 226 q 944 106 935 171 l 976 106 q 985 165 979 125 q 994 225 990 206 l 1132 958 l 1279 958 z "},"ẃ":{"ha":1147,"x_min":32,"x_max":1115,"o":"m 800 922 l 524 760 l 479 821 l 725 1025 l 800 922 m 1115 678 l 925 38 q 874 0 914 0 l 753 0 q 701 43 711 0 l 603 489 q 597 523 600 501 q 590 563 593 544 q 582 597 586 581 l 565 597 l 543 489 l 446 43 q 393 0 436 0 l 274 0 q 224 38 232 0 l 32 678 l 171 678 l 301 189 q 322 85 318 119 l 340 85 l 364 189 l 464 636 q 514 678 474 678 l 635 678 q 685 635 675 678 l 783 189 q 807 85 786 175 l 825 85 q 846 189 835 147 l 976 678 l 1115 678 z "},"Ẅ":{"ha":1321,"x_min":42,"x_max":1279,"o":"m 515 1211 l 561 1211 q 596 1174 596 1211 l 596 1099 q 561 1061 596 1061 l 515 1061 q 481 1099 481 1061 l 481 1174 q 515 1211 481 1211 m 763 1211 l 807 1211 q 843 1174 843 1211 l 843 1099 q 807 1061 843 1061 l 763 1061 q 726 1099 726 1061 l 726 1174 q 763 1211 726 1211 m 1279 958 l 1096 40 q 1042 0 1083 0 l 888 0 q 833 42 843 0 l 694 746 q 675 854 681 818 l 646 854 l 625 746 l 488 42 q 469 12 485 24 q 433 0 453 0 l 278 0 q 225 40 235 0 l 42 958 l 189 958 l 326 228 q 343 106 331 204 l 375 106 q 396 228 382 165 l 533 913 q 586 958 543 958 l 735 958 q 769 945 754 958 q 788 913 783 932 l 924 226 q 944 106 935 171 l 976 106 q 985 165 979 125 q 994 225 990 206 l 1132 958 l 1279 958 z "},"ẅ":{"ha":1147,"x_min":32,"x_max":1115,"o":"m 429 963 l 474 963 q 510 925 510 963 l 510 850 q 474 813 510 813 l 429 813 q 393 850 393 813 l 393 925 q 429 963 393 963 m 675 963 l 719 963 q 757 925 757 963 l 757 850 q 719 813 757 813 l 675 813 q 639 850 639 813 l 639 925 q 675 963 639 963 m 1115 678 l 925 38 q 874 0 914 0 l 753 0 q 701 43 711 0 l 603 489 q 597 523 600 501 q 590 563 593 544 q 582 597 586 581 l 565 597 l 543 489 l 446 43 q 393 0 436 0 l 274 0 q 224 38 232 0 l 32 678 l 171 678 l 301 189 q 322 85 318 119 l 340 85 l 364 189 l 464 636 q 514 678 474 678 l 635 678 q 685 635 675 678 l 783 189 q 807 85 786 175 l 825 85 q 846 189 835 147 l 976 678 l 1115 678 z "},"Ỳ":{"ha":797,"x_min":13,"x_max":783,"o":"m 425 1008 l 149 1171 l 225 1274 l 469 1071 l 425 1008 m 468 332 l 468 0 l 329 0 l 329 333 l 13 958 l 160 958 l 353 565 q 394 454 364 542 l 404 454 q 446 564 433 540 l 639 958 l 783 958 l 468 332 z "},"ỳ":{"ha":740,"x_min":22,"x_max":717,"o":"m 400 760 l 124 922 l 200 1025 l 446 821 l 400 760 m 717 678 l 454 -32 q 143 -285 360 -282 l 129 -196 q 254 -131 208 -172 q 328 -25 300 -89 l 338 0 l 310 0 q 263 35 271 0 l 22 678 l 167 678 l 335 185 q 358 101 351 142 l 378 101 q 406 185 392 139 l 572 678 l 717 678 z "},"–":{"ha":814,"x_min":96,"x_max":718,"o":"m 718 300 l 96 300 l 96 403 l 718 403 l 718 300 z "},"—":{"ha":1235,"x_min":96,"x_max":1138,"o":"m 1138 300 l 96 300 l 96 403 l 1138 403 l 1138 300 z "},"‘":{"ha":307,"x_min":86,"x_max":224,"o":"m 172 682 l 133 682 q 97 692 107 682 q 86 728 86 701 l 86 808 q 139 1013 88 924 l 201 996 q 188 840 188 922 q 224 801 226 840 l 224 728 q 211 692 222 701 q 172 682 200 682 z "},"’":{"ha":303,"x_min":81,"x_max":219,"o":"m 132 1003 l 171 1003 q 209 993 199 1003 q 219 958 219 983 l 219 876 q 167 672 218 767 l 103 689 q 118 844 118 761 q 81 883 81 844 l 81 958 q 94 993 82 983 q 132 1003 106 1003 z "},"‚":{"ha":322,"x_min":92,"x_max":231,"o":"m 143 160 l 182 160 q 220 150 210 160 q 231 115 231 140 l 231 33 q 178 -171 229 -78 l 114 -154 q 129 1 129 -71 q 92 40 92 1 l 92 115 q 143 160 93 160 z "},"“":{"ha":529,"x_min":86,"x_max":446,"o":"m 172 682 l 133 682 q 97 692 107 682 q 86 728 86 701 l 86 808 q 139 1013 88 924 l 201 996 q 188 840 188 922 q 224 801 226 840 l 224 728 q 211 692 222 701 q 172 682 200 682 m 394 682 l 356 682 q 319 692 329 682 q 308 728 308 701 l 308 808 q 361 1013 310 919 l 425 996 q 410 840 410 925 q 446 801 449 840 l 446 728 q 433 692 444 701 q 394 682 422 682 z "},"”":{"ha":525,"x_min":81,"x_max":442,"o":"m 132 1003 l 171 1003 q 209 993 199 1003 q 219 958 219 983 l 219 876 q 167 672 218 767 l 103 689 q 118 844 118 761 q 81 883 81 844 l 81 958 q 94 993 82 983 q 132 1003 106 1003 m 354 1003 l 394 1003 q 431 993 421 1003 q 442 958 442 983 l 442 876 q 389 672 440 767 l 325 689 q 340 844 340 761 q 303 883 303 844 l 303 958 q 316 993 304 983 q 354 1003 328 1003 z "},"„":{"ha":544,"x_min":92,"x_max":453,"o":"m 143 160 l 182 160 q 220 150 210 160 q 231 115 231 140 l 231 33 q 178 -171 229 -78 l 114 -154 q 129 1 129 -71 q 92 40 92 1 l 92 115 q 105 150 93 140 q 143 160 117 160 m 365 160 l 404 160 q 442 150 432 160 q 453 115 453 140 l 453 33 q 400 -171 451 -78 l 336 -154 q 351 1 351 -71 q 314 40 314 1 l 314 115 q 327 150 315 140 q 365 160 339 160 z "},"†":{"ha":635,"x_min":56,"x_max":579,"o":"m 372 -153 l 263 -153 l 263 672 l 257 960 l 379 960 l 372 672 l 372 -153 m 56 561 l 56 678 l 236 678 l 236 576 l 56 561 m 579 678 l 579 561 l 399 576 l 399 678 l 579 678 z "},"‡":{"ha":688,"x_min":82,"x_max":606,"o":"m 399 675 l 399 129 l 404 -153 l 283 -153 l 289 129 l 289 675 l 283 960 l 404 960 l 399 675 m 263 576 l 82 561 l 82 678 l 263 678 l 263 576 m 606 561 l 425 576 l 425 678 l 606 678 l 606 561 m 263 231 l 263 129 l 82 129 l 82 246 l 263 231 m 606 129 l 425 129 l 425 231 l 606 246 l 606 129 z "},"•":{"ha":507,"x_min":122,"x_max":385,"o":"m 247 503 l 265 503 q 358 476 332 503 q 385 383 385 450 l 385 365 q 358 267 385 294 q 265 240 332 240 l 247 240 q 149 267 176 240 q 122 365 122 294 l 122 383 q 149 476 122 450 q 247 503 176 503 z "},"…":{"ha":1194,"x_min":86,"x_max":1099,"o":"m 135 172 l 179 172 q 217 161 206 172 q 228 124 228 150 l 228 50 q 217 11 228 22 q 179 0 207 0 l 135 0 q 97 11 107 0 q 86 50 86 22 l 86 124 q 97 161 86 150 q 135 172 108 172 m 569 172 l 614 172 q 653 162 642 172 q 664 124 664 151 l 664 50 q 653 11 664 22 q 614 0 642 0 l 569 0 q 531 11 542 0 q 521 50 521 22 l 521 124 q 531 161 521 150 q 569 172 542 172 m 1006 172 l 1050 172 q 1088 161 1078 172 q 1099 124 1099 150 l 1099 50 q 1088 11 1099 22 q 1050 0 1078 0 l 1006 0 q 967 11 978 0 q 956 50 956 22 l 956 124 q 967 161 956 150 q 1006 172 978 172 z "},"‰":{"ha":1767,"x_min":61,"x_max":1701,"o":"m 112 912 q 137 944 112 912 q 288 976 163 976 q 463 912 413 976 q 514 692 514 847 q 463 472 514 538 q 288 407 413 407 q 112 472 163 407 q 61 692 61 538 q 112 912 61 847 m 361 0 l 267 0 l 879 958 l 974 958 l 361 0 m 286 893 q 190 850 217 893 q 164 692 164 807 q 190 533 164 576 q 286 490 217 490 q 384 533 358 490 q 410 692 410 575 q 383 850 410 807 q 286 893 357 893 m 957 556 q 1131 490 1081 556 q 1182 271 1182 425 q 1131 51 1182 115 q 957 -14 1081 -14 q 781 51 832 -14 q 731 271 731 115 q 781 490 731 425 q 957 556 832 556 m 1301 490 q 1326 523 1301 490 q 1476 556 1351 556 q 1651 490 1601 556 q 1701 271 1701 425 q 1651 51 1701 115 q 1476 -14 1601 -14 q 1301 51 1351 -14 q 1251 271 1251 115 q 1301 490 1251 425 m 1053 428 q 1040 450 1053 428 q 956 471 1026 471 q 858 428 885 471 q 833 271 832 385 q 858 113 832 157 q 956 69 885 69 q 1053 113 1026 69 q 1079 271 1079 157 q 1053 428 1079 386 m 1475 471 q 1379 428 1406 471 q 1353 271 1353 385 q 1379 113 1353 157 q 1475 69 1406 69 q 1573 113 1546 69 q 1600 271 1600 157 q 1574 428 1600 386 q 1475 471 1547 471 z "},"‹":{"ha":411,"x_min":54,"x_max":349,"o":"m 347 593 l 178 349 l 349 100 l 278 53 l 54 333 l 54 364 l 276 639 l 347 593 z "},"›":{"ha":414,"x_min":63,"x_max":358,"o":"m 358 364 l 358 333 l 135 53 l 63 100 l 233 349 l 64 593 l 136 639 l 358 364 z "},"⁄":{"ha":222,"x_min":-243,"x_max":464,"o":"m -147 0 l -243 0 l 369 958 l 464 958 l -147 0 z "},"€":{"ha":885,"x_min":69,"x_max":817,"o":"m 801 124 l 817 17 q 567 -17 713 -17 q 293 75 383 -17 q 185 358 203 167 l 69 358 l 69 440 l 179 440 l 179 479 q 181 538 179 519 l 71 538 l 71 619 l 186 619 q 297 888 207 800 q 567 975 388 975 q 799 947 692 975 l 785 838 q 558 850 674 857 q 404 790 458 846 q 333 619 350 733 l 678 619 l 668 538 l 325 538 q 324 508 325 528 q 324 476 324 488 l 325 440 l 626 440 l 617 358 l 331 358 q 399 172 344 233 q 558 108 453 111 q 801 124 689 101 z "},"™":{"ha":1343,"x_min":90,"x_max":1244,"o":"m 1244 439 l 1156 439 l 1135 893 l 1118 893 l 1001 535 q 961 504 990 504 l 892 504 q 851 535 863 504 l 735 893 l 718 893 l 699 439 l 610 439 l 631 929 q 667 967 633 967 l 765 967 q 803 936 792 967 l 900 643 q 909 608 903 633 q 919 568 915 582 l 933 568 q 944 606 938 581 q 954 644 950 632 l 1049 936 q 1088 967 1058 967 l 1188 967 q 1224 929 1222 967 l 1244 439 m 544 967 l 544 888 l 365 888 l 365 439 l 269 439 l 269 888 l 90 888 l 90 967 l 544 967 z "},"∂":{"ha":796,"x_min":72,"x_max":715,"o":"m 178 874 l 178 976 q 389 967 304 978 q 543 924 474 956 q 650 835 613 893 q 705 688 688 778 q 715 468 722 599 q 624 104 703 225 q 369 -17 546 -17 q 222 12 283 -17 q 128 90 160 40 q 83 195 96 139 q 72 317 69 251 q 152 541 79 454 q 363 626 225 628 q 581 526 497 624 q 506 803 586 733 q 178 874 425 874 m 372 103 q 522 189 479 103 q 576 443 564 275 q 392 513 493 513 q 206 317 215 513 q 242 161 201 219 q 372 103 283 103 z "},"∅":{"ha":951,"x_min":69,"x_max":882,"o":"m 189 760 q 249 820 189 760 q 476 879 308 879 q 763 760 644 879 q 882 474 882 642 q 763 186 882 306 q 476 67 644 67 q 189 186 308 67 q 69 474 69 306 q 189 760 69 642 m 433 335 l 508 335 q 528 424 508 383 q 574 489 549 465 q 619 549 599 513 q 639 628 639 586 q 476 757 639 757 q 307 742 406 757 l 311 679 q 476 692 394 692 q 568 628 568 692 q 547 566 568 599 q 501 507 526 533 q 454 435 475 481 q 433 335 433 389 m 499 238 l 444 238 q 435 226 435 238 l 435 175 q 444 165 435 165 l 499 165 q 510 175 510 165 l 510 226 q 499 238 510 238 z "},"∏":{"ha":1000,"x_min":51,"x_max":949,"o":"m 949 844 l 808 844 l 808 -142 l 675 -142 l 675 844 l 326 844 l 326 -142 l 192 -142 l 192 844 l 51 844 l 51 958 l 949 958 l 949 844 z "},"∑":{"ha":822,"x_min":67,"x_max":753,"o":"m 739 846 l 235 846 l 460 479 l 215 -46 l 753 -46 l 753 -158 l 67 -158 l 67 -46 l 310 479 l 83 846 l 83 958 l 739 958 l 739 846 z "},"−":{"ha":813,"x_min":99,"x_max":713,"o":"m 713 360 l 99 360 l 99 460 l 713 460 l 713 360 z "},"√":{"ha":789,"x_min":43,"x_max":760,"o":"m 760 1217 l 413 11 q 394 0 408 0 l 236 0 q 218 11 221 0 l 43 678 l 156 678 l 306 90 l 324 90 l 646 1217 l 760 1217 z "},"∞":{"ha":1081,"x_min":81,"x_max":1000,"o":"m 807 622 q 945 574 890 622 q 1000 431 1000 525 q 941 279 1000 333 q 790 225 882 225 q 542 350 661 225 q 288 225 419 225 q 140 280 199 225 q 81 431 81 335 q 138 574 81 525 q 283 622 194 622 q 542 490 422 622 q 807 622 668 622 m 310 324 q 400 349 361 324 q 482 422 439 374 q 399 499 436 475 q 303 524 363 524 q 196 428 196 524 q 310 324 196 324 m 772 324 q 855 350 825 324 q 885 428 885 376 q 781 524 885 524 q 705 506 740 524 q 651 470 669 489 q 603 418 632 451 q 772 324 676 324 z "},"∫":{"ha":511,"x_min":44,"x_max":467,"o":"m 226 -97 l 164 807 q 200 944 158 897 q 324 992 242 992 q 467 986 415 992 l 458 890 l 368 890 q 300 867 319 890 q 283 783 281 843 l 347 -124 q 315 -263 353 -218 q 182 -308 276 -308 q 44 -303 83 -308 l 53 -207 l 140 -207 q 210 -182 190 -207 q 226 -97 229 -157 z "},"≈":{"ha":814,"x_min":104,"x_max":711,"o":"m 193 450 l 104 450 q 128 585 90 542 q 242 625 167 628 q 401 586 288 624 q 564 546 515 549 q 609 559 597 544 q 621 618 621 574 l 711 618 q 688 487 724 531 q 569 444 653 443 q 406 485 518 446 q 250 525 293 524 q 206 510 218 526 q 193 450 193 494 m 193 183 l 104 183 q 128 319 90 276 q 242 360 167 363 q 401 320 288 358 q 564 279 515 282 q 609 293 597 278 q 621 351 621 308 l 711 351 q 688 221 724 264 q 569 179 653 178 q 406 219 518 181 q 250 258 293 257 q 205 244 217 260 q 193 183 193 229 z "},"≠":{"ha":856,"x_min":125,"x_max":739,"o":"m 497 504 l 379 311 l 739 311 l 739 211 l 318 211 l 215 40 l 176 60 l 268 211 l 125 211 l 125 311 l 328 311 l 446 504 l 125 504 l 125 604 l 506 604 l 597 756 l 638 735 l 557 604 l 739 604 l 739 504 l 497 504 z "},"≤":{"ha":782,"x_min":90,"x_max":689,"o":"m 678 643 l 222 506 l 678 379 l 678 272 l 106 451 l 106 558 l 678 750 l 678 643 m 689 103 l 90 103 l 90 201 l 689 201 l 689 103 z "},"≥":{"ha":782,"x_min":93,"x_max":692,"o":"m 676 558 l 676 451 l 104 272 l 104 379 l 560 506 l 104 643 l 104 750 l 676 558 m 692 103 l 93 103 l 93 201 l 692 201 l 692 103 z "},"◊":{"ha":796,"x_min":46,"x_max":750,"o":"m 410 960 l 750 493 q 750 468 756 481 l 410 -1 q 388 -1 399 -17 l 46 468 q 46 493 40 481 l 388 960 q 410 960 399 975 m 156 481 l 399 132 l 640 481 l 399 826 l 156 481 z "},"ﬁ":{"ha":858,"x_min":38,"x_max":751,"o":"m 749 678 l 749 0 l 615 0 l 615 574 l 294 574 l 294 0 l 160 0 l 160 574 l 38 574 l 38 671 l 160 678 l 160 779 q 206 941 160 886 q 361 996 253 996 q 524 986 467 996 l 524 886 l 408 886 q 319 859 344 886 q 294 764 294 832 l 294 678 l 749 678 m 649 967 l 713 967 q 751 928 751 967 l 751 850 q 713 810 751 810 l 649 810 q 608 850 608 810 l 608 928 q 649 967 608 967 z "},"ﬂ":{"ha":943,"x_min":36,"x_max":931,"o":"m 915 92 l 931 6 q 800 -12 890 -12 q 675 30 721 -12 q 629 149 629 72 l 629 888 l 407 888 q 319 861 344 889 q 293 764 293 833 l 293 678 l 490 678 l 490 574 l 293 574 l 293 0 l 158 0 l 158 574 l 36 574 l 36 671 l 158 678 l 158 779 q 206 942 158 886 q 360 996 253 997 q 764 979 661 996 l 764 179 q 851 92 764 92 l 915 92 z "}}}
